<?xml version="1.0" encoding="utf-8"?>
<!-- Generator: Adobe Illustrator 19.1.0, SVG Export Plug-In . SVG Version: 6.00 Build 0)  -->
<svg version="1.1" id="Layer_1" xmlns="http://www.w3.org/2000/svg" xmlns:xlink="http://www.w3.org/1999/xlink" x="0px" y="0px"
	 viewBox="0 0 17 32" style="enable-background:new 0 0 17 32;" xml:space="preserve">
<style type="text/css">
	.st0{fill:#757475;}
</style>
<path class="st0" d="M0.3,16.7C0.3,16.7,0.3,16.7,0.3,16.7l15,15c0.4,0.4,1.1,0.4,1.5,0c0.4-0.4,0.4-1.1,0-1.5L2.5,16L16.7,1.8
	c0.4-0.4,0.4-1.1,0-1.5v0c-0.4-0.4-1.1-0.4-1.5,0l-15,15c0,0,0,0,0,0C0.1,15.5,0,15.7,0,16C0,16.3,0.1,16.5,0.3,16.7z"/>
</svg>
