<?xml version="1.0" encoding="utf-8"?>
<!-- Generator: Adobe Illustrator 19.1.0, SVG Export Plug-In . SVG Version: 6.00 Build 0)  -->
<svg version="1.1" id="Layer_1" xmlns="http://www.w3.org/2000/svg" xmlns:xlink="http://www.w3.org/1999/xlink" x="0px" y="0px"
	 viewBox="0 0 17 32" style="enable-background:new 0 0 17 32;" xml:space="preserve">
<style type="text/css">
	.st0{fill:#757475;}
</style>
<path class="st0" d="M16.7,15.3C16.7,15.3,16.7,15.3,16.7,15.3l-15-15c-0.4-0.4-1.1-0.4-1.5,0c-0.4,0.4-0.4,1.1,0,1.5L14.5,16
	L0.3,30.2c-0.4,0.4-0.4,1.1,0,1.5v0c0.4,0.4,1.1,0.4,1.5,0l15-15c0,0,0,0,0,0c0.2-0.2,0.3-0.5,0.3-0.7C17,15.7,16.9,15.5,16.7,15.3z
	"/>
</svg>
