<svg height="512pt" viewBox="-96 0 512 512.00075" width="512pt" xmlns="http://www.w3.org/2000/svg"><path d="m270.449219 386c5.519531 0 10-4.480469 10-10s-4.480469-10-10-10c-5.523438 0-10 4.480469-10 10s4.476562 10 10 10zm0 0"/><path d="m24.496094 316.164062c-25.085938 35.816407-38.414063 82.980469-2.472656 108.140626 22.929687 16.054687 51.421874 11.144531 77.816406-12.800782 10.660156 29.042969 29.28125 48.675782 50.605468 53.390625v37.105469c0 5.523438 4.480469 10 10 10 5.523438 0 10-4.476562 10-10v-37.109375c21.324219-4.710937 39.945313-24.339844 50.605469-53.378906 23.21875 21.0625 52.34375 30.625 77.820313 12.789062 35.957031-25.171875 22.59375-72.351562-2.472656-108.132812-17.78125-25.417969-43.984376-51.464844-70.339844-70.011719l49.761718-31.722656c2.882813-1.835938 4.625-5.019532 4.625-8.433594v-126c0-3.417969-1.746093-6.601562-4.628906-8.4375l-110-70c-3.277344-2.082031-7.460937-2.082031-10.738281 0l-110 70c-2.882813 1.835938-4.628906 5.019531-4.628906 8.4375v126c0 3.417969 1.746093 6.601562 4.628906 8.4375l49.796875 31.6875c-26.371094 18.550781-52.585938 44.613281-70.378906 70.039062zm100.671875-80.164062c-1.121094 0-2.246094.046875-3.367188.121094-.890625-3.316406-1.351562-6.699219-1.351562-10.121094 0-22.054688 17.941406-40 40-40 22.054687 0 40 17.945312 40 40 0 3.460938-.445313 6.847656-1.304688 10.125-1.136719-.078125-2.273437-.125-3.414062-.125zm35.28125 72.539062c4.054687 12.332032 9.1875 25.085938 15.121093 37.460938h-30.246093c5.933593-12.375 11.066406-25.128906 15.125-37.460938zm-25.636719 57.460938h51.269531c3.960938 6.882812 8.191407 13.578125 12.75 20h-76.769531c4.550781-6.410156 8.769531-13.078125 12.75-20zm25.636719 80c-16.242188 0-31.984375-15.640625-41.3125-40.007812h82.621093c-9.324218 24.367187-25.066406 40.007812-41.308593 40.007812zm119.566406-118.363281c17.792969 25.402343 32.640625 62.601562 7.386719 80.28125-48.460938 33.929687-112.914063-86.03125-116.9375-146.671875.101562-1.800782.148437-3.554688.140625-5.246094h25.125c5.988281 0 12.085937 1.816406 17.472656 5.550781 25.003906 17.328125 49.980469 42.03125 66.8125 66.085938zm-219.566406-242.144531 100-63.636719 100 63.636719v115.023437l-40 25.5c0-.003906 0-.011719 0-.015625 0-25.820312-16.398438-47.882812-39.324219-56.324219 2.914062-13.515625 14.953125-23.675781 29.324219-23.675781 5.519531 0 10-4.476562 10-10s-4.480469-10-10-10c-24.15625 0-44.363281 17.21875-49 40.027344-.335938-.007813-.664063-.027344-1-.027344-.335938 0-.667969.019531-1.003907.027344-4.636718-22.808594-24.84375-40.027344-48.996093-40.027344-5.523438 0-10 4.476562-10 10s4.476562 10 10 10c14.371093 0 26.410156 10.160156 29.320312 23.675781-22.914062 8.4375-39.304687 30.484375-39.320312 56.289063l-40-25.453125zm47.238281 176.0625c5.425781-3.753907 11.519531-5.5625 17.480469-5.5625h25.121093c-.007812 1.691406.042969 3.445312.140626 5.246093-4.058594 61.152344-68.917969 180.296875-116.9375 146.679688-25.28125-17.695313-10.402344-54.882813 7.386718-80.285157 16.832032-24.050781 41.808594-48.753906 66.808594-66.078124zm0 0"/><path d="m201.164062 289.613281c-3.46875 4.296875-2.792968 10.59375 1.503907 14.0625 15.738281 12.695313 30.488281 27.855469 41.539062 42.691407 3.304688 4.433593 9.574219 5.339843 13.996094 2.042968 4.429687-3.296875 5.34375-9.5625 2.042969-13.992187-12.023438-16.144531-28.015625-32.589844-45.019532-46.308594-4.296874-3.46875-10.59375-2.796875-14.0625 1.503906zm0 0"/></svg>