<svg height="512pt" viewBox="-97 0 512 512" width="512pt" xmlns="http://www.w3.org/2000/svg"><path d="m102.984375 99.671875c-.652344 0-1.3125-.070313-1.953125-.203125-.636719-.128906-1.269531-.320312-1.867188-.570312-.609374-.25-1.191406-.558594-1.730468-.917969-.550782-.359375-1.058594-.78125-1.519532-1.242188-1.859374-1.859375-2.929687-4.4375-2.929687-7.066406 0-.652344.066406-1.3125.199219-1.960937.128906-.632813.320312-1.261719.570312-1.871094.25-.601563.558594-1.179688.917969-1.71875.359375-.550782.78125-1.0625 1.242187-1.519532.457032-.460937.96875-.882812 1.519532-1.25.539062-.363281 1.117187-.671874 1.730468-.921874.597657-.25 1.226563-.441407 1.867188-.570313 3.25-.648437 6.699219.410156 9.019531 2.742187.460938.460938.882813.96875 1.25 1.519532.363281.539062.660157 1.117187.910157 1.71875.261718.609375.453124 1.238281.582031 1.871094.128906.648437.1875 1.308593.1875 1.960937 0 2.628906-1.066407 5.207031-2.929688 7.066406-1.859375 1.863281-4.4375 2.933594-7.066406 2.933594zm0 0"/><path d="m310.027344 121.441406-40.308594-36.71875-8.910156-57.226562c-.046875-.292969-.105469-.582032-.175782-.867188-3.882812-15.679687-17.878906-26.628906-34.035156-26.628906h-4.847656c-22.929688 0-45.152344 7.433594-63.398438 21.078125-19.773437-13.621094-43.609374-21.078125-67.644531-21.078125-16.152343 0-30.148437 10.949219-34.03125 26.628906-.074219.285156-.132812.574219-.175781.867188l-8.910156 57.226562-40.3125 36.71875c-6.835938 6.222656-9.09375 15.816406-5.757813 24.4375 3.339844 8.621094 11.46875 14.191406 20.714844 14.191406h21.351563v5.183594c-12.792969 4.121094-22.074219 16.140625-22.074219 30.285156 0 16.976563 13.367187 30.890626 30.128906 31.765626 13.097656 33.101562 40.71875 58.210937 74.703125 68.136718l-1.835938 5.925782h-76.191406c-18.125 0-32.875 14.75-32.875 32.878906v167.753906c0 5.523438 4.476563 10 10 10h266.421875c5.523438 0 10-4.476562 10-10v-167.753906c0-18.128906-14.746093-32.878906-32.875-32.878906h-76.1875l-1.835937-5.925782c33.980468-9.921875 61.601562-35.035156 74.699218-68.136718 16.765626-.875 30.132813-14.789063 30.132813-31.765626 0-14.144531-9.28125-26.164062-22.074219-30.285156v-5.183594h21.351563c9.242187 0 17.375-5.570312 20.710937-14.191406 3.339844-8.621094 1.078125-18.214844-5.757812-24.4375zm-123.878906 199.925782v45.171874h-54.988282v-45.171874zm-150.707032 12.878906c0-7.101563 5.777344-12.878906 12.875-12.878906h17.503906v170.632812h-30.378906zm246.421875 0v157.753906h-30.378906v-170.632812h17.503906c7.101563 0 12.875 5.777343 12.875 12.878906zm-50.378906-12.878906v170.632812h-145.664063v-170.632812h25.339844v55.171874c0 5.523438 4.476563 10 10 10h74.988282c5.519531 0 10-4.476562 10-10v-55.171874zm32.238281-137.636719h.261719c6.515625 0 11.8125 5.296875 11.8125 11.808593 0 6.511719-5.296875 11.8125-11.8125 11.8125h-5.359375c-4.335938 0-8.175781 2.789063-9.511719 6.914063-10.738281 33.09375-38.601562 57.667969-72.714843 64.132813-2.800782.53125-5.238282 2.230468-6.707032 4.667968-1.46875 2.441406-1.828125 5.394532-.984375 8.113282l3.15625 10.191406h-26.417969l3.152344-10.191406c.84375-2.71875.484375-5.671876-.984375-8.113282-1.464843-2.4375-3.90625-4.136718-6.703125-4.667968-34.113281-6.464844-61.976562-31.039063-72.714844-64.132813-1.339843-4.125-5.179687-6.914063-9.511718-6.914063h-5.363282c-6.511718 0-11.808593-5.300781-11.808593-11.8125 0-6.511718 5.296875-11.808593 11.808593-11.808593h.265626c5.519531 0 10-4.476563 10-10v-13.660157h190.136718v13.660157c0 5.523437 4.476563 10 10 10zm33.410156-45.070313c-.363281.9375-1.058593 1.410156-2.0625 1.410156h-272.835937c-1.003906 0-1.699219-.472656-2.0625-1.410156s-.167969-1.757812.574219-2.433594l42.914062-39.09375c1.246094-1.132812 2.183594-2.601562 2.730469-4.199218 0 0 0-.003906 0-.007813.023437-.0625.042969-.125.066406-.191406.003907-.019531.011719-.039063.015625-.058594.015625-.042969.027344-.089843.042969-.136719.023437-.074218.042969-.148437.066406-.226562.003907-.023438.011719-.046875.015625-.066406.011719-.046875.023438-.089844.035156-.132813.007813-.035156.015626-.066406.023438-.101562.011719-.039063.019531-.078125.027344-.117188.007812-.039062.019531-.078125.027344-.117187.007812-.035156.015624-.070313.019531-.105469.011719-.054687.023437-.109375.03125-.160156.003906-.023438.007812-.042969.011719-.066407.015624-.078124.03125-.160156.042968-.238281 0-.007812 0-.011719 0-.019531l9.363282-60.125c1.800781-6.53125 7.71875-11.0625 14.527343-11.0625 21.300781 0 42.414063 7.039062 59.449219 19.816406l2.496094 1.871094c3.777344 2.832031 9.023437 2.640625 12.582031-.46875 15.65625-13.683594 35.726563-21.21875 56.519531-21.21875h4.847656c6.808594 0 12.726563 4.53125 14.523438 11.066406l7.566406 48.601563h-106.972656c-5.523438 0-10 4.476562-10 10 0 5.523437 4.476562 10 10 10h114.707031l40.132813 36.558593c.746094.675782.9375 1.496094.574218 2.433594zm0 0"/></svg>