<?xml version="1.0" encoding="iso-8859-1"?>
<!-- Generator: Adobe Illustrator 19.0.0, SVG Export Plug-In . SVG Version: 6.00 Build 0)  -->
<svg version="1.1" id="Capa_1" xmlns="http://www.w3.org/2000/svg" xmlns:xlink="http://www.w3.org/1999/xlink" x="0px" y="0px"
	 viewBox="0 0 512 512" style="enable-background:new 0 0 512 512;" xml:space="preserve">
<g>
	<g>
		<path d="M363.29,209.209c-0.029-0.039-0.06-0.079-0.09-0.118L264.396,81.866c-1.889-2.433-4.794-3.859-7.875-3.866
			c-0.008,0-0.016,0-0.023,0c-3.071,0-5.973,1.412-7.869,3.83l-99.24,126.559c-0.178,0.227-0.345,0.46-0.5,0.699
			c-19.887,24.492-30.825,55.315-30.825,86.932C118.063,372.102,179.961,434,256.044,434s137.981-61.898,137.981-137.981
			C394.025,264.484,383.113,233.672,363.29,209.209z M246.044,244.108l-22.654-22.654c-3.905-3.905-10.237-3.905-14.143,0
			c-3.906,3.905-3.905,10.237,0,14.143l36.796,36.796v76.89l-51.207-51.207c-3.905-3.905-10.237-3.905-14.143,0
			c-3.905,3.905-3.905,10.237,0,14.143l65.349,65.349v36.005c-60.389-5.095-107.979-55.868-107.979-117.554
			c0-27.365,9.581-54.033,26.979-75.091c0.285-0.345,0.543-0.706,0.775-1.079l80.227-102.311V244.108z M266.043,413.572V116.595
			l81.128,104.464c0.118,0.165,0.242,0.326,0.371,0.484c17.078,20.953,26.482,47.402,26.482,74.476
			C374.025,357.705,326.436,408.478,266.043,413.572z"/>
	</g>
</g>
<g>
	<g>
		<path d="M346.563,297.403c-5.467-0.809-10.548,2.962-11.358,8.426c-3.964,26.749-22.005,49.774-47.082,60.089
			c-5.108,2.101-7.545,7.945-5.444,13.052c1.589,3.863,5.318,6.198,9.252,6.198c1.267,0,2.556-0.242,3.8-0.754
			c31.559-12.982,54.266-41.971,59.258-75.653C355.798,303.298,352.026,298.213,346.563,297.403z"/>
	</g>
</g>
<g>
	<g>
		<path d="M346.044,264.2c-5.523,0-10,4.477-10,10v0.202c0,5.523,4.477,10,10,10s10-4.477,10-10V274.2
			C356.044,268.677,351.567,264.2,346.044,264.2z"/>
	</g>
</g>
<g>
	<g>
		<path d="M410.394,51.727C361.565,14.738,300.837-3.439,239.402,0.538C178.785,4.464,121.649,29.825,78.022,72.05H52.044
			c-5.523,0-10,4.477-10,10s4.477,10,10,10h7.385c-34.437,41.285-55.12,92.5-58.791,146.479
			c-4.154,61.093,13.633,121.619,50.087,170.429c1.964,2.629,4.973,4.017,8.02,4.017c2.081,0,4.18-0.647,5.976-1.988
			c4.425-3.305,5.333-9.571,2.028-13.996C2.337,310.747,5.827,190.915,72.044,108.256v3.795c0,5.523,4.477,10,10,10
			c5.523,0,10-4.477,10-10V86.312C175.138,6.01,306.065-2.213,398.318,67.669c4.401,3.334,10.674,2.47,14.009-1.933
			C415.662,61.334,414.796,55.062,410.394,51.727z"/>
	</g>
</g>
<g>
	<g>
		<path d="M437.437,75.354l-0.374-0.374c-3.905-3.905-10.237-3.905-14.143,0c-3.905,3.905-3.905,10.237,0,14.143l0.375,0.374
			c1.953,1.953,4.512,2.929,7.071,2.929s5.119-0.976,7.071-2.929C441.342,85.592,441.342,79.26,437.437,75.354z"/>
	</g>
</g>
<g>
	<g>
		<path d="M89.281,422.99l-0.189-0.189c-3.895-3.915-10.227-3.931-14.142-0.037c-3.916,3.895-3.932,10.227-0.037,14.142l0.189,0.19
			c1.954,1.964,4.521,2.947,7.089,2.947c2.551,0,5.102-0.97,7.053-2.911C93.16,433.237,93.176,426.905,89.281,422.99z"/>
	</g>
</g>
<g>
	<g>
		<path d="M459.992,419.937h-7.329c76.107-91.235,79.845-225.073,6.009-320.435c-3.381-4.367-9.663-5.167-14.029-1.785
			c-4.367,3.381-5.166,9.662-1.785,14.029c67.177,86.762,64.678,208.079-2.867,292.088v-3.897c0-5.523-4.477-10-10-10
			s-10,4.477-10,10v25.802c-82.63,79.791-213.059,88.339-305.152,19.397c-4.42-3.31-10.689-2.409-13.998,2.013
			c-3.31,4.421-2.409,10.688,2.013,13.998C147.055,494.237,200.879,512,256.061,512c5.757,0,11.538-0.194,17.316-0.583
			c60.357-4.072,117.252-29.421,160.701-71.479h25.913c5.523,0,10-4.477,10-10S465.515,419.937,459.992,419.937z"/>
	</g>
</g>
<g>
</g>
<g>
</g>
<g>
</g>
<g>
</g>
<g>
</g>
<g>
</g>
<g>
</g>
<g>
</g>
<g>
</g>
<g>
</g>
<g>
</g>
<g>
</g>
<g>
</g>
<g>
</g>
<g>
</g>
</svg>
