<svg height="512pt" viewBox="0 0 512 512" width="512pt" xmlns="http://www.w3.org/2000/svg"><path d="m509.863281 363.820312-110-140c-1.894531-2.410156-4.792969-3.820312-7.863281-3.820312s-5.96875 1.410156-7.863281 3.820312l-43.136719 54.902344v-98.722656h40c3.824219 0 7.3125-2.179688 8.988281-5.617188s1.246094-7.527343-1.109375-10.539062l-125-160c-1.894531-2.425781-4.800781-3.84375-7.878906-3.84375s-5.984375 1.417969-7.878906 3.84375l-125 160c-2.355469 3.011719-2.785156 7.105469-1.109375 10.539062 1.675781 3.4375 5.164062 5.617188 8.988281 5.617188h40v98.722656l-43.136719-54.902344c-1.894531-2.410156-4.792969-3.820312-7.863281-3.820312s-5.96875 1.410156-7.863281 3.820312l-110 140c-2.363281 3.011719-2.804688 7.109376-1.132813 10.550782 1.675782 3.445312 5.167969 5.628906 8.996094 5.628906h34v122c0 5.523438 4.476562 10 10 10h404c5.523438 0 10-4.476562 10-10v-122h34c3.828125 0 7.320312-2.1875 8.992188-5.628906 1.675781-3.441406 1.238281-7.539063-1.128907-10.550782zm-338.863281 128.179688h-107v-122c0-5.523438-4.476562-10-10-10h-23.425781l89.425781-113.8125 51 64.90625zm150-322v282h-25c-5.519531 0-10 4.488281-10 10s4.480469 10 10 10h25v20h-130v-20h25c5.511719 0 10-4.488281 10-10s-4.488281-10-10-10h-25v-282c0-5.523438-4.476562-10-10-10h-29.5l104.5-133.757812 104.496094 133.757812h-29.496094c-5.523438 0-10 4.476562-10 10zm137 190c-5.523438 0-10 4.476562-10 10v122h-107v-180.90625l51-64.90625 89.425781 113.8125zm0 0"/><path d="m256 452c-5.511719 0-10 4.488281-10 10s4.488281 10 10 10 10-4.488281 10-10-4.488281-10-10-10zm0 0"/><path d="m281.851562 136.964844c3.207032-4.496094 2.160157-10.738282-2.339843-13.945313-4.492188-3.207031-10.738281-2.160156-13.945313 2.335938l-35.417968 49.679687c-3.207032 4.5-2.160157 10.742188 2.339843 13.949219 1.757813 1.253906 3.785157 1.859375 5.792969 1.859375 3.125 0 6.203125-1.460938 8.152344-4.199219zm0 0"/><path d="m241 131c0 5.523438-4.476562 10-10 10s-10-4.476562-10-10 4.476562-10 10-10 10 4.476562 10 10zm0 0"/><path d="m291 181c0 5.523438-4.476562 10-10 10s-10-4.476562-10-10 4.476562-10 10-10 10 4.476562 10 10zm0 0"/></svg>