<?xml version="1.0" encoding="iso-8859-1"?>
<!-- Generator: Adobe Illustrator 19.0.0, SVG Export Plug-In . SVG Version: 6.00 Build 0)  -->
<svg version="1.1" id="Capa_1" xmlns="http://www.w3.org/2000/svg" xmlns:xlink="http://www.w3.org/1999/xlink" x="0px" y="0px"
	 viewBox="0 0 511.999 511.999" style="enable-background:new 0 0 511.999 511.999;" xml:space="preserve">
<g>
	<g>
		<path d="M386,205.999c-5.52,0-10,4.48-10,10s4.48,10,10,10c5.52,0,10-4.48,10-10S391.52,205.999,386,205.999z"/>
	</g>
</g>
<g>
	<g>
		<path d="M321.925,113.748c-18.557-18.347-27.556-50.65-21.457-77.934l5.29-23.63c0.844-3.767-0.557-7.684-3.598-10.062
			c-3.041-2.377-7.179-2.793-10.632-1.067l-31.054,15.527c-2.801,1.398-6.146,1.398-8.942,0.003l-31.06-15.53
			c-3.454-1.727-7.596-1.31-10.637,1.071c-3.042,2.382-4.439,6.302-3.591,10.07l5.13,22.78c6.208,27.563-2.853,60.249-21.603,78.848
			C108.731,133.493,36,193.508,36,275.999c0,94.259,93.633,159.425,193.075,168.734l-29.322,23.458
			c-4.313,3.45-5.012,9.743-1.562,14.056c3.449,4.312,9.743,5.012,14.056,1.562L246,456.805v45.194c0,5.522,4.477,10,10,10
			c5.523,0,10-4.478,10-10v-45.194l33.753,27.002c4.294,3.435,10.59,2.77,14.056-1.562c3.45-4.313,2.751-10.605-1.562-14.056
			l-29.322-23.458c48.431-4.534,93.287-21.25,128.297-48.15C452.995,364.484,476,321.66,476,275.999
			C476,193.713,403.507,133.45,321.925,113.748z M56,275.999c0-58.017,46.001-111.124,114.72-135.65
			C127.555,177.324,96,240.346,96,295.999c0,37.598,14.676,73.115,41.467,100.76C91.137,371.021,56,328.308,56,275.999z
			 M116,295.999c0-59.83,42.843-134.791,98.445-160.479C185.907,178.725,166,265.258,166,315.999
			c0,34.571,9.392,70.723,30.18,97.433C148.882,392.47,116,347.543,116,295.999z M246,424.856
			c-14.219-3.27-27.531-13.48-38.247-29.553C193.725,374.261,186,346.097,186,315.999c0-57.781,27.739-163.241,60-186.16V424.856z
			 M256,105.999c-12.548,0-25.003,0.838-37.261,2.449c13.062-22.754,18.024-51.774,12.147-77.866l-0.498-2.208l12.206,6.103
			c8.395,4.19,18.417,4.189,26.818-0.003l12.23-6.115l-0.692,3.089c-3.738,16.721-2.954,35.713,2.208,53.478
			c2.43,8.362,5.801,16.287,9.918,23.5C280.872,106.829,268.479,105.999,256,105.999z M266,424.856V129.839
			c33.824,24.03,60,132.515,60,186.16c0,30.099-7.725,58.263-21.753,79.304C293.531,411.376,280.219,421.586,266,424.856z
			 M399.036,380.723c-7.665,5.889-15.864,11.236-24.503,16.036C401.324,369.114,416,333.597,416,295.999
			c0-14.297-2.123-29.479-6.31-45.125c-1.428-5.334-6.907-8.499-12.245-7.075c-5.335,1.428-8.503,6.91-7.075,12.245
			c3.736,13.96,5.63,27.403,5.63,39.955c0,51.538-32.874,96.459-80.174,117.425c1.74-2.236,3.429-4.577,5.062-7.027
			C337.081,382.107,346,350.003,346,315.999c0-50.117-19.578-136.596-48.303-180.266c21.687,10.107,42.331,27.8,59.741,51.781
			c3.245,4.468,9.497,5.462,13.967,2.217c4.469-3.245,5.462-9.498,2.217-13.967c-9.955-13.712-20.933-25.61-32.606-35.512
			C409.891,164.734,456,217.881,456,275.999C456,315.305,435.77,352.497,399.036,380.723z"/>
	</g>
</g>
<g>
</g>
<g>
</g>
<g>
</g>
<g>
</g>
<g>
</g>
<g>
</g>
<g>
</g>
<g>
</g>
<g>
</g>
<g>
</g>
<g>
</g>
<g>
</g>
<g>
</g>
<g>
</g>
<g>
</g>
</svg>
