<?xml version="1.0" encoding="iso-8859-1"?>
<!-- Generator: Adobe Illustrator 19.0.0, SVG Export Plug-In . SVG Version: 6.00 Build 0)  -->
<svg version="1.1" id="Capa_1" xmlns="http://www.w3.org/2000/svg" xmlns:xlink="http://www.w3.org/1999/xlink" x="0px" y="0px"
	 viewBox="0 0 511.999 511.999" style="enable-background:new 0 0 511.999 511.999;" xml:space="preserve">
<g>
	<g>
		<path d="M363.239,188.726c-0.031-0.041-0.061-0.081-0.092-0.12L264.352,61.393c-1.89-2.433-4.795-3.859-7.874-3.866
			c-0.008,0-0.016,0-0.023,0c-3.071,0-5.973,1.412-7.868,3.83l-99.23,126.546c-0.178,0.227-0.345,0.46-0.501,0.699
			c-19.885,24.49-30.821,55.309-30.821,86.923c0,76.075,61.891,137.967,137.966,137.967S393.967,351.6,393.967,275.525
			C393.967,243.994,383.058,213.186,363.239,188.726z M256,393.493c-65.048,0-117.968-52.921-117.968-117.969
			c0-27.362,9.58-54.027,26.975-75.083c0.285-0.345,0.544-0.706,0.776-1.079l90.634-115.583l90.704,116.793
			c0.118,0.165,0.241,0.325,0.37,0.483c17.075,20.951,26.478,47.398,26.478,74.469C373.969,340.572,321.048,393.493,256,393.493z"/>
	</g>
</g>
<g>
	<g>
		<path d="M345.958,284.271c-5.375-1.269-10.76,2.062-12.027,7.437c-5.696,24.163-22.84,44.24-45.856,53.708
			c-5.106,2.101-7.544,7.944-5.442,13.051c1.589,3.863,5.317,6.197,9.251,6.197c1.267,0,2.556-0.242,3.801-0.754
			c28.965-11.915,50.54-37.191,57.713-67.613C354.663,290.922,351.332,285.538,345.958,284.271z"/>
	</g>
</g>
<g>
	<g>
		<path d="M345.991,243.708c-5.521,0-9.999,4.477-9.999,9.999v0.203c0,5.522,4.478,9.999,9.999,9.999
			c5.521,0,9.999-4.477,9.999-9.999v-0.203C355.99,248.185,351.512,243.708,345.991,243.708z"/>
	</g>
</g>
<g>
	<g>
		<path d="M378.706,32.936L364.731,8.729c-2.761-4.782-8.873-6.421-13.659-3.66c-4.086,2.359-5.865,7.163-4.58,11.496
			C298.73-1.473,246.34-4.885,196.24,7.156C136.055,21.622,83.195,57.351,47.401,107.764
			C11.955,157.687-4.488,218.587,1.106,279.244c0.478,5.187,4.836,9.082,9.945,9.081c0.308,0,0.618-0.014,0.93-0.043
			c5.499-0.507,9.546-5.375,9.039-10.875C10.344,161.639,87.681,53.816,200.912,26.601c49.349-11.86,101.105-7.451,147.492,12.284
			l-7.562,4.367c-4.783,2.762-6.421,8.876-3.66,13.659c1.853,3.208,5.213,5,8.669,5c1.696,0,3.416-0.432,4.99-1.341l24.206-13.976
			C379.829,43.834,381.468,37.718,378.706,32.936z"/>
	</g>
</g>
<g>
	<g>
		<path d="M509.718,222.138c-0.735-5.473-5.77-9.317-11.241-8.58c-5.473,0.735-9.314,5.767-8.579,11.241
			c15.471,115.226-57.324,226.166-169.33,258.057c-47.959,13.656-97.711,11.961-144.309-4.833l9.455-5.995
			c4.664-2.958,6.046-9.135,3.09-13.799c-2.957-4.664-9.134-6.046-13.8-3.09L151.4,470.107c-4.661,2.956-6.045,9.128-3.094,13.792
			l14.818,23.411c1.903,3.007,5.144,4.653,8.458,4.653c1.828,0,3.679-0.501,5.338-1.552c3.344-2.116,4.992-5.887,4.578-9.572
			c24.24,7.423,49.15,11.161,74.167,11.161c23.528,0,47.151-3.297,70.38-9.911c59.534-16.95,110.864-54.843,144.535-106.698
			C503.925,344.04,517.825,282.51,509.718,222.138z"/>
	</g>
</g>
<g>
	<g>
		<path d="M135.198,374.995c-0.013-0.017-0.024-0.033-0.037-0.05l-50.949-67.014c-1.887-2.481-4.82-3.94-7.937-3.948
			c-0.008,0-0.016,0-0.023,0c-3.107,0-6.039,1.445-7.932,3.911l-51.174,66.662c-0.119,0.156-0.233,0.313-0.342,0.474
			C5.977,388.731,0.025,405.925,0.025,423.553c0,42.684,34.091,77.41,75.992,77.41s75.992-34.727,75.992-77.41
			C152.009,405.927,146.041,388.695,135.198,374.995z M76.017,480.965c-30.876,0-55.994-25.755-55.994-57.412
			c0-13.355,4.57-26.36,12.869-36.619c0.219-0.271,0.423-0.552,0.61-0.841l42.712-55.639l42.856,56.369
			c0.1,0.139,0.203,0.276,0.311,0.41c8.145,10.209,12.632,23.108,12.632,36.32C132.011,455.21,106.893,480.965,76.017,480.965z"/>
	</g>
</g>
<g>
	<g>
		<path d="M109.014,413.554c-5.521,0-9.999,4.477-9.999,9.999c0,13.072-10.316,23.707-22.998,23.707
			c-5.521,0-9.999,4.477-9.999,9.999s4.478,9.999,9.999,9.999c23.708,0,42.996-19.606,42.996-43.705
			C119.013,418.031,114.536,413.554,109.014,413.554z"/>
	</g>
</g>
<g>
	<g>
		<path d="M495.163,71.011c-0.013-0.017-0.024-0.033-0.037-0.05L444.177,3.948c-1.887-2.481-4.821-3.94-7.937-3.948
			c-0.008,0-0.016,0-0.023,0c-3.107,0-6.038,1.445-7.932,3.911l-51.174,66.662c-0.118,0.153-0.23,0.31-0.339,0.469
			c-10.829,13.701-16.782,30.897-16.782,48.527c0,42.684,34.091,77.41,75.992,77.41c41.902,0,75.992-34.727,75.992-77.41
			C511.974,101.943,506.005,84.711,495.163,71.011z M435.982,176.981c-30.876,0-55.994-25.755-55.994-57.412
			c0-13.355,4.571-26.359,12.868-36.619c0.218-0.27,0.42-0.548,0.606-0.835l42.717-55.645l42.856,56.369
			c0.1,0.139,0.203,0.276,0.311,0.41c8.145,10.209,12.632,23.108,12.632,36.32C491.976,151.227,466.857,176.981,435.982,176.981z"/>
	</g>
</g>
<g>
	<g>
		<path d="M468.978,109.571c-5.521,0-9.999,4.477-9.999,9.999c0,13.072-10.316,23.707-22.998,23.707
			c-5.521,0-9.999,4.477-9.999,9.999c0,5.522,4.478,9.999,9.999,9.999c23.708,0,42.996-19.606,42.996-43.705
			C478.977,114.047,474.5,109.571,468.978,109.571z"/>
	</g>
</g>
<g>
</g>
<g>
</g>
<g>
</g>
<g>
</g>
<g>
</g>
<g>
</g>
<g>
</g>
<g>
</g>
<g>
</g>
<g>
</g>
<g>
</g>
<g>
</g>
<g>
</g>
<g>
</g>
<g>
</g>
</svg>
