<svg height="512pt" viewBox="0 -22 512 512" width="512pt" xmlns="http://www.w3.org/2000/svg"><path d="m429.511719 87.621094c3.078125-1.121094 6.082031-2.351563 8.996093-3.707032 42.839844-19.980468 63.78125-63.96875 64.652344-65.832031 1.253906-2.679687 1.253906-5.777343.003906-8.460937-1.253906-2.679688-3.625-4.671875-6.484374-5.433594-1.988282-.53125-49.144532-12.757812-91.984376 7.21875-22.027343 10.269531-38.109374 26.484375-48.65625 40.070312-5.550781-20.691406-14.210937-36.324218-15.09375-38.289062-2.46875-4.941406-8.476562-6.941406-13.417968-4.472656s-6.941406 8.476562-4.472656 13.414062c1.269531 2.953125 11.523437 20.332032 16.296874 46.039063-55.488281 4.382812-104.910156 37.472656-130.109374 87.226562-15.839844-5.128906-32.359376-7.734375-49.242188-7.734375-12.910156 0-25.753906 1.542969-38.179688 4.585938-5.363281 1.3125-8.644531 6.726562-7.332031 12.089844 1.3125 5.363281 6.726563 8.644531 12.089844 7.335937 10.871094-2.664063 22.113281-4.011719 33.421875-4.011719 75.890625 0 140 60.710938 140 140 0 77.378906-62.71875 140-140 140-77.195312 0-140-62.804687-140-140 0-37.902344 14.902344-73.394531 41.960938-99.941406 3.941406-3.867188 4.003906-10.199219.136718-14.140625-3.867187-3.941406-10.199218-4.003906-14.144531-.136719-30.921875 30.339844-47.953125 70.902344-47.953125 114.21875 0 88.222656 71.777344 160 160 160 60.578125 0 115.617188-34.148437 142.753906-87.730468 15.847656 5.125 32.367188 7.730468 49.246094 7.730468 88.222656 0 160-71.777344 160-160 0-60.835937-33.925781-113.195312-82.488281-140.039062zm-16.367188-58.089844c23.738281-11.066406 49.941407-10.234375 65.238281-8.332031-8.335937 12.921875-24.488281 33.46875-48.328124 44.585937-9.488282 4.421875-20.207032 7.3125-31.867188 8.648438-9.730469-2.925782-19.710938-4.910156-29.832031-5.941406 8.738281-12.234376 23.695312-29.125 44.789062-38.960938zm-61.144531 338.128906c-14.136719 0-27.980469-2.082031-41.289062-6.183594 6.160156-17.222656 9.289062-35.277343 9.289062-53.816406 0-64.1875-37.761719-119.445312-92.085938-144.890625 23.847657-45.566406 71.101563-74.726562 123.039063-75.101562.0625 0 .125 0 .191406-.003907.28125-.007812.574219-.003906.855469-.003906 76.605469 0 140 61.492188 140 140 0 77.195313-62.804688 140-140 140zm0 0"/><path d="m160 427.660156c65.464844 0 120-53.105468 120-120 0-66.136718-53.734375-120-120-120-66.4375 0-120 53.925782-120 120 0 65.566406 53.171875 120 120 120zm-77.394531-183.253906 50.316406 50.316406c-.460937.957032-.867187 1.9375-1.21875 2.9375h-71.210937c1.945312-19.597656 9.582031-37.992187 22.113281-53.253906zm176.902343 53.253906h-71.210937c-.355469-1-.761719-1.980468-1.21875-2.9375l50.316406-50.316406c12.53125 15.261719 20.167969 33.65625 22.113281 53.253906zm-22.113281 73.25-50.316406-50.324218c.460937-.957032.867187-1.9375 1.21875-2.9375h71.210937c-1.945312 19.597656-9.582031 38.003906-22.113281 53.261718zm-67.394531-63.25c0 5.519532-4.480469 10-10 10-5.523438 0-10-4.480468-10-10 0-5.523437 4.480469-10 10-10 5.523438 0 10 4.476563 10 10zm-22.9375 27.078125c.957031.457031 1.9375.867188 2.9375 1.21875v71.207031c-19.59375-1.941406-37.992188-9.582031-53.253906-22.109374zm22.9375 1.21875c1-.355469 1.980469-.761719 2.9375-1.21875l50.316406 50.316407c-15.261718 12.53125-33.660156 20.167968-53.253906 22.109374zm2.9375-55.378906c-.957031-.457031-1.9375-.863281-2.9375-1.214844v-71.210937c19.59375 1.945312 37.992188 9.582031 53.253906 22.113281zm-22.9375-1.214844c-1 .351563-1.980469.757813-2.9375 1.214844l-50.316406-50.3125c15.261718-12.53125 33.660156-20.167969 53.253906-22.113281zm-18.296875 38.296875c.355469 1 .761719 1.980469 1.21875 2.933594l-50.316406 50.316406c-12.53125-15.257812-20.167969-33.65625-22.109375-53.25zm0 0"/><path d="m87 166.660156c-5.519531 0-10 4.480469-10 10 0 5.519532 4.480469 10 10 10s10-4.480468 10-10c0-5.519531-4.480469-10-10-10zm0 0"/></svg>