<svg height="512pt" viewBox="0 0 511 512" width="512pt" xmlns="http://www.w3.org/2000/svg"><g fill-rule="evenodd"><path d="m412.539062 292.179688v-230.226563c0-34.160156-27.792968-61.953125-61.953124-61.953125-34.164063 0-61.957032 27.792969-61.957032 61.953125v230.226563c-22.09375 13.554687-39.253906 34.035156-48.65625 58.238281-2 5.148437.550782 10.945312 5.699219 12.945312 5.144531 1.996094 10.941406-.554687 12.941406-5.703125 8.425781-21.679687 24.335938-39.773437 44.804688-50.941406 3.214843-1.75 5.210937-5.117188 5.210937-8.777344v-235.988281c0-23.132813 18.820313-41.953125 41.957032-41.953125 23.132812 0 41.953124 18.820312 41.953124 41.953125v235.988281c0 3.660156 2 7.027344 5.210938 8.777344 31.746094 17.320312 51.46875 50.523438 51.46875 86.648438 0 54.386718-44.25 98.632812-98.636719 98.632812-41.015625 0-77.117187-24.699219-91.96875-62.929688-2-5.148437-7.792969-7.699218-12.941406-5.699218s-7.703125 7.792968-5.703125 12.941406c8.699219 22.386719 23.773438 41.390625 43.597656 54.953125 19.824219 13.5625 43 20.734375 67.019532 20.734375 65.414062 0 118.632812-53.21875 118.632812-118.632812 0-41.433594-21.570312-79.671876-56.679688-101.1875zm0 0"/><path d="m350.585938 87.378906c-5.523438 0-10 4.476563-10 10v227.679688c-33.347657 4.863281-59.039063 33.636718-59.039063 68.308594 0 38.066406 30.96875 69.039062 69.039063 69.039062 38.066406 0 69.039062-30.972656 69.039062-69.039062 0-34.671876-25.695312-63.445313-59.039062-68.308594v-227.679688c0-5.523437-4.476563-10-10-10zm49.039062 305.988282c0 27.039062-22 49.039062-49.039062 49.039062-27.042969 0-49.039063-22-49.039063-49.039062 0-27.042969 21.996094-49.042969 49.039063-49.042969 27.039062 0 49.039062 22 49.039062 49.042969zm0 0"/><path d="m450.289062 114.988281h51.953126c5.523437 0 10-4.476562 10-10 0-5.523437-4.476563-10-10-10h-51.953126c-5.523437 0-10 4.476563-10 10 0 5.523438 4.476563 10 10 10zm0 0"/><path d="m502.242188 141.175781h-51.953126c-5.523437 0-10 4.476563-10 10 0 5.519531 4.476563 10 10 10h51.953126c5.523437 0 10-4.480469 10-10 0-5.523437-4.476563-10-10-10zm0 0"/><path d="m502.242188 187.359375h-51.953126c-5.523437 0-10 4.476563-10 10s4.476563 10 10 10h51.953126c5.523437 0 10-4.476563 10-10s-4.476563-10-10-10zm0 0"/><path d="m502.242188 233.542969h-51.953126c-5.523437 0-10 4.480469-10 10 0 5.523437 4.476563 10 10 10h51.953126c5.523437 0 10-4.476563 10-10 0-5.523438-4.476563-10-10-10zm0 0"/><path d="m136.515625 99.144531c-24.058594 0-46.839844 11.664063-60.941406 31.195313-3.230469 4.476562-2.222657 10.726562 2.253906 13.960937 4.480469 3.230469 10.730469 2.222657 13.960937-2.253906 10.355469-14.339844 27.074219-22.902344 44.726563-22.902344 30.390625 0 55.117187 24.726563 55.117187 55.121094s-24.726562 55.121094-55.117187 55.121094c-17.65625 0-34.375-8.5625-44.726563-22.902344-3.230468-4.476563-9.480468-5.484375-13.960937-2.253906-4.476563 3.234375-5.484375 9.484375-2.253906 13.960937 14.101562 19.535156 36.882812 31.195313 60.941406 31.195313 41.417969 0 75.117187-33.699219 75.117187-75.121094s-33.695312-75.121094-75.117187-75.121094zm0 0"/><path d="m136.515625 81.917969c5.523437 0 10-4.476563 10-10v-23.667969c0-5.519531-4.476563-10-10-10s-10 4.480469-10 10v23.667969c0 5.523437 4.476563 10 10 10zm0 0"/><path d="m57.074219 108.964844c1.953125 1.953125 4.511719 2.929687 7.070312 2.929687 2.558594 0 5.117188-.976562 7.070313-2.929687 3.90625-3.902344 3.90625-10.234375 0-14.140625l-16.734375-16.734375c-3.90625-3.90625-10.238281-3.90625-14.140625 0-3.90625 3.902344-3.90625 10.234375 0 14.140625zm0 0"/><path d="m228.863281 174.265625c0 5.523437 4.476563 10 10 10h23.667969c5.523438 0 10-4.476563 10-10s-4.476562-10-10-10h-23.667969c-5.523437 0-10 4.476563-10 10zm0 0"/><path d="m208.886719 111.894531c2.558593 0 5.117187-.976562 7.070312-2.925781l16.734375-16.738281c3.90625-3.902344 3.90625-10.234375 0-14.140625-3.902344-3.90625-10.234375-3.90625-14.140625 0l-16.734375 16.734375c-3.90625 3.90625-3.90625 10.238281 0 14.144531 1.949219 1.949219 4.511719 2.925781 7.070313 2.925781zm0 0"/><path d="m44.167969 174.265625c0-5.523437-4.476563-10-10-10h-23.667969c-5.523438 0-10 4.476563-10 10s4.476562 10 10 10h23.667969c5.523437 0 10-4.476563 10-10zm0 0"/><path d="m136.515625 266.613281c-5.523437 0-10 4.476563-10 10v23.667969c0 5.523438 4.476563 10 10 10s10-4.476562 10-10v-23.667969c0-5.523437-4.476563-10-10-10zm0 0"/><path d="m232.691406 256.300781-16.734375-16.734375c-3.90625-3.90625-10.238281-3.90625-14.140625 0-3.90625 3.90625-3.90625 10.238282 0 14.144532l16.734375 16.734374c1.953125 1.949219 4.511719 2.925782 7.070313 2.925782s5.117187-.976563 7.070312-2.925782c3.90625-3.90625 3.90625-10.238281 0-14.144531zm0 0"/><path d="m57.074219 239.566406-16.734375 16.734375c-3.90625 3.902344-3.90625 10.234375 0 14.140625 1.949218 1.953125 4.511718 2.929688 7.070312 2.929688s5.117188-.976563 7.070313-2.929688l16.734375-16.734375c3.90625-3.902343 3.90625-10.234375 0-14.140625s-10.234375-3.90625-14.140625 0zm0 0"/><path d="m251.953125 393.367188c0-5.507813-4.492187-10-10-10s-10.003906 4.492187-10.003906 10c0 5.507812 4.496093 10 10.003906 10s10-4.492188 10-10zm0 0"/><path d="m61.394531 174.265625c0 5.507813 4.492188 10 10 10 5.507813 0 10-4.492187 10-10s-4.492187-10-10-10c-5.507812 0-10 4.492187-10 10zm0 0"/></g></svg>