<?xml version="1.0" encoding="iso-8859-1"?>
<!-- Generator: Adobe Illustrator 19.0.0, SVG Export Plug-In . SVG Version: 6.00 Build 0)  -->
<svg version="1.1" id="Capa_1" xmlns="http://www.w3.org/2000/svg" xmlns:xlink="http://www.w3.org/1999/xlink" x="0px" y="0px"
	 viewBox="0 0 512 512" style="enable-background:new 0 0 512 512;" xml:space="preserve">
<g>
	<g>
		<path d="M241.454,390.613l-59.146-12.286c-2.727-0.566-4.705-2.999-4.705-5.783v-6.587c12.398-10.944,20.24-26.937,20.24-44.735
			v-22.865h14.801c5.523,0,10-4.478,10-10c0-5.522-4.477-10-10-10h-16.792v-34.296c0-15.517-12.624-28.14-28.14-28.14h-0.357
			c-7.516,0-14.582,2.927-19.897,8.24c0,0.001-0.001,0.001-0.001,0.001c-2.53,2.53-5.894,3.924-9.472,3.924
			s-6.942-1.394-9.473-3.924c-5.315-5.314-12.381-8.241-19.897-8.241c-15.517,0-28.14,12.623-28.14,28.14v34.296H63.357
			c-5.523,0-10,4.478-10,10c0,5.522,4.477,10,10,10h15.126v22.865c0,17.798,7.841,33.791,20.24,44.735v6.579
			c0,2.786-1.98,5.219-4.709,5.784l-59.441,12.307C14.54,394.774,0,412.634,0,433.091V502c0,5.522,4.477,10,10,10h41.568h172.506
			H266c5.523,0,10-4.478,10-10v-68.928C276,412.628,261.471,394.771,241.454,390.613z M41.568,492H20v-58.909
			c0-11.022,7.834-20.646,18.628-22.881l2.94-0.609V492z M100.474,244.061c0-4.488,3.652-8.14,8.14-8.14
			c2.175,0,4.219,0.847,5.756,2.384c6.308,6.308,14.694,9.781,23.614,9.781s17.306-3.474,23.613-9.78
			c1.539-1.538,3.583-2.385,5.757-2.385h0.357c4.488,0,8.14,3.651,8.14,8.14v34.296h-75.377V244.061z M98.482,321.221v-22.865h0.001
			h79.359v22.865c0,21.88-17.8,39.68-39.68,39.68C116.282,360.901,98.482,343.101,98.482,321.221z M97.939,397.93l0.129-0.027
			c10.323-2.137,18.19-10.372,20.161-20.437c6.238,2.217,12.944,3.436,19.933,3.436c6.988,0,13.695-1.218,19.932-3.435
			c1.934,9.884,9.561,17.991,19.608,20.306v28.339c0,5.645-4.592,10.237-10.237,10.237h-59.289c-5.645,0-10.237-4.593-10.237-10.237
			V397.93z M214.075,492H61.568v-86.54l16.372-3.39v24.041c0,16.673,13.564,30.237,30.237,30.237h59.289
			c16.673,0,30.237-13.564,30.237-30.237v-24.159l16.372,3.401V492z M256,492h-21.926v-82.493l3.313,0.688
			c10.785,2.24,18.613,11.861,18.613,22.877V492z"/>
	</g>
</g>
<g>
	<g>
		<path d="M477.455,174.693l-59.147-12.287c-2.727-0.566-4.705-2.998-4.705-5.782v-6.587c12.398-10.944,20.24-26.937,20.24-44.735
			V82.437h14.801c5.523,0,10-4.478,10-10c0-5.522-4.477-10-10-10h-16.792V28.14c0-15.517-12.624-28.14-28.14-28.14h-0.357
			c-7.517,0-14.583,2.927-19.898,8.242c-5.223,5.222-13.722,5.223-18.943,0.001C359.198,2.928,352.131,0,344.614,0
			c-15.517,0-28.14,12.623-28.14,28.14v34.297h-17.117c-5.523,0-10,4.478-10,10c0,5.522,4.477,10,10,10h15.126v22.865
			c0,17.798,7.841,33.791,20.24,44.735v6.579c0,2.786-1.98,5.218-4.709,5.783l-59.44,12.308C250.54,178.853,236,196.712,236,217.17
			v68.909c0,5.522,4.477,10,10,10h41.568h172.506H502c5.523,0,10-4.478,10-10v-68.927C512,196.708,497.471,178.852,477.455,174.693z
			 M277.568,276.079H256V217.17c0-11.022,7.834-20.645,18.628-22.88l2.94-0.609V276.079z M344.614,20
			c2.174,0,4.218,0.847,5.756,2.385c13.021,13.02,34.207,13.02,47.228,0c1.538-1.538,3.582-2.385,5.756-2.385h0.357
			c4.488,0,8.14,3.651,8.14,8.14v34.297h-75.377V28.14h0C336.474,23.652,340.126,20,344.614,20z M334.482,105.302V82.437h0.001
			h79.359v22.865c0,21.88-17.8,39.68-39.68,39.68S334.482,127.182,334.482,105.302z M333.939,182.01l0.128-0.026
			c10.324-2.138,18.191-10.373,20.162-20.438c6.238,2.217,12.944,3.436,19.933,3.436c6.988,0,13.695-1.218,19.932-3.435
			c1.934,9.884,9.561,17.99,19.608,20.305v28.34c0,5.645-4.592,10.237-10.237,10.237h-59.289c-5.645,0-10.237-4.593-10.237-10.237
			V182.01z M450.075,276.078H297.568V189.54l16.372-3.39v24.041c0,16.673,13.564,30.237,30.237,30.237h59.289
			c16.673,0,30.237-13.564,30.237-30.237v-24.16l16.372,3.401V276.078z M492,276.079h-21.926v-82.492l3.313,0.688
			c10.785,2.24,18.613,11.861,18.613,22.877V276.079z"/>
	</g>
</g>
<g>
	<g>
		<path d="M331.149,459.172c-1.516-5.31-7.049-8.389-12.361-6.867c-0.14,0.04-0.339,0.103-0.477,0.147
			c-5.239,1.747-8.068,7.408-6.323,12.647c1.396,4.19,5.3,6.841,9.487,6.841c1.007,0,2.03-0.153,3.039-0.475
			C329.681,469.855,332.644,464.404,331.149,459.172z"/>
	</g>
</g>
<g>
	<g>
		<path d="M459.827,328.723c-5.109-2.096-10.951,0.344-13.048,5.453c-18.236,44.424-51.681,81.317-94.174,103.884
			c-4.877,2.591-6.732,8.645-4.142,13.522c1.797,3.383,5.26,5.312,8.841,5.312c1.582,0,3.187-0.376,4.682-1.17
			c46.606-24.752,83.291-65.221,103.295-113.952C467.377,336.662,464.936,330.82,459.827,328.723z"/>
	</g>
</g>
<g>
	<g>
		<path d="M256.127,30H256c-5.523,0-10,4.478-10,10s4.477,10,10,10h0.127c5.523,0,10-4.478,10-10S261.65,30,256.127,30z"/>
	</g>
</g>
<g>
	<g>
		<path d="M230.844,41.231c-0.893-5.45-6.032-9.138-11.484-8.254c-52.293,8.559-100.189,35.545-134.866,75.986
			C49.435,149.85,30.127,202.068,30.127,256c0,5.522,4.477,10,10,10s10-4.478,10-10c0-101.437,72.532-186.93,172.464-203.285
			C228.041,51.822,231.737,46.681,230.844,41.231z"/>
	</g>
</g>
<g>
</g>
<g>
</g>
<g>
</g>
<g>
</g>
<g>
</g>
<g>
</g>
<g>
</g>
<g>
</g>
<g>
</g>
<g>
</g>
<g>
</g>
<g>
</g>
<g>
</g>
<g>
</g>
<g>
</g>
</svg>
