<?xml version="1.0" encoding="iso-8859-1"?>
<!-- Generator: Adobe Illustrator 19.0.0, SVG Export Plug-In . SVG Version: 6.00 Build 0)  -->
<svg version="1.1" id="Capa_1" xmlns="http://www.w3.org/2000/svg" xmlns:xlink="http://www.w3.org/1999/xlink" x="0px" y="0px"
	 viewBox="0 0 512 512" style="enable-background:new 0 0 512 512;" xml:space="preserve">
<g>
	<g>
		<path d="M509.027,322.445c-5.558-12.631-17.581-20.478-31.382-20.478c-1.29,0-2.571,0.077-3.84,0.22
			c-0.388-3.422-1.288-6.837-2.744-10.148c-5.558-12.632-17.581-20.478-31.382-20.478c-9.848,0-19.227,4.239-25.733,11.631
			l-57.381,65.188c-13.479,15.313-30.636,27.364-49.614,34.849c-5.138,2.026-7.66,7.834-5.634,12.971
			c1.552,3.934,5.318,6.334,9.306,6.334c1.221,0,2.462-0.226,3.666-0.7c21.914-8.644,41.724-22.558,57.287-40.239l57.381-65.188
			c2.712-3.08,6.62-4.847,10.722-4.847c5.837,0,10.726,3.189,13.074,8.532c2.351,5.343,1.399,11.102-2.545,15.403
			c-0.18,0.197-55.679,63.291-55.679,63.291c-24.539,27.877-59.912,43.865-97.05,43.865H192.39c-8.186,0-14.845-6.66-14.845-14.845
			c0-8.186,6.66-14.844,14.845-14.844h66.151c19.85,0,35.998-16.148,35.998-35.998s-16.148-35.998-35.998-35.998H119.638
			c-34.032,0-66.586,14.527-89.314,39.859L2.557,391.773c-3.688,4.11-3.346,10.432,0.766,14.12
			c4.108,3.687,10.433,3.346,14.12-0.766l27.768-30.948c18.939-21.109,46.068-33.216,74.429-33.216h138.902
			c8.822,0,15.999,7.178,15.999,15.999s-7.178,15.999-15.999,15.999h-66.151c-19.213,0-34.844,15.631-34.844,34.844
			s15.631,34.843,34.844,34.843h105.092c42.883,0,83.727-18.461,112.061-50.65l57.382-65.189c2.71-3.079,6.618-4.846,10.721-4.846
			c5.837,0,10.726,3.189,13.074,8.532c2.351,5.343,1.399,11.101-2.545,15.403l-80.476,87.803
			c-33.95,37.041-82.24,58.285-132.488,58.285H10c-5.522,0-10,4.478-10,10c0,5.522,4.478,10,10,10h265.212
			c55.839,0,109.503-23.608,147.231-64.771l80.476-87.803C512.243,349.241,514.584,335.075,509.027,322.445z"/>
	</g>
</g>
<g>
	<g>
		<path d="M349.252,112.996c-0.021-0.027-0.043-0.056-0.064-0.084L264.268,3.868c-1.89-2.426-4.791-3.849-7.866-3.855
			c0,0-0.016,0-0.023,0c-3.066,0-5.965,1.407-7.861,3.819l-85.294,108.473c-0.164,0.209-0.319,0.424-0.465,0.643
			c-17.268,21.237-26.766,47.954-26.766,75.357c0,65.999,53.829,119.692,119.994,119.692s119.994-53.693,119.994-119.692
			C375.982,160.948,366.492,134.217,349.252,112.996z M255.988,287.998c-55.138,0-99.995-44.723-99.995-99.693
			c0-23.118,8.118-45.648,22.857-63.439c0.271-0.327,0.519-0.668,0.741-1.02l76.75-97.608l76.861,98.699
			c0.11,0.152,0.226,0.302,0.346,0.448c14.467,17.701,22.435,40.047,22.435,62.92C355.983,243.276,311.126,287.998,255.988,287.998z
			"/>
	</g>
</g>
<g>
	<g>
		<path d="M448.972,167.378h-33.563c-5.523,0-10,4.478-10,10s4.478,10,10,10h33.563c5.522,0,10-4.478,10-10
			S454.494,167.378,448.972,167.378z"/>
	</g>
</g>
<g>
	<g>
		<path d="M414.724,219.107l-12.096-12.109c-3.903-3.907-10.234-3.911-14.142-0.008s-3.91,10.234-0.008,14.142l12.097,12.109
			c1.953,1.955,4.514,2.933,7.075,2.933c2.558,0,5.115-0.975,7.067-2.925C418.622,229.346,418.625,223.014,414.724,219.107z"/>
	</g>
</g>
<g>
	<g>
		<path d="M414.588,121.368c-3.907-3.905-10.24-3.901-14.141,0.007l-12.117,12.129c-3.903,3.907-3.9,10.237,0.007,14.141
			c1.953,1.951,4.51,2.926,7.068,2.926c2.561,0,5.122-0.978,7.074-2.933l12.117-12.129
			C418.497,131.603,418.494,125.272,414.588,121.368z"/>
	</g>
</g>
<g>
	<g>
		<path d="M96.567,167.218H63.004c-5.522,0-10,4.478-10,10c0,5.522,4.478,10,10,10h33.563c5.522,0,10-4.478,10-10
			C106.567,171.696,102.089,167.218,96.567,167.218z"/>
	</g>
</g>
<g>
	<g>
		<path d="M123.499,133.464l-10.471-10.483c-3.902-3.906-10.234-3.91-14.142-0.008c-3.907,3.903-3.911,10.234-0.008,14.142
			l10.472,10.483c1.953,1.955,4.514,2.933,7.075,2.933c2.557,0,5.115-0.976,7.067-2.925
			C127.398,143.703,127.402,137.371,123.499,133.464z"/>
	</g>
</g>
<g>
	<g>
		<path d="M123.639,206.949c-3.906-3.904-10.239-3.901-14.14,0.007l-12.604,12.617c-3.903,3.907-3.9,10.237,0.007,14.141
			c1.952,1.951,4.51,2.926,7.067,2.926c2.561,0,5.122-0.978,7.074-2.933l12.604-12.617
			C127.549,217.184,127.546,210.853,123.639,206.949z"/>
	</g>
</g>
<g>
	<g>
		<path d="M325.986,178.305c-5.522,0-10,4.478-10,10l-0.002,0.476c-0.031,5.523,4.421,10.025,9.944,10.055c0.02,0,0.038,0,0.057,0
			c5.497,0,9.969-4.44,9.999-9.944l0.002-0.587C335.985,182.783,331.508,178.305,325.986,178.305z"/>
	</g>
</g>
<g>
	<g>
		<path d="M320.09,218.11c-4.619-3.03-10.816-1.741-13.846,2.876c-11.143,16.984-29.93,27.125-50.257,27.125
			c-5.522,0-10,4.478-10,10c0.001,5.523,4.479,10,10.001,10c27.089,0,52.128-13.515,66.978-36.153
			C325.995,227.338,324.708,221.139,320.09,218.11z"/>
	</g>
</g>
<g>
</g>
<g>
</g>
<g>
</g>
<g>
</g>
<g>
</g>
<g>
</g>
<g>
</g>
<g>
</g>
<g>
</g>
<g>
</g>
<g>
</g>
<g>
</g>
<g>
</g>
<g>
</g>
<g>
</g>
</svg>
