<svg height="512pt" viewBox="0 -26 512 512" width="512pt" xmlns="http://www.w3.org/2000/svg"><path d="m216 220c5.519531 0 10-4.480469 10-10s-4.480469-10-10-10-10 4.480469-10 10 4.480469 10 10 10zm0 0"/><path d="m482 60h-10v-50c0-5.523438-4.476562-10-10-10h-166c-16.339844 0-30.871094 7.878906-40 20.035156-9.128906-12.15625-23.660156-20.035156-40-20.035156h-166c-5.523438 0-10 4.476562-10 10v50h-10c-16.542969 0-30 13.457031-30 30v360c0 4.304688 2.753906 8.125 6.839844 9.488281 4.132812 1.375 8.605468-.085937 11.160156-3.488281l57-76h407c16.542969 0 30-13.457031 30-30v-260c0-16.542969-13.457031-30-30-30zm-186 240c-11.246094 0-21.636719 3.734375-30 10.027344v-.027344c0-16.542969 13.457031-30 30-30h156v20zm-236-20h156c16.539062 0 30 13.457031 30 29.996094-8.433594-6.320313-18.867188-9.996094-30-9.996094h-156zm236-260h156v240h-156c-11.246094 0-21.636719 3.734375-30 10.027344v-220.027344c0-16.542969 13.457031-30 30-30zm-236 0h156c16.542969 0 30 13.457031 30 30v220.027344c-8.363281-6.292969-18.753906-10.027344-30-10.027344h-156zm432 330c0 5.515625-4.484375 10-10 10h-412c-3.148438 0-6.109375 1.480469-8 4l-42 56v-330c0-5.515625 4.484375-10 10-10h10v230c0 5.523438 4.476562 10 10 10h166c13.699219 0 25.648438 9.253906 29.054688 22.496094.628906 2.445312.945312 4.96875.945312 7.503906 0 5.523438 4.476562 10 10 10s10-4.476562 10-10c0-16.542969 13.457031-30 30-30h166c5.523438 0 10-4.476562 10-10v-230h10c5.515625 0 10 4.484375 10 10zm0 0"/><path d="m216 180c5.523438 0 10-4.476562 10-10v-100c0-5.523438-4.476562-10-10-10s-10 4.476562-10 10v100c0 5.523438 4.476562 10 10 10zm0 0"/></svg>