<svg height="512pt" viewBox="0 0 512.0001 512" width="512pt" xmlns="http://www.w3.org/2000/svg"><path d="m445.355469 289.207031h-76.566407v-35c0-5.523437-4.476562-10-10-10h-76.5625v-35c0-5.523437-4.480468-10-10-10h-76.605468v-54.015625h17.730468c3.605469 0 6.933594-1.945312 8.707032-5.085937 1.773437-3.140625 1.71875-6.992188-.144532-10.082031l-68.457031-113.457032c-1.808593-3-5.058593-4.832031-8.5625-4.832031-3.503906 0-6.75 1.832031-8.5625 4.832031l-68.453125 113.457032c-1.863281 3.085937-1.917968 6.941406-.144531 10.082031s5.097656 5.082031 8.707031 5.082031h17.726563v289.425781c0 5.523438 4.480469 10 10 10h341.1875c5.523437 0 10-4.476562 10-10v-135.40625c0-5.523437-4.476563-10-10-10zm-341.183594-164.015625h-10.019531l50.742187-84.097656 50.738281 84.097656h-38.054687c-5.523437 0-10 4.476563-10 10 0 5.519532 4.476563 10 10 10h18.039063v279.421875h-61.449219v-289.421875c.003906-5.523437-4.476563-10-9.996094-10zm91.445313 94.015625h66.605468v205.40625h-66.605468zm86.605468 45h66.566406v160.40625h-66.566406zm153.132813 160.40625h-66.566407v-115.40625h66.566407zm0 0"/><path d="m267.992188 468.773438h-224.765626v-428.902344l5.246094 6.953125c1.964844 2.605469 4.960938 3.980469 7.992188 3.980469 2.09375 0 4.207031-.65625 6.011718-2.015626 4.410157-3.324218 5.289063-9.597656 1.964844-14.007812l-23.226562-30.800781c-1.890625-2.507813-4.847656-3.980469-7.988282-3.980469-3.136718 0-6.09375 1.472656-7.984374 3.980469l-23.226563 30.804687c-3.324219 4.410156-2.445313 10.679688 1.964844 14.003906 4.410156 3.328126 10.679687 2.445313 14.003906-1.964843l5.242187-6.953125v428.902344h-11.601562c-5.523438 0-10 4.476562-10 10 0 5.523437 4.476562 10 10 10h11.601562v11.601562c0 5.523438 4.480469 10 10 10 5.523438 0 10-4.476562 10-10v-11.601562h224.765626c5.519531 0 10-4.476563 10-10 0-5.523438-4.480469-10-10-10zm0 0"/><path d="m316.289062 474.949219c-.25-.609375-.558593-1.191407-.917968-1.730469-.359375-.550781-.78125-1.058594-1.242188-1.519531-.457031-.460938-.96875-.878907-1.519531-1.238281-.539063-.363282-1.117187-.671876-1.730469-.921876-.597656-.25-1.226562-.441406-1.867187-.570312-1.292969-.257812-2.621094-.257812-3.910157 0-.632812.128906-1.261718.320312-1.871093.570312-.601563.25-1.179688.558594-1.71875.921876-.550781.359374-1.0625.777343-1.519531 1.238281-.460938.460937-.882813.96875-1.25 1.519531-.363282.539062-.671876 1.121094-.921876 1.730469-.25.601562-.441406 1.230469-.570312 1.871093-.128906.640626-.191406 1.296876-.191406 1.949219 0 .648438.0625 1.308594.191406 1.960938.128906.628906.320312 1.257812.570312 1.867187.25.601563.558594 1.179688.921876 1.722656.367187.546876.789062 1.058594 1.25 1.519532.457031.460937.96875.878906 1.519531 1.25.539062.359375 1.117187.667968 1.71875.917968.609375.25 1.238281.441407 1.871093.570313.648438.132813 1.308594.191406 1.957032.191406.652344 0 1.3125-.058593 1.953125-.191406.640625-.128906 1.269531-.320313 1.867187-.570313.613282-.25 1.191406-.558593 1.730469-.917968.550781-.371094 1.0625-.789063 1.519531-1.25.460938-.460938.882813-.972656 1.242188-1.519532.359375-.542968.667968-1.121093.917968-1.722656.25-.609375.441407-1.238281.570313-1.867187.132813-.652344.199219-1.3125.199219-1.960938 0-.652343-.066406-1.308593-.199219-1.949219-.128906-.640624-.320313-1.269531-.570313-1.871093zm0 0"/><path d="m508.019531 470.789062-30.804687-23.230468c-4.40625-3.324219-10.679688-2.445313-14.003906 1.964844-3.324219 4.410156-2.445313 10.679687 1.964843 14.003906l6.953125 5.242187h-126.496094c-5.519531 0-10 4.480469-10 10 0 5.523438 4.480469 10 10 10h126.496094l-6.953125 5.246094c-4.410156 3.324219-5.289062 9.59375-1.964843 14.003906 1.964843 2.605469 4.960937 3.980469 7.992187 3.980469 2.09375 0 4.210937-.65625 6.011719-2.015625l30.804687-23.230469c2.507813-1.890625 3.980469-4.84375 3.980469-7.984375 0-3.136719-1.472656-6.09375-3.980469-7.980469zm0 0"/><path d="m299.574219 169.851562c44.226562 45.84375 96.929687 76.808594 140.699219 83.273438l-3.292969 1.917969c-4.777344 2.773437-6.398438 8.894531-3.621094 13.667969 1.855469 3.195312 5.207031 4.980468 8.65625 4.976562 1.703125 0 3.433594-.4375 5.015625-1.355469l30.492188-17.726562c2.714843-1.574219 4.53125-4.335938 4.902343-7.453125.375-3.113282-.734375-6.226563-2.996093-8.402344l-25.433594-24.441406c-3.980469-3.824219-10.3125-3.699219-14.140625.28125-3.824219 3.980468-3.699219 10.3125.28125 14.140625l5.109375 4.910156c-39.738282-4.949219-89.183594-34.035156-131.277344-77.671875-14.238281-14.757812-26.90625-30.429688-37.652344-46.574219-3.0625-4.597656-9.273437-5.839843-13.867187-2.78125-4.597657 3.0625-5.84375 9.269531-2.78125 13.867188 11.410156 17.140625 24.835937 33.75 39.90625 49.371093zm0 0"/></svg>