<?xml version="1.0" encoding="iso-8859-1"?>
<!-- Generator: Adobe Illustrator 19.0.0, SVG Export Plug-In . SVG Version: 6.00 Build 0)  -->
<svg xmlns="http://www.w3.org/2000/svg" xmlns:xlink="http://www.w3.org/1999/xlink" version="1.1" id="Layer_1" x="0px" y="0px" viewBox="0 0 512 512" style="enable-background:new 0 0 512 512;" xml:space="preserve" width="512" height="512">
<g>
	<path d="M462,0H50C22.43,0,0,22.43,0,50v262c0,27.57,22.43,50,50,50h116.141c0.376,6.832,1.516,13.463,3.338,19.81l-56.551,56.551   c-2.451,2.451-3.458,5.996-2.661,9.369s3.282,6.094,6.57,7.189l37.683,12.561l12.561,37.683c1.096,3.288,3.816,5.774,7.189,6.57   c0.762,0.18,1.532,0.268,2.297,0.268c2.621,0,5.174-1.032,7.071-2.929l62.602-62.602c3.206,0.347,6.461,0.531,9.758,0.531   c2.806,0,5.581-0.136,8.322-0.388l62.46,62.459c1.897,1.897,4.45,2.929,7.071,2.929c0.765,0,1.536-0.088,2.297-0.268   c3.374-0.796,6.094-3.282,7.189-6.57l12.561-37.683l37.683-12.561c3.288-1.096,5.774-3.816,6.57-7.189s-0.21-6.918-2.661-9.369   l-55.335-55.335c2.032-6.714,3.301-13.756,3.701-21.026H462c27.57,0,50-22.43,50-50V50C512,22.43,489.57,0,462,0z M180.938,483.488   l-9.025-27.076c-0.995-2.986-3.338-5.33-6.325-6.325l-27.077-9.025l39.382-39.382c10.206,17.772,26.303,31.746,45.606,39.247   L180.938,483.488z M186,357c0-38.598,31.402-70,70-70s70,31.402,70,70s-31.402,70-70,70S186,395.598,186,357z M371.909,441.062   l-27.077,9.025c-2.986,0.995-5.33,3.338-6.325,6.325l-9.025,27.076l-42.127-42.127c19.446-7.251,35.729-21.044,46.164-38.688   L371.909,441.062z M492,312c0,16.542-13.458,30-30,30H344.743c-7.163-42.511-44.227-75-88.743-75s-81.58,32.489-88.743,75H50   c-16.542,0-30-13.458-30-30V50c0-16.542,13.458-30,30-30h412c16.542,0,30,13.458,30,30V312z"/>
	<path d="M196,90h120c5.523,0,10-4.477,10-10s-4.477-10-10-10H196c-5.523,0-10,4.477-10,10S190.477,90,196,90z"/>
	<path d="M118,130h120c5.523,0,10-4.477,10-10s-4.477-10-10-10H118c-5.523,0-10,4.477-10,10S112.477,130,118,130z"/>
	<path d="M268,120c0,5.523,4.477,10,10,10h116c5.523,0,10-4.477,10-10s-4.477-10-10-10H278C272.477,110,268,114.477,268,120z"/>
	<path d="M446,180H66c-5.523,0-10,4.477-10,10s4.477,10,10,10h380c5.523,0,10-4.477,10-10S451.523,180,446,180z"/>
	<path d="M256,220c-5.51,0-10,4.49-10,10c0,5.51,4.49,10,10,10c5.51,0,10-4.49,10-10C266,224.49,261.51,220,256,220z"/>
	<path d="M216,220H66c-5.51,0-10,4.49-10,10c0,5.51,4.49,10,10,10h150c5.51,0,10-4.49,10-10C226,224.49,221.51,220,216,220z"/>
	<path d="M446,220H296c-5.51,0-10,4.49-10,10c0,5.51,4.49,10,10,10h150c5.51,0,10-4.49,10-10C456,224.49,451.51,220,446,220z"/>
	<path d="M444,260h-96c-5.523,0-10,4.477-10,10s4.477,10,10,10h96c5.523,0,10-4.477,10-10S449.523,260,444,260z"/>
	<path d="M256,307c-27.57,0-50,22.43-50,50s22.43,50,50,50s50-22.43,50-50S283.57,307,256,307z M256,387c-16.542,0-30-13.458-30-30   s13.458-30,30-30s30,13.458,30,30S272.542,387,256,387z"/>
</g>















</svg>
