<svg height="512pt" viewBox="-52 0 511 512" width="512pt" xmlns="http://www.w3.org/2000/svg"><path d="m404.425781 265.257812c-4.683593-10.753906-13.722656-19.125-24.800781-22.96875l-130.664062-45.339843c-2.289063-8.050781-6.738282-15.203125-12.6875-20.78125l11.214843-130.445313c1.003907-11.722656-2.976562-23.414062-10.933593-32.082031-7.953126-8.667969-19.265626-13.640625-31.027344-13.640625-11.726563 0-23.011719 4.945312-30.960938 13.566406-7.949218 8.621094-11.964844 20.269532-11.015625 31.957032l10.589844 130.457031c-6.148437 5.703125-10.722656 13.074219-13 21.386719l-132.339844 45.921874c-11.082031 3.84375-20.121093 12.214844-24.804687 22.96875-4.683594 10.75-4.660156 23.070313.066406 33.800782 4.746094 10.765625 13.855469 19.113281 24.992188 22.894531 4.394531 1.492187 8.96875 2.230469 13.53125 2.230469 7.007812 0 13.984374-1.738282 20.226562-5.15625l114.886719-62.71875v94.230468c0 5.523438 4.476562 10 10 10 5.523437 0 10-4.476562 10-10v-97.152343c2.414062.398437 4.886719.613281 7.410156.613281s4.996094-.214844 7.410156-.613281v237.613281h-14.820312v-60.460938c0-5.519531-4.476563-10-10-10-5.523438 0-10 4.480469-10 10v60.460938h-54.296875c-5.519532 0-10 4.476562-10 10s4.480468 10 10 10h156.550781c5.523437 0 10-4.476562 10-10s-4.476563-10-10-10h-47.433594v-234.695312l113.078125 61.71875c6.25 3.421874 13.230469 5.160156 20.242188 5.160156 4.558594 0 9.132812-.738282 13.527344-2.230469 11.136718-3.78125 20.246093-12.128906 24.992187-22.894531 4.726563-10.730469 4.75-23.050782.066406-33.800782zm-220.941406-221.355468c-.507813-6.226563 1.546875-12.1875 5.78125-16.78125 4.238281-4.589844 10.011719-7.121094 16.261719-7.121094 6.269531 0 12.054687 2.542969 16.292968 7.160156 4.238282 4.621094 6.277344 10.605469 5.738282 16.847656l-10.4375 121.421876c-3.828125-1.046876-7.855469-1.617188-12.011719-1.617188-4.070313 0-8.011719.542969-11.765625 1.546875zm-130.261719 258.574218c-5.5 3.011719-11.796875 3.558594-17.734375 1.542969-5.933593-2.019531-10.59375-6.289062-13.121093-12.023437-2.519532-5.71875-2.53125-12.023438-.035157-17.75 2.492188-5.730469 7.121094-10.011719 13.023438-12.0625l125.128906-43.417969c1.5625 7.453125 4.949219 14.238281 9.667969 19.875zm126.292969-93.070312c0-14.113281 11.480469-25.597656 25.59375-25.597656s25.597656 11.480468 25.597656 25.597656c0 14.113281-11.484375 25.59375-25.597656 25.59375s-25.59375-11.480469-25.59375-25.59375zm206.539063 81.585938c-2.527344 5.738281-7.1875 10.007812-13.121094 12.023437-5.9375 2.019531-12.234375 1.472656-17.742188-1.542969l-115.125-62.835937c4.792969-5.722657 8.210938-12.632813 9.738282-20.222657l123.261718 42.769532c5.902344 2.050781 10.53125 6.332031 13.027344 12.058594 2.492188 5.730468 2.480469 12.035156-.039062 17.75zm0 0"/><path d="m178.472656 395.609375c1.570313 3.898437 5.320313 6.269531 9.28125 6.269531 1.242188 0 2.507813-.234375 3.730469-.726562 5.125-2.0625 7.605469-7.890625 5.542969-13.011719l-.105469-.261719c-2.0625-5.121094-7.886719-7.605468-13.011719-5.542968-5.121094 2.0625-7.601562 7.890624-5.542968 13.011718zm0 0"/><path d="m281.691406 111.722656c15.773438 12.519532 28.449219 28.804688 36.660156 47.101563 1.664063 3.707031 5.3125 5.90625 9.128907 5.90625 1.367187 0 2.757812-.28125 4.089843-.878907 5.039063-2.261718 7.289063-8.179687 5.027344-13.214843-9.515625-21.207031-24.203125-40.078125-42.476562-54.578125-4.324219-3.433594-10.613282-2.710938-14.046875 1.617187-3.433594 4.324219-2.710938 10.613281 1.617187 14.046875zm0 0"/><path d="m329.941406 197.015625.105469.261719c1.566406 3.898437 5.316406 6.269531 9.277344 6.269531 1.242187 0 2.507812-.234375 3.730469-.726563 5.125-2.0625 7.605468-7.886718 5.542968-13.011718l-.105468-.261719c-2.0625-5.121094-7.886719-7.605469-13.011719-5.539063-5.121094 2.058594-7.601563 7.886719-5.539063 13.007813zm0 0"/></svg>