<svg id="Capa_1" enable-background="new 0 0 512 512" height="512" viewBox="0 0 512 512" width="512" xmlns="http://www.w3.org/2000/svg"><path d="m255.819 512c-4.175 0-7.995-2.687-9.406-6.615-1.37-3.812-.262-8.238 2.81-10.902 3.303-2.863 8.146-3.257 11.869-.97 3.533 2.17 5.35 6.466 4.506 10.515-.955 4.585-5.088 7.972-9.779 7.972z"/><path d="m502 373.413h-236v-86.536l8.863-3.813 13.412 12.951c1.864 1.8 4.355 2.806 6.946 2.806h28.691c5.522 0 10-4.478 10-10v-78.674h19.374c17.341 0 31.449-14.108 31.449-31.449v-15.341h24.995c5.522 0 10-4.477 10-10 0-5.522-4.478-10-10-10h-103.925c13.752-13.143 22.33-31.655 22.33-52.134 0-7.2-1.062-14.314-3.157-21.146-.404-1.316-.845-2.619-1.323-3.908h4.547c5.522 0 10-4.478 10-10s-4.478-10-10-10h-8.733c-4.731-26.218-27.718-46.169-55.277-46.169h-16.385c-27.559 0-50.545 19.951-55.275 46.168h-8.733c-5.522 0-10 4.478-10 10s4.478 10 10 10h4.54c-.478 1.291-.918 2.595-1.321 3.913-2.093 6.831-3.153 13.943-3.153 21.142 0 20.479 8.578 38.991 22.33 52.134h-103.926c-5.522 0-10 4.478-10 10 0 5.523 4.478 10 10 10h24.995v15.341c0 17.341 14.108 31.449 31.449 31.449h19.374v78.674c0 5.522 4.478 10 10 10h18.914c5.522 0 10-4.478 10-10v-.78c0-2.53 2.059-4.589 4.589-4.589 2.531 0 4.59 2.059 4.59 4.589v.78c0 3.364 1.691 6.503 4.501 8.353 1.657 1.091 3.573 1.647 5.5 1.647 1.339 0 2.685-.269 3.951-.814l5.868-2.525v77.932h-236c-5.523 0-10 4.478-10 10v118.586c0 5.522 4.477 10 10 10h200.794c5.523 0 10-4.478 10-10s-4.477-10-10-10h-190.794v-39.294h472v39.294h-190.794c-5.522 0-10 4.478-10 10s4.478 10 10 10h200.794c5.522 0 10-4.478 10-10v-118.587c0-5.522-4.478-10-10-10zm-254.192-353.413h16.385c16.475 0 30.412 11.074 34.762 26.168l-85.907-.001c4.347-15.094 18.285-26.167 34.76-26.167zm-43.943 71.223c0-5.211.766-10.353 2.278-15.29 1.034-3.386 2.415-6.654 4.122-9.765h91.458c1.708 3.112 3.093 6.385 4.134 9.774 1.511 4.928 2.277 10.069 2.277 15.28 0 28.747-23.388 52.134-52.135 52.134s-52.134-23.386-52.134-52.133zm17.725 172.228c-10.3 0-19.141 6.366-22.796 15.369h-.707v-78.674c0-5.523-4.477-10-10-10h-29.374c-6.314 0-11.449-5.136-11.449-11.449v-15.341h217.473v15.341c0 6.313-5.136 11.449-11.449 11.449h-29.374c-5.522 0-10 4.477-10 10v78.674h-14.651l-15.293-14.767c-2.9-2.799-7.196-3.584-10.898-1.991l-20.852 8.971c-.119.049-.237.099-.354.152l-9.314 4.007c-4.333-7.038-12.109-11.741-20.962-11.741zm-201.59 169.255v-39.293h472v39.293z"/></svg>