<svg id="Capa_1" enable-background="new 0 0 507.954 507.954" height="512" viewBox="0 0 507.954 507.954" width="512" xmlns="http://www.w3.org/2000/svg"><path d="m503.196 293.952c6.946-9.44 6.218-22.554-1.732-31.181l-13.255-14.382c-7.073-7.676-18.183-9.983-27.649-5.949 4.785-16.319 7.326-33.412 7.44-50.457 0-.137-.001-.273-.006-.409.244-27.596-10.35-53.516-29.865-73.031-22.951-22.941-55.816-33.65-87.914-28.647-.387.06-.774.117-1.161.172 3.476-12.723 15.136-22.102 28.946-22.102 5.523 0 10-4.477 10-10s-4.477-10-10-10c-14.781 0-28.083 6.447-37.245 16.676-.745-1.576-1.549-3.135-2.412-4.68-.064-.12-.131-.239-.201-.356l-3.98-7.052c-15.917-28.298-45.975-45.877-78.442-45.877h-49.212c-3.688 0-7.077 2.03-8.817 5.281-1.74 3.252-1.549 7.197.497 10.266l8.25 12.375c16.73 25.095 44.724 40.077 74.885 40.077h42.033c2.152 4.903 3.528 9.987 4.186 15.475-.591-.079-1.182-.163-1.772-.256-32.088-5-64.948 5.707-87.903 28.651-20.478 20.489-31.302 48.821-29.708 77.752.529 16.039 3.391 31.967 8.404 47.098-25.586-15.575-52.189-42.656-69.346-71.315-11.812-19.73-32.298-33.745-54.949-38.083 1.002-12.759 4.005-23.4 6.507-32.265 3.128-11.081 5.83-20.651 3.229-29.642-2.331-8.061-8.51-33.007-8.596-33.352-2.052-7.958-9.225-13.516-17.443-13.516h-15.433c-8.479 0-15.706 5.777-17.572 14.048l-9.353 41.436c-.475 2.101-.258 4.299.618 6.267 3.995 8.98 6.021 18.563 6.021 28.482 0 16.245-5.616 32.001-15.813 44.368-15.756 19.111-24.433 43.174-24.433 67.758 0 14.8 3.031 29.213 9.008 42.841 45.084 102.778 131.419 182.361 236.868 218.342 13.345 4.553 29.346 9.105 55.839 11.555 6.93.641 13.878.958 20.823.958 41.929 0 83.649-11.572 119.364-33.376 17.086-10.431 33.535-22.264 48.889-35.167 9.485-7.971 11.998-21.628 5.974-32.475l-10.42-18.76c-5.716-10.289-17.714-15.435-29.18-12.518-16.204 4.125-32.542 6.816-48.889 8.085 21.707-10.169 41.633-23.996 58.572-40.879 13.119-13.077 25.349-27.287 36.348-42.236zm-221.872-239.275c-22.158 0-42.813-10.398-56.001-28h30.399c22.165 0 42.885 10.532 55.997 28zm-29.315 78.013c18.454-18.445 44.872-27.057 70.679-23.032 1.767.276 3.538.503 5.312.683v8.336c0 5.523 4.477 10 10 10s10-4.477 10-10v-8.337c1.77-.18 3.537-.407 5.3-.682 25.81-4.021 52.238 4.587 70.689 23.03 15.776 15.777 24.3 36.764 24.002 59.096-.002.169 0 .338.006.506-.2 21.319-4.653 42.694-12.911 62.101-44.615 18.265-92.95 23.635-141.245 15.501-17.303-2.914-34.216-7.534-50.455-13.775-9.302-18.62-14.56-39.484-15.241-60.581-.002-.08-.006-.16-.01-.239-1.311-23.296 7.392-46.116 23.874-62.607zm-189.89-87.465h12.292c1.426 5.733 6.269 25.12 8.38 32.424.193.668.274 1.478.262 2.404l-14.52 7.954-13.923-9.519zm399.98 343.138c2.673-.682 5.452.491 6.761 2.849l.458.824-41.518 12.721c-21.66 6.63-44.01 9.99-66.43 9.99-18 0-35.92-2.19-53.24-6.51-16.88-4.21-33.65-9.86-49.87-16.8-23.01-9.85-44.84-22.3-64.9-37.02-1.73-1.26-3.77-1.93-5.91-1.93-3.17 0-6.19 1.52-8.07 4.08-3.26 4.45-2.3 10.72 2.15 13.98 21.29 15.62 44.46 28.83 68.86 39.28 17.19 7.35 34.99 13.35 52.9 17.82 18.9 4.71 38.44 7.1 58.08 7.1 24.41 0 48.73-3.65 72.29-10.87l45.586-13.967.034.061c1.385 2.494.814 5.627-1.356 7.452-14.587 12.259-30.213 23.5-46.444 33.408-37.979 23.187-83.411 33.689-127.923 29.573-23.054-2.132-37.15-5.767-51.222-10.568-100.16-34.176-182.173-109.788-225.012-207.447-4.859-11.079-7.323-22.79-7.323-34.807 0-19.953 7.055-39.497 19.864-55.032 13.144-15.94 20.382-36.216 20.382-57.092 0-3.094-.154-6.164-.461-9.204l2.526 1.727c1.695 1.159 3.667 1.745 5.645 1.745 1.649 0 3.303-.407 4.804-1.229l4.056-2.222c-2.527 9.968-4.892 22.156-4.892 36.456l-.684 31.257v.01c-.06 2.1-.1 4.21-.1 6.28 0 22.27 3.53 44.1 10.48 64.9 7.05 21.07 17.47 40.63 30.99 58.13.76.99 1.55 2 2.41 3.09 1.91 2.41 4.77 3.8 7.85 3.8 2.27 0 4.41-.75 6.2-2.16 4.32-3.42 5.06-9.72 1.64-14.05-.73-.92-1.49-1.9-2.27-2.9-19.682-25.499-31.881-55.368-35.863-87.442 11.553 14.91 22.426 30.719 32.485 47.244 33.27 54.658 82.051 96.9 141.069 122.16 62.492 26.747 130.258 32.041 195.968 15.313zm-115.87-13.328c-24.574-3.542-48.797-10.344-72.229-20.372-55.167-23.611-100.762-63.092-131.854-114.172-15.268-25.083-32.357-48.596-50.829-69.946l.355-16.221c15.87 3.894 30.023 14.063 38.386 28.031 22.438 37.481 58.391 71.376 91.595 86.354 21.846 9.854 45.017 16.887 68.867 20.904 61.323 10.325 122.714.435 177.532-28.606 1.817-.962 4.058-.577 5.451.936l13.255 14.382c1.475 1.601 1.614 4.029.33 5.774-10.397 14.131-21.957 27.563-34.358 39.922-28.314 28.219-66.579 47.123-106.501 53.014zm-183.171-41.518c0 5.523-4.477 10-10 10s-10-4.477-10-10 4.477-10 10-10 10 4.477 10 10z"/></svg>