<?xml version="1.0" encoding="iso-8859-1"?>
<!-- Generator: Adobe Illustrator 19.0.0, SVG Export Plug-In . SVG Version: 6.00 Build 0)  -->
<svg version="1.1" id="Layer_1" xmlns="http://www.w3.org/2000/svg" xmlns:xlink="http://www.w3.org/1999/xlink" x="0px" y="0px"
	 viewBox="0 0 512.001 512.001" style="enable-background:new 0 0 512.001 512.001;" xml:space="preserve">
<g>
	<g>
		<path d="M91.638,201.328c-1.408-5.918-7.345-9.579-13.264-8.167c-8.119,1.931-23.209,8.959-33.064,34.321
			c-3.599,9.263-5.904,19.626-6.852,30.804c-0.513,6.061,3.984,11.39,10.046,11.904c0.316,0.026,0.63,0.041,0.942,0.041
			c5.662,0,10.475-4.34,10.962-10.085c0.769-9.079,2.597-17.384,5.434-24.684c6.443-16.584,14.475-20.12,17.63-20.87
			C89.389,213.184,93.046,207.246,91.638,201.328z"/>
	</g>
</g>
<g>
	<g>
		<path d="M63.621,300.139c-0.671-2.821-1.257-5.694-1.743-8.541c-1.024-5.995-6.713-10.022-12.711-9.003
			c-5.996,1.024-10.027,6.715-9.003,12.711c0.566,3.311,1.248,6.651,2.026,9.929c1.204,5.061,5.721,8.467,10.706,8.467
			c0.844,0,1.701-0.097,2.556-0.301C61.371,311.995,65.027,306.056,63.621,300.139z"/>
	</g>
</g>
<g>
	<g>
		<path d="M504.876,224.258c-13.441-5.078-27.549-7.336-41.534-6.852c9.157-6.369,18.589-12.319,28.261-17.806
			c5.291-3.001,7.147-9.723,4.147-15.014c-3.001-5.291-9.722-7.148-15.014-4.147c-14.791,8.39-29.055,17.794-42.665,28.098
			c3.301-18.703,1.587-38.156-5.301-56.387c-2.15-5.692-8.509-8.559-14.195-6.41c-5.69,2.15-8.56,8.506-6.41,14.196
			c7.335,19.412,7.286,40.563,0.146,59.69c-29.617-18.924-68.231-16.573-92.63,7.823c-10.83,10.83-20.852,21.672-30.111,32.347
			c-1.14-19.649-5.555-38.206-13.078-54.131c-12.373-26.189-32.323-43.738-56.178-49.411c-20.547-4.888-42.188-0.752-62.574,11.958
			c-0.969,0.602-1.968,1.13-2.989,1.585c0.155-10.02,3.181-19.788,8.897-28.289c7.8-11.597,19.662-19.468,33.4-22.158
			c5.969-1.17,9.861-6.955,8.692-12.925c-1.169-5.969-6.955-9.862-12.925-8.692c-7.184,1.406-14.003,3.818-20.309,7.118
			c-1.651-17.309-9.204-33.858-21.819-46.473c-19.058-19.057-47.091-26.577-73.156-19.621c-3.812,1.017-6.789,3.995-7.804,7.806
			c-6.945,26.074,0.574,54.104,19.622,73.152c13.28,13.279,30.928,20.941,49.233,22.019c-3.62,8.513-5.583,17.58-5.834,26.812
			c-0.191-0.111-0.384-0.211-0.573-0.329c-20.403-12.712-42.043-16.847-62.582-11.962c-26.509,6.306-47.693,26.724-59.647,57.49
			c-11.405,29.354-13.062,64.964-4.667,100.274c8.401,35.303,25.915,66.351,49.314,87.426
			c19.304,17.386,40.824,26.474,62.069,26.473c5.698,0,11.377-0.653,16.987-1.976c0.083-0.02,0.194-0.044,0.258-0.061
			c7.226-1.738,14.865-1.739,22.06-0.008l0.204,0.047c10.18,2.422,20.733,2.598,31.282,0.596c-0.774,2.31-1.489,4.562-2.131,6.741
			c-5.743,19.5-5.442,31.057,0.976,37.474c3.378,3.377,8.177,5.061,14.811,5.061c5.971,0,13.427-1.365,22.663-4.085
			c15.867-4.673,35.342-12.915,56.321-23.833c30.347-15.796,90.121-51.156,149.489-110.526
			c24.396-24.396,26.747-63.008,7.826-92.625c19.133-7.14,40.281-7.192,59.682,0.138c5.69,2.149,12.046-0.719,14.196-6.41
			C513.436,232.764,510.567,226.409,504.876,224.258z M118.623,103.227l15.961,15.961c-11.068-1.749-21.522-6.912-29.659-15.049
			c-11.94-11.94-17.492-28.861-15.219-45.407c16.542-2.279,33.461,3.278,45.405,15.222c8.141,8.14,13.306,18.594,15.054,29.662
			L134.2,87.65c-4.301-4.3-11.275-4.3-15.577,0C114.322,91.951,114.322,98.925,118.623,103.227z M197.86,400.222
			c-12.345,5.556-24.92,7.044-36.528,4.285l-0.185-0.043c-10.558-2.54-21.716-2.55-32.309-0.018
			c-0.069,0.015-0.151,0.033-0.198,0.045c-19.255,4.583-40.316-2.315-59.302-19.415c-20.111-18.113-35.248-45.159-42.626-76.155
			c-7.372-31.001-6.033-61.97,3.769-87.199c9.255-23.818,24.956-39.458,44.212-44.038c14.686-3.495,30.536-0.302,45.843,9.233
			c15.063,9.369,33.777,9.368,48.848-0.005c15.29-9.531,31.141-12.724,45.835-9.227c35.644,8.477,57.555,55.399,51.671,109.791
			c-28.529,36.883-47.354,69.524-57.733,89.463C204.982,384.961,201.203,392.758,197.86,400.222z M414.007,321.774
			c-11.268,11.268-23.215,22.228-35.609,32.766l-15.938-15.938c-4.301-4.299-11.275-4.3-15.576,0
			c-4.301,4.301-4.302,11.275,0,15.577l14.399,14.399c-14.605,11.557-29.693,22.448-44.984,32.46l-16.73-16.73
			c-4.301-4.3-11.275-4.3-15.577,0c-4.301,4.301-4.301,11.275,0,15.577l13.166,13.166c-6.665,3.998-13.342,7.832-20.011,11.448
			c-38.845,21.058-64.016,28.293-73.844,29.229c0.635-6.661,4.171-20.378,12.932-40.611c0.116-0.243,0.221-0.489,0.318-0.739
			c2.341-5.37,5.054-11.199,8.168-17.463l12.371,12.371c2.151,2.15,4.969,3.226,7.788,3.226c2.818,0,5.638-1.076,7.788-3.226
			c4.301-4.301,4.301-11.275,0-15.577L235.5,374.539c8.903-15.967,18.908-31.952,29.809-47.635l14.05,14.05
			c2.151,2.15,4.969,3.226,7.788,3.226c2.818,0,5.638-1.076,7.788-3.226c4.301-4.301,4.301-11.275,0-15.577l-16.568-16.568
			c10.996-14.669,22.698-28.945,34.897-42.546l14.783,14.783c2.151,2.15,4.969,3.226,7.788,3.226s5.638-1.076,7.788-3.226
			c4.301-4.301,4.301-11.275,0-15.577l-15.34-15.34c2.312-2.393,4.635-4.767,6.973-7.105c9.353-9.354,21.798-13.969,34.62-13.969
			c14.408,0,29.291,5.831,40.778,17.319c0.612,0.612,1.203,1.237,1.783,1.868c0.029,0.029,0.055,0.058,0.084,0.087
			C432.434,270.074,433.284,302.497,414.007,321.774z"/>
	</g>
</g>
<g>
</g>
<g>
</g>
<g>
</g>
<g>
</g>
<g>
</g>
<g>
</g>
<g>
</g>
<g>
</g>
<g>
</g>
<g>
</g>
<g>
</g>
<g>
</g>
<g>
</g>
<g>
</g>
<g>
</g>
</svg>
