<svg height="512pt" viewBox="0 -57 512.00021 512" width="512pt" xmlns="http://www.w3.org/2000/svg"><path d="m510.027344 49.824219c-1.808594-2.421875-4.625-3.886719-7.648438-3.980469h-.066406c-3.414062-.144531-6.542969-1.28125-9.300781-3.371094-7.898438-5.996094-17.816407-8.421875-28.808594-7.09375 4.375-7.449218 6.800781-16.042968 6.800781-24.992187v-.476563c0-5.472656-4.4375-9.910156-9.910156-9.910156-5.476562 0-9.914062 4.4375-9.914062 9.910156v.476563c0 9.871093-4.933594 19.007812-13.023438 24.457031-7.265625-3.414062-15.367188-5.335938-23.914062-5.335938-8.546876 0-16.648438 1.921876-23.914063 5.335938-8.089844-5.449219-13.027344-14.589844-13.027344-24.457031v-.476563c0-5.472656-4.4375-9.910156-9.910156-9.910156s-9.910156 4.4375-9.910156 9.910156v.476563c0 8.949219 2.421875 17.542969 6.796875 24.992187-10.992188-1.324218-20.90625 1.101563-28.804688 7.09375-2.761718 2.089844-5.890625 3.226563-9.300781 3.371094h-.066406c-3.023438.089844-5.839844 1.554688-7.648438 3.976562-1.808593 2.421876-2.417969 5.535157-1.648437 8.460938 2.273437 8.613281 5.9375 15.597656 10.929687 20.902344-13.941406 2.542968-28.101562 3.835937-42.367187 3.835937h-153.316406c-.074219-.003906-.152344-.011719-.226563-.011719h-48.960937c-45.695313 0-82.867188 37.171876-82.867188 82.867188v78.570312c0 5.472657 4.4375 9.910157 9.910156 9.910157 5.476563 0 9.914063-4.4375 9.914063-9.910157v-78.570312c0-29.9375 20.980469-55.050781 49.007812-61.449219-2.023437 1.703125-3.992187 3.484375-5.882812 5.375-15.585938 15.605469-24.804688 35.851563-26.425781 57.617188-.046876.386719-.082032.773437-.082032 1.171875-.121094 1.941406-.203125 3.890625-.199218 5.855468l.019531 18.21875c.023437 18.382813 5.183593 36.335938 14.921875 51.921876 8.945312 14.324218 21.390625 26.035156 36.152344 34.113281l9.363281 31.925781v70.4375c0 9.746094 7.929687 17.675781 17.675781 17.675781h77.074219c6.40625 0 12.195312-3.28125 15.484375-8.777343 3.292968-5.496094 3.453125-12.148438.429687-17.796876l-6.121093-11.429687v-60.066406h81.285156c2.121094 4.523437 4.878906 8.753906 8.21875 12.527343v67.867188c0 9.746094 7.929687 17.675781 17.675781 17.675781h70.480469c6.40625 0 12.195312-3.28125 15.488281-8.777343 3.292969-5.492188 3.449219-12.144532.425781-17.792969l-6.121094-11.433594v-49.527344c7.175782-7.769531 13.050782-16.535156 17.554688-26.117187 29.789062-18.167969 49.910156-50.679688 50.703125-87.863282 13.976563-5.8125 23.835937-19.609374 23.835937-35.667968v-4.550782c0-10.183593-3.96875-19.449218-10.429687-26.355468.183594-.753906.289063-1.535156.289063-2.347656v-37.523438c.6875.03125 1.390624.050781 2.121093.050781 5.574219 0 12.355469-1.035156 18.980469-4.667969 9.75-5.34375 16.453125-14.722656 19.921875-27.882812.773437-2.921875.164063-6.035156-1.644531-8.457031zm-59.199219 36.09375v33.464843c-2.785156-.640624-5.679687-.992187-8.65625-.992187h-55.863281c-2.976563 0-5.871094.351563-8.652344.992187v-33.464843c0-20.175781 16.410156-36.585938 36.585938-36.585938 20.171874 0 36.585937 16.414063 36.585937 36.585938zm-103.375-27.652344c5.914063-4.488281 13.652344-3.71875 19.035156-2.320313-2.84375 4.511719-5.0625 9.453126-6.539062 14.707032-3.050781.488281-8.726563.847656-13.691407-1.875-2.464843-1.347656-4.578124-3.390625-6.324218-6.101563 2.648437-1.152343 5.171875-2.628906 7.519531-4.410156zm-115.964844 51.773437c0-3.898437 3.109375-7.074218 6.976563-7.199218h44.453125c14.582031.25 26.367187 12.179687 26.367187 26.816406 0 14.792969-12.035156 26.828125-26.824218 26.828125h-78.8125c-5.355469 0-9.707032-4.355469-9.707032-9.707031 0-5.351563 4.351563-9.707032 9.707032-9.707032h.804687c14.90625 0 27.035156-12.125 27.035156-27.03125zm-164.488281 122.210938c-6.972656-11.839844-10.894531-25.488281-10.914062-39.609375l-.015626-14.046875h78.816407c5.351562 0 9.707031 4.355469 9.707031 9.707031 0 5.351563-4.355469 9.707031-9.707031 9.707031h-.808594c-14.90625 0-27.03125 12.125-27.03125 27.03125 0 3.976563-3.234375 7.207032-7.207031 7.207032h-32.839844zm115.589844 135.648438 5.898437 11.015624h-20.117187c-.234375-2.316406-.921875-4.605468-2.070313-6.75l-6.121093-11.429687v-49.527344c3.097656-3.347656 5.941406-6.871093 8.535156-10.539062h12.703125v62.550781c0 1.632812.402343 3.242188 1.171875 4.679688zm187.457031 0 5.898437 11.015624h-21.082031c-.28125-2.882812-1.257812-5.707031-2.921875-8.210937l-3.664062-5.519531v-53.976563c3.199218-3.460937 6.132812-7.105469 8.796875-10.90625 5.714843-.300781 11.3125-1.0625 16.753906-2.238281-.675781.722656-1.351563 1.445312-2.050781 2.148438-1.859375 1.859374-2.902344 4.378906-2.902344 7.007812v56c-.003906 1.632812.398438 3.242188 1.171875 4.679688zm5.652344-126.882813v-11.4375c0-5.472656-4.4375-9.914063-9.910157-9.914063-5.476562 0-9.914062 4.441407-9.914062 9.914063v11.4375c0 15.390625-4.125 30.148437-11.851562 43.007813-.675782.769531-1.238282 1.644531-1.652344 2.601562-3.160156 4.84375-6.832032 9.402344-11.015625 13.585938-1.859375 1.859374-2.902344 4.378906-2.902344 7.007812v60.957031c0 1.953125.574219 3.859375 1.652344 5.484375l3.492187 5.253906h-23.027344v-69.710937c0-2.71875-1.113281-5.316406-3.085937-7.1875-6.4375-6.117187-10.132813-14.71875-10.132813-23.597656v-19.433594c0-5.476563-4.4375-9.914063-9.910156-9.914063s-9.910156 4.4375-9.910156 9.914063v19.433594c0 .808593.019531 1.621093.054688 2.425781h-97.890626c5.1875-12.453125 7.90625-25.933594 7.90625-39.828125v-11.4375c0-5.476563-4.4375-9.914063-9.910156-9.914063s-9.910156 4.4375-9.910156 9.914063v11.4375c0 22.359375-8.710938 43.382813-24.523438 59.195313-1.855468 1.855468-2.902343 4.378906-2.902343 7.007812v56c0 1.632812.40625 3.242188 1.175781 4.679688l5.898438 11.015624h-30.902344v-69.714843c0-.941407-.136719-1.882813-.402344-2.789063l-10.953125-37.332031c-.773437-2.636719-2.679687-4.90625-5.148437-6.113281-6.003907-2.9375-11.523438-6.621094-16.480469-10.894532h16.296875c14.90625 0 27.03125-12.125 27.03125-27.03125 0-3.972656 3.234375-7.207031 7.207031-7.207031h.808594c16.285156 0 29.53125-13.246093 29.53125-29.53125 0-16.28125-13.246094-29.53125-29.53125-29.53125h-77.113281c2.90625-13.136719 9.460937-25.207031 19.203124-34.957031 13.503907-13.523438 31.46875-20.96875 50.582032-20.96875h85.085937c-.636719 2.292969-.980469 4.703125-.980469 7.195312 0 3.976563-3.234374 7.207032-7.207031 7.207032h-.808593c-16.285157 0-29.53125 13.25-29.53125 29.53125 0 16.285156 13.246093 29.53125 29.53125 29.53125h78.8125c25.722656 0 46.648437-20.925782 46.648437-46.648438 0-10.96875-3.8125-21.058594-10.171875-29.035156 13.144531-1.734375 26.136719-4.488281 38.894531-8.257812v35.9375c0 .8125.109375 1.59375.292969 2.347656-6.460938 6.90625-10.429688 16.171875-10.429688 26.355468v4.550782c0 21.292968 17.320313 38.613281 38.613282 38.613281h50.683594c-2.359376 39.054687-30.996094 71.132813-68.417969 78.742187 4.679687-11.914062 7.125-24.71875 7.125-37.898437zm85.265625-79.457031c0 10.359375-8.429688 18.789062-18.792969 18.789062h-55.863281c-10.359375 0-18.789063-8.429687-18.789063-18.789062v-4.550782c0-10.363281 8.429688-18.792968 18.789063-18.792968h55.863281c10.363281 0 18.792969 8.429687 18.792969 18.792968zm21.386718-92.847656c-5 2.796874-10.742187 2.433593-13.816406 1.9375-1.480468-5.25-3.699218-10.191407-6.539062-14.707032 5.382812-1.398437 13.121094-2.167968 19.035156 2.320313 2.347656 1.785156 4.871094 3.257812 7.519531 4.414062-1.71875 2.664063-3.789062 4.683594-6.199219 6.035157zm0 0"/><path d="m382.066406 80.902344c0 5.472656 4.4375 9.910156 9.914063 9.910156h.144531c5.472656 0 9.910156-4.4375 9.910156-9.910156 0-5.476563-4.4375-9.914063-9.910156-9.914063h-.144531c-5.476563 0-9.914063 4.4375-9.914063 9.914063zm0 0"/><path d="m433.289062 90.8125h.144532c5.472656 0 9.910156-4.4375 9.910156-9.910156 0-5.476563-4.4375-9.914063-9.910156-9.914063h-.144532c-5.476562 0-9.914062 4.4375-9.914062 9.914063 0 5.472656 4.4375 9.910156 9.914062 9.910156zm0 0"/><path d="m393.660156 150.429688h-.144531c-5.476563 0-9.914063 4.441406-9.914063 9.914062s4.4375 9.910156 9.914063 9.910156h.144531c5.472656 0 9.910156-4.4375 9.910156-9.910156s-4.4375-9.914062-9.910156-9.914062zm0 0"/><path d="m434.96875 150.429688h-.148438c-5.472656 0-9.910156 4.441406-9.910156 9.914062s4.4375 9.910156 9.910156 9.910156h.148438c5.472656 0 9.910156-4.4375 9.910156-9.910156s-4.4375-9.914062-9.910156-9.914062zm0 0"/><path d="m9.910156 274.183594c-2.605468 0-5.164062 1.050781-7.007812 2.90625-1.839844 1.839844-2.902344 4.390625-2.902344 7.003906 0 2.609375 1.0625 5.164062 2.902344 7.007812 1.84375 1.84375 4.402344 2.90625 7.007812 2.90625 2.609375 0 5.164063-1.0625 7.007813-2.90625s2.90625-4.398437 2.90625-7.007812c0-2.617188-1.0625-5.164062-2.90625-7.003906-1.84375-1.855469-4.398438-2.90625-7.007813-2.90625zm0 0"/></svg>