<?xml version="1.0" encoding="iso-8859-1"?>
<!-- Generator: Adobe Illustrator 19.0.0, SVG Export Plug-In . SVG Version: 6.00 Build 0)  -->
<svg version="1.1" id="Layer_1" xmlns="http://www.w3.org/2000/svg" xmlns:xlink="http://www.w3.org/1999/xlink" x="0px" y="0px"
	 viewBox="0 0 511.999 511.999" style="enable-background:new 0 0 511.999 511.999;" xml:space="preserve">
<g>
	<g>
		<path d="M482.095,324.416c-9.373-57.027-40.241-114.138-86.918-160.816c-17.966-17.966-37.607-33.707-58.378-46.789
			c-4.018-2.534-9.135-2.532-13.153,0.001c-20.796,13.108-40.436,28.851-58.375,46.788c-46.678,46.678-77.545,103.79-86.915,160.816
			c-9.618,58.53,4.413,110.087,39.507,145.174c16.871,16.87,37.601,28.919,61.609,35.81c15.254,4.382,31.63,6.599,48.709,6.599
			c0.725,0,1.451-0.004,2.179-0.012c16.266-0.178,33.111-2.343,50.064-6.436c0.169-0.041,0.336-0.085,0.503-0.132
			c24.042-6.893,44.792-18.947,61.673-35.829C477.688,434.501,491.715,382.944,482.095,324.416z M425.152,452.142c0,0,0,0,0,0.001
			c-13.829,13.829-30.911,23.748-50.777,29.484c-15.06,3.617-29.958,5.531-44.286,5.688c-15.433,0.149-30.208-1.724-43.809-5.631
			c-19.943-5.723-37.091-15.663-50.971-29.543c-29.321-29.314-40.901-73.252-32.606-123.723
			c8.539-51.974,36.957-104.311,80.014-147.368c14.737-14.734,30.688-27.86,47.51-39.093c16.796,11.213,32.748,24.338,47.503,39.093
			c43.057,43.057,71.475,95.394,80.018,147.368C466.043,378.889,454.467,422.829,425.152,452.142z"/>
	</g>
</g>
<g>
	<g>
		<path d="M299.822,434.531c-11.857-3.403-21.893-9.148-29.824-17.079c-13.116-13.115-20.098-31.529-20.75-54.736
			c-0.191-6.81-5.842-12.16-12.679-11.986c-6.811,0.191-12.177,5.868-11.986,12.679c0.824,29.3,10.497,54.02,27.97,71.49
			c10.925,10.923,24.539,18.779,40.465,23.348c1.136,0.327,2.282,0.482,3.409,0.482c5.364,0,10.3-3.525,11.851-8.938
			C310.158,443.243,306.372,436.41,299.822,434.531z"/>
	</g>
</g>
<g>
	<g>
		<path d="M252.764,287.394c-6.387-2.365-13.488,0.888-15.858,7.277c-1.015,2.738-1.98,5.502-2.866,8.213
			c-1.181,3.607-2.268,7.253-3.23,10.837c-1.767,6.581,2.134,13.348,8.715,15.116c1.073,0.289,2.149,0.426,3.208,0.426
			c5.444,0,10.429-3.632,11.908-9.139c0.849-3.16,1.806-6.376,2.851-9.568c0.786-2.407,1.645-4.863,2.549-7.302
			C262.41,296.864,259.153,289.764,252.764,287.394z"/>
	</g>
</g>
<g>
	<g>
		<path d="M204.058,118.038c-5.259-31.997-22.514-63.978-48.587-90.05c-10.015-10.013-20.967-18.791-32.557-26.09
			c-4.02-2.532-9.135-2.53-13.154,0.002C98.158,9.215,87.207,17.992,77.209,27.989c-26.074,26.074-43.328,58.053-48.586,90.05
			c-5.504,33.501,2.645,63.13,22.95,83.43c9.811,9.809,21.842,16.81,35.757,20.803c8.762,2.516,18.145,3.789,27.912,3.789
			c0.41,0,0.82-0.003,1.23-0.009c9.221-0.1,18.755-1.324,28.341-3.638c0.169-0.041,0.337-0.085,0.503-0.132
			c13.936-3.995,25.981-10.998,35.798-20.814C201.415,181.167,209.564,151.538,204.058,118.038z M163.668,184.019
			c-6.766,6.766-15.143,11.633-24.903,14.472c-7.69,1.837-15.28,2.81-22.56,2.889c-7.818,0.09-15.239-0.866-22.065-2.826
			c-9.849-2.827-18.301-7.717-25.12-14.535c-14.53-14.526-20.228-36.538-16.047-61.98C57.4,95.093,72.204,67.888,94.658,45.435
			c6.779-6.779,14.049-12.906,21.684-18.278c7.623,5.363,14.892,11.49,21.682,18.278c22.453,22.453,37.258,49.658,41.687,76.604
			C183.893,147.481,178.194,169.493,163.668,184.019z"/>
	</g>
</g>
<g>
	<g>
		<path d="M107.512,151.994c-2.527-0.724-3.63-1.62-4.24-2.229c-2.962-2.962-3.966-10.948-2.5-19.871
			c1.051-6.388-3.276-12.416-9.663-13.467c-6.39-1.055-12.416,3.274-13.467,9.663c-1.646,10.006-2.656,28.54,9.056,40.252
			c3.785,3.786,8.614,6.539,14.347,8.186c1.081,0.31,2.169,0.458,3.24,0.458c5.094,0,9.785-3.35,11.26-8.491
			C117.33,160.273,113.734,153.781,107.512,151.994z"/>
	</g>
</g>
<g>
</g>
<g>
</g>
<g>
</g>
<g>
</g>
<g>
</g>
<g>
</g>
<g>
</g>
<g>
</g>
<g>
</g>
<g>
</g>
<g>
</g>
<g>
</g>
<g>
</g>
<g>
</g>
<g>
</g>
</svg>
