<?xml version="1.0" encoding="iso-8859-1"?>
<!-- Generator: Adobe Illustrator 19.0.0, SVG Export Plug-In . SVG Version: 6.00 Build 0)  -->
<svg version="1.1" id="Capa_1" xmlns="http://www.w3.org/2000/svg" xmlns:xlink="http://www.w3.org/1999/xlink" x="0px" y="0px"
	 viewBox="0 0 512 512" style="enable-background:new 0 0 512 512;" xml:space="preserve">
<g>
	<g>
		<path d="M256,40c-5.52,0-10,4.48-10,10s4.48,10,10,10s10-4.48,10-10S261.52,40,256,40z"/>
	</g>
</g>
<g>
	<g>
		<path d="M236,332c-5.522,0-10,4.478-10,10v20c0,5.522,4.478,10,10,10c5.522,0,10-4.478,10-10v-20C246,336.478,241.522,332,236,332
			z"/>
	</g>
</g>
<g>
	<g>
		<path d="M276,372c-5.522,0-10,4.478-10,10v20c0,5.522,4.478,10,10,10c5.522,0,10-4.478,10-10v-20C286,376.478,281.522,372,276,372
			z"/>
	</g>
</g>
<g>
	<g>
		<path d="M236,412c-5.522,0-10,4.478-10,10v20c0,5.522,4.478,10,10,10c5.522,0,10-4.478,10-10v-20C246,416.478,241.522,412,236,412
			z"/>
	</g>
</g>
<g>
	<g>
		<path d="M257.41,0h-2.82C139.287,0,46,93.299,46,208.59C46,247.92,77.792,280,117.41,280c11.057,0,21.991-2.567,32.004-7.587
			c8.025,17.459,28.497,26.455,47.211,19.168L178.266,421.47C171.001,469.001,207.774,512,256,512
			c48.076,0,85.022-42.85,77.733-90.529l-18.358-129.884c18.555,7.227,39.119-1.566,47.21-19.168
			C372.49,277.392,383.4,280,394.59,280c39.331,0,71.41-31.792,71.41-71.41C466,93.573,372.427,0,257.41,0z M256,492
			c-35.945,0-63.411-32.066-57.956-67.551c0.006-0.04,0.012-0.08,0.018-0.12l19.852-140.457c9.932-2.588,20.328-3.872,31.606-3.872
			h12.961c11.273,0,21.665,1.283,31.606,3.873l19.852,140.457c0.006,0.04,0.012,0.08,0.018,0.12
			C319.417,459.977,291.901,492,256,492z M321.728,272.57c-5.211-2.39-10.32-4.369-15.6-6.045c-0.128-0.041-0.258-0.074-0.386-0.115
			c-0.04-0.011-0.079-0.025-0.12-0.036C292.053,262.092,277.937,260,262.48,260h-12.96c-15.647,0-29.924,2.135-43.625,6.519
			c-5.302,1.683-10.411,3.662-15.606,6.044c-10.033,4.58-20.7-1.399-23.514-10.58c25.181-14.4,53.65-21.983,82.745-21.983h12.961
			c16.386,0,32.645,2.406,48.32,7.15c11.993,3.634,23.543,8.62,34.424,14.839C342.387,271.242,331.678,277.113,321.728,272.57z
			 M394.59,260c-27.625,0-30.474-17.595-77.993-31.991C299.038,222.694,280.831,220,262.48,220h-12.96
			c-38.36,0-75.8,12.734-99.149,28.505C144.279,252.294,134.435,260,117.41,260C89.041,260,66,237.064,66,208.59
			C66,104.341,150.354,20,254.59,20h2.82C361.398,20,446,104.602,446,208.59C446,236.959,423.064,260,394.59,260z"/>
	</g>
</g>
<g>
	<g>
		<path d="M389.577,104.038c-23.115-29.159-55.585-50.135-91.43-59.062c-5.356-1.335-10.786,1.926-12.12,7.286
			c-1.335,5.36,1.927,10.787,7.286,12.121c31.583,7.866,60.204,26.361,80.59,52.079c3.421,4.314,9.707,5.065,14.049,1.625
			C392.28,114.655,393.008,108.366,389.577,104.038z"/>
	</g>
</g>
<g>
</g>
<g>
</g>
<g>
</g>
<g>
</g>
<g>
</g>
<g>
</g>
<g>
</g>
<g>
</g>
<g>
</g>
<g>
</g>
<g>
</g>
<g>
</g>
<g>
</g>
<g>
</g>
<g>
</g>
</svg>
