<svg height="512pt" viewBox="-27 0 512 512" width="512pt" xmlns="http://www.w3.org/2000/svg"><path d="m458 90c0-3.734375-2.082031-7.15625-5.398438-8.878906l-7.835937-4.0625c-25.144531-13.039063-40.765625-38.734375-40.765625-67.058594 0-5.523438-4.476562-10-10-10h-342.316406c-.628906 0-1.238282.0664062-1.832032.175781-27.84375 2.128907-49.851562 25.445313-49.851562 53.824219v404c0 29.773438 24.222656 54 54 54h394c5.40625 0 9.800781-4.296875 9.984375-9.660156.007813-.101563.015625-.210938.015625-.339844zm-22.441406 4.8125 2.441406 1.265625v389.023437c-10.519531-6.90625-18.980469-16.195312-24.835938-26.949218-.214843-.515625-.476562-1.007813-.773437-1.476563-5.421875-10.507812-8.390625-22.339843-8.390625-34.675781v-353.441406c8.328125 10.726562 19 19.742187 31.558594 26.253906zm-51.558594-74.8125v384h-20v-83.25c0-5.523438-4.476562-10-10-10s-10 4.476562-10 10v83.25h-276v-384zm-364 34c0-16.699219 12.105469-30.617188 28-33.460938v383.800782c-10.539062 1.171875-20.175781 5.386718-28 11.746094zm226.75 438h-192.75c-18.746094 0-34-15.253906-34-34s15.253906-34 34-34h330.035156c.199219 9.679688 1.835938 19.097656 4.765625 28h-180.800781c-5.523438 0-10 4.476562-10 10s4.476562 10 10 10h190.070312c4.507813 7.347656 10.019532 14.078125 16.410157 20zm0 0"/><path d="m209.761719 152.914062c.394531 0 .789062-.019531 1.183593-.027343v12.382812h-48.660156c-5.519531 0-10 4.476563-10 10 0 5.519531 4.480469 10 10 10h4.609375v127.519531c0 30.960938 25.183594 56.148438 56.144531 56.148438 30.957032 0 56.144532-25.1875 56.144532-56.148438v-127.519531h4.605468c5.523438 0 10-4.480469 10-10 0-5.523437-4.476562-10-10-10h-52.84375v-12.382812c.394532.007812.789063.027343 1.183594.027343 17.929688 0 35.339844-7.066406 48.21875-19.945312 15.753906-15.753906 22.808594-38.277344 18.878906-60.25-.738281-4.121094-3.960937-7.34375-8.082031-8.082031-21.972656-3.929688-44.496093 3.125-60.25 18.878906-3.847656 3.847656-7.171875 8.101563-9.949219 12.648437-2.777343-4.546874-6.101562-8.800781-9.949218-12.648437-15.753906-15.753906-38.273438-22.808594-60.246094-18.878906-4.121094.738281-7.347656 3.960937-8.085938 8.082031-3.929687 21.972656 3.128907 44.496094 18.882813 60.25 12.878906 12.878906 30.285156 19.945312 48.214844 19.945312zm13.277343 196.019532c-19.929687 0-36.144531-16.214844-36.144531-36.144532v-57.835937h72.292969v57.835937c0 19.929688-16.214844 36.144532-36.148438 36.144532zm36.148438-113.980469h-72.292969v-49.683594h72.292969zm-14.148438-137.296875c9.378907-9.378906 22.164063-14.367188 35.242188-14.074219.316406 13.085938-4.695312 25.863281-14.078125 35.242188-9.378906 9.378906-22.183594 14.371093-35.242187 14.074219-.316407-13.082032 4.699218-25.863282 14.078124-35.242188zm-48.183593 0c9.378906 9.378906 14.390625 22.160156 14.074219 35.242188-13.074219.316406-25.863282-4.695313-35.242188-14.074219-9.378906-9.378907-14.390625-22.15625-14.074219-35.242188 13.09375-.296875 25.863281 4.699219 35.242188 14.074219zm0 0"/><path d="m168 451.996094c-2.628906 0-5.210938 1.070312-7.070312 2.933594-1.859376 1.859374-2.929688 4.4375-2.929688 7.066406 0 2.632812 1.070312 5.210937 2.929688 7.070312 1.859374 1.871094 4.441406 2.929688 7.070312 2.929688s5.210938-1.058594 7.070312-2.929688c1.859376-1.859375 2.929688-4.4375 2.929688-7.070312 0-2.628906-1.070312-5.207032-2.929688-7.066406-1.859374-1.863282-4.441406-2.933594-7.070312-2.933594zm0 0"/><path d="m354 290.746094c2.628906 0 5.210938-1.066406 7.070312-2.929688 1.859376-1.859375 2.929688-4.4375 2.929688-7.070312 0-2.628906-1.070312-5.207032-2.929688-7.066406-1.859374-1.863282-4.441406-2.933594-7.070312-2.933594s-5.210938 1.070312-7.070312 2.933594c-1.859376 1.859374-2.929688 4.4375-2.929688 7.066406 0 2.640625 1.070312 5.210937 2.929688 7.070312 1.859374 1.863282 4.441406 2.929688 7.070312 2.929688zm0 0"/></svg>