<svg id="Capa_1" enable-background="new 0 0 512 512" height="512" viewBox="0 0 512 512" width="512" xmlns="http://www.w3.org/2000/svg"><path d="m507.009 200.069-77.009-44.57v-89.151c0-3.569-1.902-6.867-4.991-8.655l-82-47.459c-3.098-1.793-6.92-1.793-10.018 0l-76.991 44.56-76.991-44.56c-3.098-1.793-6.92-1.793-10.018 0l-82 47.459c-3.089 1.788-4.991 5.085-4.991 8.655v89.151l-77.009 44.57c-3.089 1.788-4.991 5.086-4.991 8.656v94.917c0 3.568 1.902 6.867 4.991 8.655l77.009 44.57v88.785c0 3.569 1.902 6.867 4.991 8.655l82 47.459c1.549.896 3.279 1.345 5.009 1.345s3.46-.448 5.009-1.345l82-47.459c3.089-1.788 4.991-5.086 4.991-8.655v-88.785l72-41.671 76.991 44.56c1.549.896 3.279 1.345 5.009 1.345s3.46-.448 5.009-1.345l82-47.459c3.089-1.788 4.991-5.087 4.991-8.655v-94.917c0-3.57-1.902-6.868-4.991-8.656zm-179.009 97.806-62 35.884v-63.251c0-5.522-4.478-10-10-10-5.523 0-10 4.478-10 10v62.886l-62-35.884v-83.019l72-41.672 72 41.672zm10-267.433 72 41.672v83.384l-72 41.672-72-41.672v-83.384zm-236 41.672 72-41.672 72 41.672v83.384l-72 41.672-72-41.672zm-82 142.377 72-41.672 72 41.672v83.019l-72.316 41.854-71.684-41.489zm226 225.395-72 41.672-72-41.672v-83.018l72-41.671 72 41.671zm246-142.011-72 41.672-72-41.672v-83.384l72-41.672 72 41.672z"/><path d="m256 235.48c-4.191 0-7.98-2.694-9.407-6.626-1.401-3.861-.195-8.343 2.938-10.996 3.282-2.779 8.092-3.122 11.746-.864 3.508 2.167 5.319 6.412 4.523 10.446-.912 4.619-5.099 8.04-9.8 8.04z"/></svg>