<svg height="512pt" viewBox="-14 0 512 512" width="512pt" xmlns="http://www.w3.org/2000/svg"><path d="m484.882812 204.644531c0-30.433593-16.667968-57.773437-43.109374-71.800781.707031-4.273438 1.0625-8.59375 1.0625-12.921875 0-43.808594-35.644532-79.449219-79.449219-79.449219-11.042969 0-21.921875 2.296875-31.945313 6.703125-11.117187-16.359375-26.726562-29.566406-44.757812-37.710937-5.03125-2.269532-10.957032-.035156-13.230469 5-2.269531 5.03125-.035156 10.957031 5 13.230468 17.078125 7.710938 31.488281 21.007813 40.574219 37.4375 1.3125 2.375 3.535156 4.113282 6.152344 4.816407 2.617187.707031 5.410156.316406 7.734374-1.074219 9.183594-5.496094 19.722657-8.402344 30.472657-8.402344 32.777343 0 59.449219 26.667969 59.449219 59.449219 0 5.363281-.734376 10.71875-2.175782 15.921875-1.355468 4.894531 1.171875 10.03125 5.882813 11.9375 23.289062 9.433594 38.335937 31.753906 38.335937 56.863281 0 17.136719-6.902344 33.035157-19.433594 44.773438-2.746093 2.566406-3.816406 6.457031-2.773437 10.070312 1.550781 5.378907 2.335937 10.929688 2.335937 16.496094 0 24.953125-15.757812 47.421875-39.214843 55.914063-4.160157 1.507812-6.839844 5.570312-6.578125 9.992187.078125 1.320313.117187 2.476563.117187 3.542969 0 32.78125-26.667969 59.449218-59.449219 59.449218-8.519531 0-16.761718-1.777343-24.5-5.289062-3.789062-1.714844-8.242187-.910156-11.1875 2.023438-16.480468 16.425781-38.371093 25.46875-61.636718 25.46875-.039063 0-.078125.007812-.117188.007812-.042968 0-.082031-.007812-.121094-.007812-23.265624 0-45.152343-9.042969-61.636718-25.46875-2.945313-2.933594-7.402344-3.738282-11.1875-2.023438-7.738282 3.511719-15.980469 5.289062-24.5 5.289062-32.777344 0-59.445313-26.667968-59.445313-59.449218 0-1.066406.035157-2.222656.113281-3.542969.261719-4.421875-2.417968-8.484375-6.578124-9.992187-23.457032-8.492188-39.214844-30.960938-39.214844-55.914063 0-5.566406.789062-11.117187 2.339844-16.496094 1.039062-3.613281-.03125-7.503906-2.773438-10.070312-12.535156-11.738281-19.4375-27.636719-19.4375-44.773438 0-25.109375 15.046875-47.429687 38.335938-56.863281 4.710937-1.90625 7.242187-7.042969 5.882812-11.9375-1.441406-5.203125-2.171875-10.558594-2.171875-15.921875 0-32.777344 26.667969-59.449219 59.449219-59.449219 10.75 0 21.285156 2.90625 30.46875 8.402344 2.324218 1.390625 5.117187 1.78125 7.738281 1.074219 2.617187-.707031 4.835937-2.441407 6.148437-4.816407 9.128907-16.507812 23.621094-29.84375 40.804688-37.542968 5.039062-2.257813 7.292969-8.175782 5.035156-13.214844-2.257812-5.039062-8.175781-7.292969-13.214844-5.035156-18.152343 8.136718-33.859374 21.386718-45.035156 37.832031-10.023437-4.402344-20.902344-6.699219-31.945312-6.699219-43.808594 0-79.449219 35.640625-79.449219 79.449219 0 4.328125.355469 8.648437 1.0625 12.921875-26.441406 14.027344-43.109375 41.367188-43.109375 71.800781 0 20.398438 7.789062 40.167969 21.546875 55.117188-1.113281 5.339843-1.675781 10.773437-1.675781 16.222656 0 30.914063 18.101562 58.976563 45.714844 71.945313 1.269531 40.972656 33.722656 74.214843 74.367187 76.773437-.003906.101563-.015625.195313-.015625.296875v66c0 11.578125 9.421875 21 21 21h18c11.582031 0 21-9.421875 21-21v-52.578125c13.214844 5.679687 27.570312 8.664063 42.382812 8.664063.039063 0 .078126-.007813.117188-.007813.042969 0 .082031.007813.121094.007813 14.808594 0 29.167968-2.984376 42.378906-8.664063v52.578125c0 11.578125 9.421875 21 21 21h18c11.582031 0 21-9.421875 21-21v-66c0-.101562-.011719-.195312-.011719-.296875 40.640625-2.558594 73.097657-35.800781 74.363281-76.773437 27.617188-12.96875 45.71875-41.03125 45.71875-71.945313 0-5.449219-.5625-10.882813-1.679687-16.222656 13.765625-14.949219 21.554687-34.71875 21.554687-55.117188zm-304.941406 286.355469c0 .550781-.449218 1-1 1h-18c-.550781 0-1-.449219-1-1v-66c0-.515625-.050781-1.019531-.128906-1.515625 3.945312-.75 7.828125-1.78125 11.628906-3.128906 2.730469 2.40625 5.574219 4.648437 8.5 6.746093zm145 0c0 .550781-.449218 1-1 1h-18c-.550781 0-1-.449219-1-1v-63.898438c2.925782-2.101562 5.769532-4.339843 8.496094-6.746093 3.804688 1.347656 7.6875 2.378906 11.628906 3.128906-.074218.496094-.125 1-.125 1.515625zm0 0"/><path d="m242.320312 20h.242188c5.523438 0 10-4.476562 10-10s-4.476562-10-10-10h-.242188c-5.523437 0-10 4.476562-10 10s4.476563 10 10 10zm0 0"/><path d="m202.890625 177.632812c-5.011719 5.210938-11.742187 8.078126-18.953125 8.078126-14.507812 0-26.3125-11.804688-26.3125-26.3125 0-5.523438-4.476562-10-10-10s-10 4.476562-10 10c0 14.066406 6.3125 26.679687 16.242188 35.179687-13.128907 4.160156-30.398438 8.929687-48.210938 11.84375-6.023438.984375-11.039062 4.933594-13.421875 10.558594-2.390625 5.648437-1.734375 12.015625 1.761719 17.042969 15.300781 22.023437 39.984375 26.953124 54.183594 27.855468.910156 56.480469 42.84375 102.121094 94.261718 102.121094 51.394532 0 93.3125-45.597656 94.261719-102.046875 13.9375-.679687 39.722656-5.199219 55.519531-27.929687 3.492188-5.027344 4.152344-11.398438 1.761719-17.042969-2.386719-5.625-7.402344-9.574219-13.425781-10.558594-18.25-2.984375-35.945313-7.921875-49.183594-12.152344 9.722656-8.496093 15.886719-20.972656 15.886719-34.871093 0-5.523438-4.480469-10-10-10-5.523438 0-10 4.476562-10 10 0 14.507812-11.804688 26.3125-26.316407 26.3125-7.144531 0-13.835937-2.824219-18.832031-7.949219-2.253906-2.3125-5.480469-3.394531-8.667969-2.90625s-5.945312 2.480469-7.40625 5.355469c-4.523437 8.890624-13.515624 14.417968-23.46875 14.417968-10.015624 0-19.035156-5.574218-23.53125-14.542968-1.457031-2.902344-4.230468-4.917969-7.4375-5.402344-3.210937-.492188-6.457031.613281-8.710937 2.949218zm-90.25 47.882813c16.6875-2.957031 32.511719-7.246094 45.074219-11.15625-3.859375 8.710937-6.59375 17.984375-8.117188 27.589844-9.578125-.570313-26.113281-3.539063-36.957031-16.433594zm222.648437 16.460937c-1.550781-9.789062-4.351562-19.242187-8.328124-28.097656 12.792968 4.03125 29.234374 8.558594 46.609374 11.636719-11.289062 13.378906-28.953124 16.042969-38.28125 16.460937zm-92.722656-27.347656c13.460938 0 25.917969-5.734375 34.578125-15.480468 6.578125 3.957031 14.058594 6.183593 21.894531 6.5 11.429688 15.179687 17.6875 34.292968 17.6875 54.351562 0 42.480469-28.039062 77.675781-64.285156 83.21875v-13.585938l13.179688-10.703124c4.289062-3.480469 4.941406-9.777344 1.460937-14.066407-3.484375-4.289062-9.78125-4.941406-14.066406-1.457031l-10.449219 8.480469-10.445312-8.480469c-4.289063-3.480469-10.585938-2.828125-14.066406 1.457031-3.484376 4.289063-2.828126 10.585938 1.457031 14.066407l12.929687 10.496093v13.792969c-36.246094-5.542969-64.285156-40.738281-64.285156-83.21875 0-20.058594 6.257812-39.171875 17.6875-54.351562 7.90625-.316407 15.441406-2.578126 22.058594-6.597657 8.652344 9.808594 21.140625 15.578125 34.664062 15.578125zm0 0"/><path d="m205.359375 259.5c0 2.628906 1.070313 5.210938 2.929687 7.070312 1.863282 1.859376 4.441407 2.929688 7.070313 2.929688 2.640625 0 5.210937-1.070312 7.070313-2.929688 1.871093-1.859374 2.929687-4.441406 2.929687-7.070312s-1.058594-5.210938-2.929687-7.070312c-1.859376-1.859376-4.4375-2.929688-7.070313-2.929688-2.628906 0-5.207031 1.070312-7.070313 2.929688-1.859374 1.859374-2.929687 4.441406-2.929687 7.070312zm0 0"/><path d="m269.519531 269.5c2.632813 0 5.210938-1.070312 7.070313-2.929688 1.859375-1.859374 2.929687-4.441406 2.929687-7.070312s-1.070312-5.210938-2.929687-7.070312c-1.859375-1.859376-4.4375-2.929688-7.070313-2.929688-2.636719 0-5.207031 1.070312-7.070312 2.929688-1.859375 1.859374-2.929688 4.441406-2.929688 7.070312s1.070313 5.210938 2.929688 7.070312c1.863281 1.859376 4.433593 2.929688 7.070312 2.929688zm0 0"/></svg>