<svg id="Layer_1" enable-background="new 0 0 512 512" height="512" viewBox="0 0 512 512" width="512" xmlns="http://www.w3.org/2000/svg"><path d="m506.93 178.408c-10.415-9.961-43.657-16.938-84.64-16.251 8.366-15.201 12.848-28.386 18.155-44.012 4.946-14.561 10.551-31.065 20.846-54.147 1.703-3.817.875-8.287-2.081-11.241-2.956-2.953-7.424-3.778-11.242-2.074-23.093 10.317-39.605 15.931-54.174 20.884-15.613 5.308-28.788 9.789-43.969 18.15.693-40.991-6.279-74.237-16.238-84.65-4.101-4.287-9.384-5.966-14.506-4.603-9.534 2.537-13.493 13.905-15.876 23.52-9.16 36.887-17.129 63.863-28.103 86.263-5.491-19.448-11.739-37.434-18.174-52.135-11.389-26.018-20.769-36.705-31.388-35.73-14.069 1.29-14.981 20.25-15.28 26.473-2.251 46.109-8.995 78.331-21.755 103.6-4.85 1.353-9.679 2.859-14.476 4.506-.192.058-.378.125-.564.194-27.675 9.573-54.175 23.891-76.411 41.353-.2.148-.395.302-.584.464-6.731 5.321-13.075 10.923-18.927 16.775l-18.112 18.113c-39.111 39.112-59.661 83.812-59.428 129.264.202 39.301 16.023 76.352 44.549 104.337 27.997 28.525 65.056 44.34 104.363 44.536.25.001.495.002.745.002 45.186-.001 89.601-20.537 128.491-59.428l18.078-18.107c28.247-28.248 51.188-68.795 63.143-110.869 25.302-12.827 57.573-19.602 103.772-21.852 6.229-.303 25.184-1.226 26.47-15.293.97-10.612-9.717-19.997-35.737-31.383-14.702-6.433-32.692-12.68-52.147-18.173 22.417-10.989 49.381-18.947 86.281-28.097 9.62-2.384 20.987-6.343 23.524-15.88 1.364-5.117-.315-10.407-4.605-14.509zm-106.644-87.746c9.256-3.146 19.982-6.794 32.932-11.898-5.091 12.933-8.73 23.648-11.871 32.893-6.452 18.996-11.236 33.07-23.312 51.768-19.559 1.709-40.101 5.158-60.254 10.775 5.613-20.143 9.062-40.673 10.772-60.221 18.68-12.077 32.746-16.862 51.733-23.317zm-87.728 289.885-4.135-39.243 22.661 2.391c-5.219 12.808-11.481 25.246-18.526 36.852zm-30.597 39.662-.842.844-67.975-7.164-8.809-83.568 83.578 8.82 7.019 66.602c-4.177 5.162-8.512 10.007-12.971 14.466zm-62.623 52.439-4.032-38.25 47.473 5.003c-13.878 13.704-28.443 24.834-43.441 33.247zm-48.642-269.056-39.723-4.184c11.756-7.239 24.322-13.571 37.3-18.805zm27.044-32.745c.168-.04.334-.082.499-.131 4.494-1.157 9.001-2.18 13.506-3.045 20.914-4.017 40.53-4.511 57.919-1.704l5.12 48.588-83.579-8.803-3.383-32.092c3.295-1.013 6.602-1.951 9.918-2.813zm123.741 19.675c9.218 9.218 15.48 19.859 19.603 31.015l-45.791-4.823-4.785-45.404c12.126 4.418 22.612 10.847 30.973 19.212zm-44.535 44.541 8.807 83.568-83.579-8.82-8.807-83.551zm29.316 85.732-8.807-83.572 48.96 5.157c3.57 22.81.565 45.48-2.734 60.869-1.491 6.957-3.356 13.95-5.547 20.909zm16.52-291.956c.081-.328.162-.645.242-.953 2.703 8.673 5.604 23.545 6.43 45.074.696 18.11.179 52.332-9.641 90.39-11.085-7.242-23.862-12.504-38.206-15.716-.391-.109-.79-.192-1.197-.253-.861-.185-1.716-.378-2.589-.548-.321-.063-.647-.115-.969-.175.894-1.256 1.773-2.521 2.633-3.796.253-.326.483-.667.694-1.021 19.214-28.877 30.169-62.929 42.603-113.002zm-92.382 21.148c7.966 13.666 20.199 43.315 30.267 84.652-2.279 3.207-4.68 6.349-7.225 9.446-12.864-.47-26.375.484-40.418 2.863 9.902-25.288 15.375-56.176 17.376-96.961zm-124.273 167.085 66.73 7.028 8.807 83.547-2.251-.238c-5.546-.577-10.503 3.432-11.087 8.971s3.432 10.503 8.971 11.087l6.529.689 8.809 83.571-83.548-8.805-9.964-94.555c.024-.901-.073-1.78-.276-2.623l-7.892-74.885.852-.852c4.475-4.475 9.269-8.792 14.32-12.935zm-85.955 145.949c-.088-17.166 3.289-34.29 9.952-51.035l49.655 5.283 8.799 83.492-64.382-6.785c-2.602-10.015-3.97-20.392-4.024-30.955zm52.437-113.794 5.009 47.529-38.263-4.071c8.415-15.004 19.545-29.575 33.254-43.458zm-13.869 203.898c-11.442-11.21-20.518-24.098-26.987-38.072l58.986 6.216 6.215 58.976c-13.972-6.467-26.859-15.54-38.07-26.977-.048-.047-.096-.096-.144-.143zm90.915 38.705c-.212 0-.427 0-.638-.001-10.573-.053-20.961-1.421-30.985-4.026l-6.784-64.371 83.549 8.805 5.232 49.641c-16.529 6.576-33.429 9.953-50.374 9.952zm312.364-210.224c-40.778 1.995-71.673 7.47-96.97 17.382 2.508-14.21 3.542-27.815 3.114-40.65 3.013-2.463 6.068-4.792 9.183-7.004 41.356 10.075 71.013 22.31 84.673 30.272zm21.14-92.384c-50.113 12.426-84.143 23.377-113.089 42.655-.129.079-.251.167-.377.252-1.372.918-2.736 1.849-4.087 2.806-.038-.202-.08-.395-.12-.594-.203-1.042-.415-2.078-.641-3.106-.02-.105-.047-.207-.071-.311-3.187-14.34-8.551-27.333-16.034-38.686-.009-.034-.019-.065-.028-.099 38.036-9.805 72.226-10.309 90.327-9.609 21.545.831 36.421 3.739 45.09 6.446-.312.081-.636.163-.97.246z"/><path d="m132.176 322.745.199.028c.483.069.962.102 1.436.102 4.939 0 9.254-3.632 9.971-8.663.786-5.514-3.047-10.621-8.561-11.407l-.199-.028c-5.512-.786-10.621 3.047-11.407 8.561s3.047 10.621 8.561 11.407z"/></svg>