<svg height="511pt" viewBox="-31 0 511 511.99965" width="511pt" xmlns="http://www.w3.org/2000/svg"><path d="m225.164062 433.628906c-2.628906 0-5.207031 1.058594-7.066406 2.929688-1.863281 1.859375-2.929687 4.4375-2.929687 7.070312 0 2.617188 1.066406 5.199219 2.929687 7.070313 1.859375 1.855469 4.4375 2.917969 7.066406 2.917969 2.632813 0 5.210938-1.0625 7.070313-2.917969 1.859375-1.871094 2.929687-4.441407 2.929687-7.070313 0-2.640625-1.066406-5.210937-2.929687-7.070312-1.859375-1.871094-4.4375-2.929688-7.070313-2.929688zm0 0"/><path d="m449.339844 333.839844c-1.710938-5.25-7.355469-8.121094-12.605469-6.40625l-19.738281 6.429687 9.230468-80.0625c.4375-3.8125-1.347656-7.542969-4.59375-9.597656-3.246093-2.050781-7.378906-2.0625-10.636718-.03125l-62.9375 39.285156c-.792969-33.425781-6.460938-65.445312-16.4375-93.707031l53.015625-29.25c4.609375-2.542969 6.457031-8.226562 4.226562-12.996094l-16.28125-34.78125 37.351563-57.253906c3.015625-4.625 1.710937-10.824219-2.914063-13.839844-4.628906-3.019531-10.820312-1.714844-13.835937 2.910156l-40.394532 61.921876c-1.890624 2.894531-2.148437 6.566406-.679687 9.703124l14.671875 31.34375-42.652344 23.535157c-3.1875-7.078125-6.664062-13.851563-10.441406-20.265625-18.398438-31.265625-41.96875-51.382813-67.820312-58.386719 19.839843-31.652344 50.734374-55.714844 86.539062-66.957031l18.757812-5.890625c5.269532-1.652344 8.199219-7.265625 6.542969-12.535157-1.652343-5.269531-7.269531-8.195312-12.535156-6.546874l-18.757813 5.890624c-42.664062 13.394532-79.152343 42.941407-101.25 81.683594-22.09375-38.742187-58.582031-68.289062-101.246093-81.683594l-18.753907-5.890624c-5.273437-1.652344-10.882812 1.277343-12.539062 6.546874-1.652344 5.269532 1.277344 10.878907 6.546875 12.535157l18.757813 5.890625c35.804687 11.238281 66.699218 35.300781 86.539062 66.957031-25.851562 7.003906-49.421875 27.121094-67.824219 58.386719-3.773437 6.414062-7.253906 13.1875-10.441406 20.261718l-42.652344-23.53125 14.675781-31.347656c1.46875-3.132812 1.210938-6.804687-.679687-9.703125l-40.394531-61.917969c-3.015625-4.625-9.210938-5.929687-13.839844-2.910156-4.625 3.015625-5.925781 9.210938-2.910156 13.835938l37.351562 57.257812-16.28125 34.78125c-2.234375 4.769532-.386718 10.453125 4.226563 12.996094l53.011719 29.25c-9.972657 28.261719-15.640626 60.28125-16.4375 93.707031l-62.933594-39.285156c-3.257813-2.035156-7.394532-2.019531-10.640625.03125-3.246094 2.050781-5.027344 5.78125-4.589844 9.597656l9.230469 80.0625-19.742188-6.433593c-5.246094-1.710938-10.894531 1.160156-12.601562 6.410156-1.710938 5.25 1.15625 10.894531 6.410156 12.605468l34.554688 11.261719c1.011718.328125 2.058593.492188 3.097656.492188 2.273437 0 4.519531-.777344 6.328125-2.257813 2.636719-2.15625 3.996093-5.507812 3.605469-8.890625l-8.636719-74.925781 56.171875 35.0625c.792968 17.382812 2.914062 34.328125 6.273437 50.503906l-19.449219 27.703125c-1.632812 2.328125-2.199218 5.238281-1.558593 8.007813l15.492187 66.78125-81.46875 18.589844c-2.65625.605468-4.953125 2.269531-6.351562 4.605468-1.402344 2.339844-1.789063 5.144532-1.074219 7.773438l3.675781 13.476562c1.214844 4.445313 5.242188 7.371094 9.644532 7.371094.871093 0 1.753906-.117188 2.636718-.355469 5.328125-1.453125 8.46875-6.949219 7.015625-12.277343l-.929687-3.414063 81.089844-18.503906c2.589843-.589844 4.839843-2.191407 6.25-4.441407 1.410156-2.253906 1.867187-4.976562 1.265624-7.566406l-16.75-72.207031 7.039063-10.03125c5.5 17.914063 12.644531 34.519531 21.316406 49.253906 23.214844 39.445313 54.652344 61.167969 88.519531 61.167969 33.871094 0 65.308594-21.722656 88.523438-61.167969 8.671875-14.734375 15.816406-31.339843 21.316406-49.253906l7.039063 10.03125-16.75 72.207031c-.601563 2.589844-.144531 5.3125 1.265625 7.566406 1.410156 2.25 3.660156 3.851563 6.25 4.441407l81.089844 18.503906-.929688 3.414063c-1.453125 5.328124 1.6875 10.824218 7.015625 12.277343.882813.238281 1.765625.355469 2.636719.355469 4.398437 0 8.429687-2.925781 9.644531-7.371094l3.675781-13.476562c.714844-2.628906.328125-5.4375-1.074218-7.773438-1.398438-2.335937-3.695313-4-6.351563-4.605468l-81.472656-18.589844 15.496093-66.78125c.640626-2.769532.074219-5.679688-1.558593-8.007813l-19.449219-27.699219c3.359375-16.175781 5.480469-33.125 6.273438-50.503906l56.175781-35.0625-8.636719 74.925782c-.390625 3.382812.96875 6.730468 3.601562 8.886718 1.8125 1.480469 4.054688 2.257813 6.332032 2.257813 1.039062 0 2.082031-.160157 3.097656-.492188l34.554688-11.257812c5.25-1.710938 8.121093-7.355469 6.410156-12.609375zm-224.175782-224.226563c26.496094 0 51.8125 18.21875 71.285157 51.308594 1.359375 2.308594 2.675781 4.671875 3.953125 7.082031-42.035156 40.050782-108.4375 40.050782-150.472656 0 1.277343-2.410156 2.59375-4.773437 3.949218-7.082031 19.476563-33.085937 44.792969-51.308594 71.285156-51.308594zm71.285157 312.703125c-19.472657 33.085938-44.789063 51.308594-71.285157 51.308594-26.492187 0-51.808593-18.222656-71.28125-51.308594-20.453124-34.753906-31.714843-81.167968-31.714843-130.699218 0-36.984376 6.28125-72.226563 17.976562-102.179688.207031-.4375.390625-.882812.53125-1.332031.144531-.371094.296875-.738281.445313-1.105469 21.414062 18.386719 47.46875 28.597656 74.042968 30.644531v185.980469c0 5.523438 4.480469 10 10 10 5.523438 0 10-4.476562 10-10v-185.980469c26.574219-2.046875 52.632813-12.257812 74.042969-30.648437.152344.371094.300781.738281.449219 1.105468.136719.453126.320312.898438.527344 1.339844 11.695312 29.949219 17.980468 65.191406 17.980468 102.175782 0 49.53125-11.261718 95.945312-31.714843 130.699218zm0 0"/></svg>