<?xml version="1.0" encoding="iso-8859-1"?>
<!-- Generator: Adobe Illustrator 19.0.0, SVG Export Plug-In . SVG Version: 6.00 Build 0)  -->
<svg version="1.1" id="Capa_1" xmlns="http://www.w3.org/2000/svg" xmlns:xlink="http://www.w3.org/1999/xlink" x="0px" y="0px"
	 viewBox="0 0 511.999 511.999" style="enable-background:new 0 0 511.999 511.999;" xml:space="preserve">
<g>
	<g>
		<path d="M511.982,448.003c-0.004-0.128-0.01-0.255-0.02-0.383c-0.023-0.332-0.063-0.658-0.117-0.979
			c-0.013-0.072-0.02-0.144-0.033-0.215c-0.079-0.409-0.184-0.809-0.31-1.198c-0.02-0.06-0.045-0.118-0.066-0.178
			c-0.116-0.335-0.251-0.662-0.401-0.98c-0.04-0.085-0.08-0.17-0.122-0.253c-0.191-0.377-0.398-0.745-0.634-1.092l-35.588-52.698
			c2.232-2.193,4.185-4.724,5.766-7.578c6.049-10.917,5.584-24.471-1.206-35.403l-65.267-109.297
			c-1.007-1.685-1.997-3.427-3.045-5.271c-5.544-9.752-12.19-21.439-23.516-26.477c-0.021-0.889-0.041-1.77-0.061-2.64
			c-0.383-16.698-0.66-28.763-9.971-34.963c-8.115-5.402-18.445-2.462-26.539,0.705l-96.449,37.731l-92.153-37.382
			c-9.544-3.872-17.747-3.587-24.384,0.847c-9.61,6.419-12.47,19.558-13.253,34.019c-14.203,3.254-21.818,16.343-28.097,27.144
			c-1.25,2.15-2.43,4.181-3.641,6.121L29.117,339.77c-10.907,17.482-6.523,30.931-2.94,37.391c1.566,2.823,3.586,5.415,5.949,7.72
			L1.214,443.554c-0.006,0.01-0.011,0.021-0.017,0.031l-0.045,0.085c-0.018,0.035-0.03,0.073-0.049,0.108
			c-0.158,0.308-0.299,0.626-0.424,0.952c-0.037,0.094-0.07,0.188-0.104,0.283c-0.104,0.295-0.194,0.596-0.271,0.904
			c-0.021,0.084-0.046,0.167-0.065,0.252c-0.085,0.382-0.151,0.771-0.191,1.168c-0.003,0.037-0.002,0.073-0.005,0.11
			C0.02,447.74,0,448.034,0,448.332v35.86c0,5.523,4.477,10,10,10h491.999c5.523,0,10-4.477,10-10v-35.86
			C511.999,448.221,511.986,448.114,511.982,448.003z M483.179,438.332H283.555c24.645-9.277,62.695-24.877,84.305-33.968
			l1.712-0.719c8.109-3.399,13.004-5.452,16.468-10.001c1.516-1.991,2.454-4.097,3.033-6.326l51.967,10.567
			c3.516,0.972,7.033,1.465,10.463,1.465c1.73,0,3.429-0.139,5.093-0.385L483.179,438.332z M378.05,326.345
			c0.003,0,0.006,0.001,0.01,0.001l0.002,0.001l28.521,5.764c0.669,0.135,1.335,0.2,1.992,0.2c4.66,0,8.832-3.276,9.791-8.021
			c1.094-5.414-2.407-10.689-7.82-11.783l-20.484-4.14l0.063-28.761c0-0.132-0.002-0.265-0.007-0.397l-1.707-45.47
			c1.625,2.506,3.311,5.403,5.142,8.624c1.054,1.854,2.145,3.771,3.26,5.64l65.315,109.377c0.035,0.059,0.071,0.117,0.107,0.175
			c3.038,4.858,3.31,10.54,0.728,15.201c-2.322,4.191-6.5,6.595-11.461,6.595c-1.693,0-3.493-0.27-5.35-0.803
			c-0.253-0.073-0.508-0.135-0.767-0.188l-63.368-12.885c-0.028-0.006-0.057-0.012-0.086-0.018l-38.227-7.773
			c-10.458-2.126-15.013-12.349-14.107-21.348c0.473-4.697,3.184-15.624,18.107-15.624c1.178,0,2.415,0.071,3.684,0.211
			L378.05,326.345z M144.349,213.804c0.168-22.181,3.584-26.178,4.627-26.874c0.33-0.22,2.009-0.465,5.757,1.056l95.845,38.879
			c1.205,0.489,2.481,0.733,3.759,0.733c1.235,0,2.472-0.229,3.644-0.688l100.16-39.182c4.264-1.668,6.68-2.161,7.905-2.294
			c0.978,3.341,1.167,11.599,1.323,18.386c0.05,2.175,0.105,4.562,0.182,7.062l-42.216,13.974
			c-5.243,1.736-8.086,7.393-6.351,12.636c1.39,4.2,5.297,6.86,9.491,6.86c1.042,0,2.102-0.164,3.145-0.509l36.7-12.148
			l0.849,22.616l-40.884,13.532c-5.243,1.735-8.086,7.393-6.351,12.636c1.39,4.2,5.297,6.861,9.491,6.861
			c1.042,0,2.102-0.164,3.145-0.509l35.38-11.71l0.175,4.644l-0.054,24.55l-15.113-3.073c-0.263-0.054-0.527-0.096-0.793-0.128
			c-2.193-0.265-4.366-0.399-6.459-0.399c-23.918,0-36.323,16.886-38.007,33.621c-1.762,17.504,8.162,38.504,30.022,42.949
			l27.528,5.598c-1.569,0.708-3.501,1.52-5.41,2.32l-1.734,0.728c-23.815,10.018-67.71,27.989-91.025,36.436
			c-15.1,5.471-15.1,5.472-28.807,1.189c-24.163-7.551-67.844-23.067-86.497-29.692c-2.556-0.907-4.789-1.545-6.583-2.058
			c-0.83-0.237-1.781-0.509-2.522-0.748c-0.058-0.542-0.106-1.318-0.113-2.395l-0.04-6.401l25.914-4.585
			c21.735-3.846,31.797-24.904,30.229-42.767c-1.433-16.321-13.071-32.79-35.843-32.79c-2.921,0-5.99,0.281-9.121,0.835
			l-11.669,2.065l-0.17-26.676L144.349,213.804z M46.086,350.357l63.759-102.187c1.376-2.205,2.691-4.468,3.963-6.657
			c4.15-7.139,7.262-12.071,10.442-14.935l-0.394,51.684v0.14l0.19,30.071l-29.255,4.959c-5.445,0.923-9.111,6.085-8.188,11.531
			c0.827,4.88,5.059,8.33,9.848,8.33c0.555,0,1.117-0.046,1.683-0.142l61.046-10.504c1.984-0.351,3.88-0.529,5.637-0.529
			c12.74,0,15.442,9.109,15.919,14.539c0.792,9.014-3.772,19.551-13.789,21.323L62.758,376.108c-0.767,0.109-1.57,0.164-2.392,0.164
			c-6.843,0-13.866-3.706-16.699-8.813C41.09,362.813,41.903,357.06,46.086,350.357z M49.527,394.762
			c3.506,0.976,7.158,1.51,10.839,1.51c1.841,0,3.671-0.134,5.44-0.397c0.075-0.011,0.15-0.023,0.226-0.036l58.505-10.095
			l0.02,3.044c0.104,16.074,7.824,19.585,17.143,22.247c1.683,0.48,3.422,0.978,5.383,1.674
			c15.702,5.577,49.034,17.416,73.869,25.624H26.571L49.527,394.762z M491.999,474.192H20v-15.86h471.999V474.192z"/>
	</g>
</g>
<g>
	<g>
		<path d="M338.6,86.211c0-0.001-0.001-0.001-0.001-0.002c-7.476-39.664-42.195-68.402-82.597-68.402h-0.193
			c-37.536,0.084-70.765,25.377-80.807,61.506c-0.001,0.002-0.001,0.005-0.002,0.007c-2.048,7.372-3.077,15.021-3.06,22.734
			c0.107,46.244,37.813,83.867,84.056,83.869h0.192c46.35-0.105,83.973-37.899,83.869-84.249
			C340.045,96.479,339.555,91.276,338.6,86.211z M255.855,37.807c0.051,0,0.097-0.001,0.148-0.001
			c28.211,0,52.777,18.388,61.074,44.709c-6.422,2.359-15.384,4.257-26.061,4.257c-11.156,0-32.205-2.286-47.835-17.594
			c-2.249-2.203-5.402-3.216-8.518-2.74c-3.112,0.479-5.817,2.395-7.301,5.173c-3.697,6.923-8.31,10.011-14.955,10.011
			c-4.559,0-9.954-1.485-15.618-4.245C206.557,53.799,229.847,37.865,255.855,37.807z M256.144,165.923h-0.147
			c-35.24-0.001-63.975-28.673-64.055-63.913c-0.004-1.608,0.052-3.21,0.167-4.806c7.026,2.911,13.896,4.418,20.299,4.418
			c7.559,0,17.354-2.102,25.607-10.76c14.439,10.325,32.854,15.91,53.001,15.91c10.19,0,20.3-1.49,29.038-4.166
			C319.657,137.522,291.17,165.844,256.144,165.923z"/>
	</g>
</g>
<g>
	<g>
		<path d="M233.726,242.122l-54.538-21.161c-3.076-1.194-6.543-0.794-9.267,1.071c-2.723,1.864-4.351,4.952-4.351,8.251v51.057
			c0.001,4.129,2.536,7.832,6.384,9.324l54.538,21.161c1.17,0.454,2.395,0.677,3.616,0.677c1.989,0,3.963-0.593,5.65-1.748
			c2.723-1.864,4.351-4.952,4.351-8.252v-51.057C240.109,247.318,237.574,243.615,233.726,242.122z M220.109,287.897l-34.538-13.401
			v-29.604l34.538,13.401V287.897z"/>
	</g>
</g>
<g>
	<g>
		<path d="M306.267,241.689c-1.741-5.243-7.406-8.074-12.643-6.337l-0.585,0.194c-5.241,1.741-8.079,7.402-6.338,12.643
			c1.394,4.195,5.298,6.85,9.489,6.85c1.046,0,2.108-0.166,3.154-0.513l0.585-0.194C305.17,252.591,308.008,246.93,306.267,241.689z
			"/>
	</g>
</g>
<g>
</g>
<g>
</g>
<g>
</g>
<g>
</g>
<g>
</g>
<g>
</g>
<g>
</g>
<g>
</g>
<g>
</g>
<g>
</g>
<g>
</g>
<g>
</g>
<g>
</g>
<g>
</g>
<g>
</g>
</svg>
