<?xml version="1.0" encoding="iso-8859-1"?>
<!-- Generator: Adobe Illustrator 19.0.0, SVG Export Plug-In . SVG Version: 6.00 Build 0)  -->
<svg version="1.1" id="Capa_1" xmlns="http://www.w3.org/2000/svg" xmlns:xlink="http://www.w3.org/1999/xlink" x="0px" y="0px"
	 viewBox="0 0 511.999 511.999" style="enable-background:new 0 0 511.999 511.999;" xml:space="preserve">
<g>
	<g>
		<path d="M120.016,48.972H20.003C8.973,48.972,0,57.945,0,68.975v374.05c0,11.029,8.973,20.003,20.003,20.003h100.013
			c11.029,0,20.003-8.973,20.003-20.003V68.975C140.019,57.945,131.045,48.972,120.016,48.972z M120.016,98.373H94.01
			c-5.523,0-10.001,4.479-10.001,10.001c0,5.523,4.479,10.001,10.001,10.001h26.005v29.197h-6.802
			c-5.523,0-10.001,4.479-10.001,10.001c0,5.523,4.479,10.001,10.001,10.001h6.802v29.133h-6.802
			c-5.523,0-10.001,4.479-10.001,10.001c0,5.523,4.479,10.001,10.001,10.001h6.802v29.196H94.01
			c-5.523,0-10.001,4.479-10.001,10.001c0,5.523,4.479,10.001,10.001,10.001h26.005v29.196h-6.802
			c-5.523,0-10.001,4.479-10.001,10.001c0,5.523,4.479,10.001,10.001,10.001h6.802v29.261h-6.802
			c-5.523,0-10.001,4.479-10.001,10.001c0,5.523,4.479,10.001,10.001,10.001h6.802v29.197H94.01
			c-5.523,0-10.001,4.479-10.001,10.001c0,5.523,4.479,10.001,10.001,10.001h26.005v29.452H20.003v0.002L19.99,68.976
			c0-0.001,0.004-0.001,0.013-0.001h100.013V98.373z"/>
	</g>
</g>
<g>
	<g>
		<path d="M465.034,327.787c-4.882-2.587-10.935-0.728-13.521,4.154l-0.174,0.331c-2.566,4.892-0.683,10.937,4.209,13.503
			c1.483,0.778,3.071,1.147,4.639,1.147c3.599,0,7.077-1.948,8.864-5.356l0.137-0.259
			C471.774,336.427,469.914,330.375,465.034,327.787z"/>
	</g>
</g>
<g>
	<g>
		<path d="M472.91,120.189c-30.82-24.374-65.736-28.43-100.97-11.722c-9.946,4.717-18.534,10.456-25.37,15.77
			c1.574-2.888,3.568-5.57,5.959-7.96c3.906-3.906,3.906-10.238,0-14.145c-3.906-3.905-10.237-3.905-14.145,0
			c-6.094,6.095-10.557,13.381-13.204,21.326c-6.666-5.092-14.889-10.503-24.352-14.991c-35.236-16.707-70.15-12.653-100.97,11.722
			c-18.772,14.847-30.947,34.2-36.188,57.527c-4.249,18.915-3.922,40.604,0.971,64.468c8.522,41.555,28.525,79.418,38.139,97.614
			l0.791,1.496c19.81,37.541,43.06,72.281,78.75,72.281c20.579,0,32.087-7.247,40.489-12.539c5.86-3.69,9.123-5.616,13.617-5.616
			c4.404,0,7.667,1.926,13.528,5.616c8.402,5.292,19.911,12.539,40.489,12.539c21.265,0,40.471-12.626,58.717-38.599
			c3.175-4.52,2.085-10.757-2.435-13.933c-4.519-3.175-10.757-2.084-13.933,2.435c-14.226,20.25-28.078,30.094-42.35,30.094
			c-14.806,0-22.105-4.597-29.831-9.462c-6.471-4.074-13.805-8.692-24.276-8.692c-10.382,0-17.716,4.619-24.187,8.692
			c-7.727,4.866-15.024,9.462-29.83,9.462c-25.09,0-44.175-29.612-61.06-61.612l-0.796-1.505
			c-9.18-17.376-28.283-53.531-36.23-92.287c-9.38-45.744,0.05-80.158,28.029-102.286c24.636-19.483,51.371-22.707,79.465-9.585
			c15.743,7.353,27.795,18.02,33.467,23.597c0.015,0.016,0.029,0.033,0.044,0.048c-8.052,31.016,0.716,63.702,23.608,86.594
			c17.305,17.304,40.204,26.54,63.749,26.54c9.629,0,19.368-1.545,28.874-4.716c2.985-0.995,5.329-3.338,6.324-6.324
			c10.919-32.75,2.557-68.241-21.825-92.623c-15.719-15.719-36.058-24.768-57.301-26.295c3.791-2.411,7.929-4.749,12.366-6.821
			c28.096-13.122,54.832-9.897,79.465,9.585c23.275,18.407,33.504,44.175,31.273,78.774c-1.607,24.917-9.888,53.858-24.612,86.017
			c-2.299,5.022-0.092,10.957,4.931,13.258c5.022,2.296,10.957,0.093,13.258-4.931C524.705,223.039,520.402,157.751,472.91,120.189z
			 M364.737,224.073c-0.589-0.551-1.171-1.112-1.744-1.685c-14.816-14.815-22.028-34.903-20.446-55.135l22.19,22.19V224.073z
			 M384.59,237.167c0.092-0.544,0.151-1.1,0.151-1.67v-26.05l33.386,33.386C406.582,243.735,395.087,241.773,384.59,237.167z
			 M426.673,195.303c4.559,10.456,6.499,21.897,5.6,33.387l-33.387-33.387H426.673z M411.827,173.554
			c0.574,0.574,1.135,1.156,1.686,1.745h-34.631l-22.19-22.19C376.924,151.528,397.011,158.738,411.827,173.554z"/>
	</g>
</g>
<g>
	<g>
		<path d="M173.69,393.57h-9.501c-5.523,0-10.001,4.479-10.001,10.001c0,5.523,4.479,10.001,10.001,10.001h9.501
			c5.523,0,10.001-4.479,10.001-10.001C183.691,398.049,179.213,393.57,173.69,393.57z"/>
	</g>
</g>
<g>
	<g>
		<path d="M173.69,98.373h-9.501c-5.523,0-10.001,4.479-10.001,10.001c0,5.523,4.479,10.001,10.001,10.001h9.501
			c5.523,0,10.001-4.479,10.001-10.001C183.691,102.851,179.213,98.373,173.69,98.373z"/>
	</g>
</g>
<g>
	<g>
		<path d="M218.362,393.57h-9.501c-5.523,0-10.001,4.479-10.001,10.001c0,5.523,4.479,10.001,10.001,10.001h9.501
			c5.523,0,10.001-4.479,10.001-10.001C228.363,398.049,223.885,393.57,218.362,393.57z"/>
	</g>
</g>
<g>
	<g>
		<path d="M50.007,147.573c-5.523,0-10.001,4.479-10.001,10.001v107.426c0,5.523,4.479,10.001,10.001,10.001
			c5.523,0,10.001-4.479,10.001-10.001V157.575C60.008,152.051,55.529,147.573,50.007,147.573z"/>
	</g>
</g>
<g>
	<g>
		<path d="M57.077,295.935c-1.859-1.861-4.44-2.93-7.07-2.93c-2.63,0-5.211,1.069-7.071,2.93c-1.86,1.861-2.93,4.441-2.93,7.071
			s1.069,5.211,2.93,7.07c1.86,1.86,4.441,2.931,7.071,2.931c2.63,0,5.211-1.07,7.07-2.931c1.86-1.859,2.931-4.44,2.931-7.07
			S58.938,297.795,57.077,295.935z"/>
	</g>
</g>
<g>
</g>
<g>
</g>
<g>
</g>
<g>
</g>
<g>
</g>
<g>
</g>
<g>
</g>
<g>
</g>
<g>
</g>
<g>
</g>
<g>
</g>
<g>
</g>
<g>
</g>
<g>
</g>
<g>
</g>
</svg>
