<svg height="512pt" viewBox="-46 0 511 512" width="512pt" xmlns="http://www.w3.org/2000/svg"><path d="m124.492188 309.265625-6.601563 11.433594c-4.589844 6.910156-7.015625 14.949219-7.015625 23.273437 0 23.203125 18.878906 42.082032 42.085938 42.082032h39.074218l-5.941406 10.289062c-2.761719 4.785156-1.121094 10.898438 3.660156 13.660156 1.574219.910156 3.292969 1.34375 4.992188 1.34375 3.457031 0 6.816406-1.792968 8.667968-5.003906l14.601563-25.289062c1.785156-3.09375 1.785156-6.90625 0-10l-14.601563-25.285157c-2.761718-4.785156-8.875-6.421875-13.660156-3.660156-4.78125 2.761719-6.421875 8.875-3.660156 13.660156l5.941406 10.285157h-39.074218c-12.175782 0-22.085938-9.90625-22.085938-22.082032 0-4.441406 1.308594-8.71875 3.789062-12.375.132813-.199218.257813-.402344.378907-.605468l6.769531-11.726563c2.761719-4.78125 1.125-10.898437-3.660156-13.660156-4.78125-2.761719-10.898438-1.125-13.660156 3.660156zm0 0"/><path d="m306.824219 279.164062c0-5.519531-4.476563-10-10-10h-29.199219c-3.574219 0-6.875 1.90625-8.660156 5l-14.601563 25.289063c-2.761719 4.78125-1.121093 10.898437 3.660157 13.660156 4.785156 2.761719 10.898437 1.121094 13.660156-3.660156l5.941406-10.289063 19.535156 33.839844c2.949219 5.105469 3.734375 11.058594 2.207032 16.757813-1.527344 5.699219-5.183594 10.460937-10.292969 13.414062-3.839844 2.21875-8.199219 3.222657-12.609375 2.902344-.234375-.015625-.476563-.023437-.714844-.023437 0 0 0 0-.003906 0l-13.535156.003906c-5.523438 0-10 4.476562-10 10 0 5.523437 4.480468 10 10.003906 10l13.199218-.003906c.886719.054687 1.773438.082031 2.65625.082031 7.367188 0 14.570313-1.925781 21.003907-5.644531 9.738281-5.621094 16.699219-14.695313 19.609375-25.554688s1.417968-22.199219-4.203125-31.933594l-19.539063-33.839844h11.882813c5.523437 0 10-4.476562 10-10zm0 0"/><path d="m246.09375 225.925781c-3.6875-7.429687-9.4375-13.546875-16.644531-17.710937-20.097657-11.601563-45.886719-4.691406-57.492188 15.402344l-19.535156 33.839843-5.941406-10.285156c-2.761719-4.785156-8.875-6.425781-13.660157-3.660156-4.78125 2.761719-6.417968 8.875-3.660156 13.660156l14.601563 25.285156c1.785156 3.09375 5.085937 5 8.660156 5h29.199219c5.523437 0 10-4.476562 10-10 0-5.519531-4.476563-10-10-10h-11.878906l19.535156-33.839843c6.089844-10.542969 19.625-14.167969 30.171875-8.082032 3.839843 2.21875 6.890625 5.492188 8.824219 9.46875.101562.214844.214843.425782.335937.632813l6.769531 11.722656c2.761719 4.78125 8.875 6.421875 13.660156 3.660156 4.78125-2.761719 6.421876-8.878906 3.65625-13.664062zm0 0"/><path d="m420.421875 440.003906-9.519531-191.527344c-1.960938-39.4375-19.070313-76.214843-48.171875-103.558593-21.257813-19.972657-47.53125-33.476563-76.121094-39.472657 7.503906-22.019531 20.808594-69.476562 5.476563-92.539062-5.617188-8.441406-14.339844-12.90625-25.230469-12.90625-8.734375 0-19.183594 1.769531-29.289063 3.484375-9.59375 1.625-19.515625 3.304687-27.066406 3.304687s-17.472656-1.679687-27.066406-3.304687c-10.105469-1.714844-20.554688-3.484375-29.289063-3.484375-10.890625 0-19.617187 4.464844-25.230469 12.90625-15.332031 23.058594-2.03125 70.507812 5.472657 92.53125-9.941407 2.085938-19.640625 5.082031-29.023438 9.003906-5.097656 2.128906-7.5 7.988282-5.371093 13.082032 2.128906 5.097656 7.988281 7.5 13.082031 5.371093 17.433593-7.285156 36.117187-10.980469 55.535156-10.980469h18.3125c.027344 0 .050781.003907.074219.003907.027344 0 .050781-.003907.078125-.003907h46.851562c.027344 0 .054688.003907.078125.003907.027344 0 .050782-.003907.074219-.003907h18.3125c74.128906 0 134.980469 56.03125 138.535156 127.554688l9.523438 191.527344c.585937 11.800781-3.976563 23.429687-12.84375 32.75-11.039063 11.601562-27.007813 18.253906-43.816407 18.253906-21.359374 0-41.628906-4.507812-63.089843-9.277344-22.230469-4.941406-45.214844-10.050781-70.199219-10.050781s-47.972656 5.109375-70.199219 10.050781c-21.460937 4.769532-41.730469 9.277344-63.09375 9.277344-16.804687 0-32.773437-6.652344-43.8125-18.253906-8.867187-9.320313-13.429687-20.949219-12.84375-32.75l9.523438-191.527344c1.085937-21.867188 7.730469-43.339844 19.210937-62.105469 2.882813-4.710937 1.402344-10.863281-3.308594-13.746093-4.710937-2.886719-10.867187-1.402344-13.75 3.308593-13.226562 21.609375-20.875 46.351563-22.128906 71.550781l-9.523437 191.527344c-.859375 17.324219 5.648437 34.203125 18.332031 47.53125 14.792969 15.546875 36.046875 24.464844 58.300781 24.464844 23.558594 0 45.863281-4.957031 67.433594-9.753906 21.175781-4.707032 43.070313-9.574219 65.859375-9.574219s44.683594 4.867187 65.859375 9.574219c21.570313 4.796875 43.875 9.753906 67.429687 9.753906 22.257813 0 43.511719-8.917969 58.304688-24.46875 12.683594-13.324219 19.191406-30.207031 18.328125-47.527344zm-173.378906-338.089844c3.765625-16.007812 6.226562-33.082031 6.359375-33.996093.78125-5.46875-3.019532-10.53125-8.484375-11.3125-5.460938-.78125-10.535157 3.015625-11.3125 8.484375-.035157.234375-2.988281 20.695312-7.15625 36.824218h-31.898438c-4.167969-16.128906-7.117187-36.589843-7.152343-36.824218-.78125-5.46875-5.851563-9.265625-11.316407-8.484375-5.464843.78125-9.265625 5.84375-8.480469 11.3125.128907.914062 2.589844 17.988281 6.355469 33.996093h-5.347656c-4.753906 0-9.464844.210938-14.140625.597657-3.234375-8.949219-7.472656-22.609375-10.183594-37.144531-3.652344-19.582032-3.183594-34.667969 1.285156-41.386719 1.308594-1.96875 3.351563-3.980469 8.578126-3.980469 7.050781 0 16.65625 1.628906 25.945312 3.203125 10.410156 1.765625 21.175781 3.585937 30.40625 3.585937 9.234375 0 20-1.820312 30.410156-3.585937 9.289063-1.574219 18.894532-3.203125 25.945313-3.203125 5.226562 0 7.269531 2.011719 8.578125 3.980469 4.46875 6.71875 4.933594 21.804687 1.285156 41.386719-2.710938 14.535156-6.949219 28.199218-10.1875 37.152343-4.671875-.394531-9.386719-.605469-14.136719-.605469zm0 0"/><path d="m296.3125 455.617188c-1.058594 5.417968 2.480469 10.671874 7.902344 11.726562 2.304687.449219 4.621094.886719 6.960937 1.3125 12.621094 2.28125 22.984375 3.34375 32.613281 3.34375 5.523438 0 10-4.476562 10-10s-4.476562-10-10-10c-8.40625 0-17.640624-.960938-29.054687-3.023438-2.25-.40625-4.480469-.828124-6.691406-1.261718-5.417969-1.054688-10.671875 2.480468-11.730469 7.902344zm0 0"/><path d="m263.484375 438.417969c-5.46875-.78125-10.53125 3.019531-11.3125 8.484375-.777344 5.46875 3.023437 10.53125 8.488281 11.3125.480469.070312.957032.101562 1.429688.101562 4.894531 0 9.171875-3.597656 9.886718-8.585937.78125-5.464844-3.019531-10.53125-8.484374-11.3125zm0 0"/><path d="m70.527344 157.375c2.402344 0 4.8125-.859375 6.726562-2.601562 4.085938-3.714844 4.390625-10.039063.671875-14.128907-3.714843-4.085937-10.039062-4.386719-14.125-.671875l-.003906.003906c-4.085937 3.714844-4.386719 10.039063-.671875 14.125 1.972656 2.171876 4.683594 3.273438 7.402344 3.273438zm0 0"/></svg>