<svg height="512pt" viewBox="0 0 512 512" width="512pt" xmlns="http://www.w3.org/2000/svg"><path d="m497.628906 124.972656-27.40625-26.199218c5.347656-7.339844 8.234375-16.160157 8.234375-25.433594 0-11.566406-4.492187-22.433594-12.65625-30.597656-15.71875-15.714844-40.609375-16.792969-57.585937-3.238282l-38.867188-36.777344c-3.933594-3.710937-10.105468-3.621093-13.933594.203126l-93.816406 93.816406c-3.824218 3.824218-3.917968 9.996094-.207031 13.933594l49.402344 52.066406-31.085938 2.113281c-5.167969.347656-9.210937 4.585937-9.320312 9.765625l-.511719 24.113281c-.101562 4.859375 3.300781 9.085938 8.066406 10.023438l94.652344 18.636719 11.046875 11.554687c1.859375 1.945313 4.425781 3.0625 7.117187 3.089844h.109376c2.652343 0 5.195312-1.050781 7.074218-2.925781l99.84375-99.84375c1.902344-1.90625 2.960938-4.496094 2.929688-7.1875-.03125-2.6875-1.144532-5.253907-3.085938-7.113282zm-45.972656-68.089844c4.386719 4.386719 6.800781 10.230469 6.800781 16.457032 0 4.054687-1.023437 7.945312-2.945312 11.375l-32.589844-31.152344c8.976563-5.570312 20.949219-4.464844 28.734375 3.320312zm-88.964844-32.945312 14.410156 13.59375-80.90625 80.902344-13.589843-14.410156zm-72.640625 166.824219.136719-6.570313 38.597656-2.621094 19.808594 20.71875zm100.980469 26.980469-81.058594-84.800782 81.640625-81.636718 84.800781 81.054687zm0 0"/><path d="m90.320312 471.988281c-.648437 0-1.308593-.070312-1.960937-.199219-.628906-.121093-1.257813-.320312-1.871094-.570312-.597656-.25-1.179687-.550781-1.71875-.921875-.550781-.359375-1.058593-.777344-1.519531-1.238281-.460938-.460938-.878906-.972656-1.25-1.519532-.359375-.542968-.671875-1.121093-.921875-1.722656-.25-.609375-.4375-1.238281-.566406-1.871094-.132813-.648437-.191407-1.308593-.191407-1.957031 0-.652343.058594-1.3125.191407-1.949219.128906-.640624.316406-1.273437.566406-1.871093.25-.609375.5625-1.191407.921875-1.730469.371094-.550781.789062-1.058594 1.25-1.519531.460938-.460938.96875-.878907 1.519531-1.242188.539063-.359375 1.121094-.667969 1.71875-.917969.613281-.25 1.242188-.441406 1.871094-.570312 1.289063-.261719 2.621094-.261719 3.910156 0 .640625.128906 1.269531.320312 1.871094.570312.609375.25 1.1875.558594 1.730469.917969.550781.363281 1.058594.78125 1.519531 1.242188.460937.460937.878906.96875 1.238281 1.519531.359375.539062.671875 1.121094.921875 1.730469.25.601562.4375 1.230469.570313 1.871093.128906.636719.199218 1.296876.199218 1.949219 0 .648438-.070312 1.308594-.199218 1.957031-.132813.632813-.320313 1.261719-.570313 1.871094-.25.601563-.5625 1.179688-.921875 1.722656-.359375.546876-.777344 1.058594-1.238281 1.519532-.460937.460937-.96875.878906-1.519531 1.238281-.542969.371094-1.121094.671875-1.730469.921875-.601563.25-1.230469.449219-1.871094.570312-.640625.128907-1.300781.199219-1.949219.199219zm0 0"/><path d="m505.351562 458.9375c-8.976562-28.019531-26.277343-52.136719-50.023437-69.746094-21.789063-16.152344-47.269531-25.460937-74.175781-27.171875 13.308594-20.167969 7.429687-49.6875 6.636718-53.316406-.832031-3.816406-3.816406-6.800781-7.636718-7.636719-4.015625-.878906-39.824219-8-59.472656 11.648438-1.296876 1.300781-2.480469 2.667968-3.550782 4.089844-1.074218-1.421876-2.257812-2.789063-3.554687-4.089844-19.648438-19.648438-55.457031-12.527344-59.472657-11.648438-3.820312.835938-6.804687 3.816406-7.636718 7.636719-.789063 3.613281-6.617188 32.867187 6.449218 53.027344h-53.457031c13.0625-20.160157 7.234375-49.417969 6.449219-53.027344-.835938-3.816406-3.816406-6.800781-7.640625-7.636719-4.015625-.878906-39.820313-8-59.472656 11.648438-1.296875 1.300781-2.476563 2.667968-3.550781 4.089844-1.074219-1.421876-2.253907-2.789063-3.550782-4.089844-19.652344-19.648438-55.457031-12.527344-59.472656-11.648438-3.820312.835938-6.804688 3.816406-7.640625 7.636719-.789063 3.613281-6.613281 32.867187 6.449219 53.027344h-61.027344c-5.523438 0-10 4.476562-10 10v129.945312c0 5.523438 4.476562 10 10 10h492c5.523438 0 10-4.476562 10-10 0-14.585937-2.238281-28.964843-6.648438-42.738281zm-170.53125-132.078125c8.058594-8.058594 24.140626-8.34375 34.433594-7.261719 1.035156 10.164063.769532 26.410156-7.257812 34.4375-5.648438 5.652344-15.253906 7.480469-24.03125 7.695313h-3.683594c-2.394531-.058594-4.667969-.21875-6.714844-.433594-.191406-1.882813-.339844-3.972656-.402344-6.179687.042969-1.515626.050782-3.09375.011719-4.71875.28125-8.636719 2.132813-18.027344 7.644531-23.539063zm-69.824218-7.253906c10.160156-1.039063 26.414062-.773438 34.4375 7.253906 5.4375 5.433594 7.335937 14.519531 7.664062 23.015625-.058594 1.949219-.050781 3.832031.003906 5.628906-.070312 2.054688-.21875 4.003906-.402343 5.785156-10.167969 1.039063-26.414063.773438-34.441407-7.253906-8.058593-8.058594-8.339843-24.140625-7.261718-34.429687zm-112.058594 7.253906c8.058594-8.058594 24.140625-8.34375 34.429688-7.261719 1.039062 10.164063.773437 26.410156-7.253907 34.4375-5.648437 5.652344-15.246093 7.476563-24.023437 7.695313h-3.703125c-2.390625-.058594-4.660157-.21875-6.703125-.433594-.191406-1.882813-.339844-3.972656-.402344-6.183594.039062-1.515625.046875-3.089843.007812-4.714843.28125-8.632813 2.132813-18.027344 7.648438-23.539063zm-69.828125-7.253906c10.164063-1.039063 26.414063-.773438 34.441406 7.253906 5.433594 5.433594 7.332031 14.519531 7.660157 23.015625-.058594 1.949219-.050782 3.835938.003906 5.632812-.070313 2.054688-.214844 4.003907-.402344 5.78125-10.167969 1.039063-26.414062.773438-34.441406-7.253906-8.058594-8.058594-8.339844-24.140625-7.261719-34.429687zm-63.109375 172.070312v-109.945312h352.050781c47.65625 0 89.96875 27.71875 109.230469 70.257812h-99.9375c13.0625-20.15625 7.234375-49.414062 6.445312-53.023437-.832031-3.816406-3.816406-6.800782-7.636718-7.636719-4.015625-.878906-39.820313-8-59.472656 11.648437-1.296876 1.296876-2.480469 2.667969-3.550782 4.089844-1.074218-1.421875-2.253906-2.792968-3.550781-4.089844-19.652344-19.648437-55.457031-12.527343-59.476563-11.648437-3.820312.835937-6.800781 3.820313-7.636718 7.636719-.789063 3.613281-6.613282 32.867187 6.449218 53.023437h-123.992187c-5.523437 0-10 4.476563-10 10 0 5.523438 4.476563 10 10 10h359.378906c1.640625 6.449219 2.738281 13.027344 3.289063 19.6875zm314.238281-39.6875c-2.378906-.054687-4.636719-.214843-6.671875-.429687-.191406-1.882813-.339844-3.972656-.402344-6.179688.039063-1.519531.046876-3.097656.007813-4.722656.285156-8.632812 2.136719-18.023438 7.648437-23.535156 8.058594-8.058594 24.144532-8.34375 34.433594-7.261719 1.035156 10.164063.769532 26.410156-7.257812 34.4375-5.640625 5.644531-15.222656 7.472656-23.992188 7.691406zm-27.136719-6.222656c-.074218 2.054687-.21875 4.003906-.40625 5.785156-10.164062 1.035157-26.414062.769531-34.4375-7.253906-8.058593-8.058594-8.34375-24.140625-7.265624-34.429687 10.171874-1.039063 26.417968-.773438 34.441406 7.253906 5.433594 5.433594 7.332031 14.519531 7.664062 23.015625-.058594 1.945312-.050781 3.832031.003906 5.628906zm0 0"/><path d="m252.914062 288.1875c-18.53125 0-33.609374-15.078125-33.609374-33.613281 0-15.855469 20.226562-37.964844 26.425781-44.367188 1.886719-1.941406 4.476562-3.039062 7.183593-3.039062 2.707032 0 5.296876 1.097656 7.183594 3.039062 6.199219 6.402344 26.425782 28.511719 26.425782 44.367188 0 18.535156-15.078126 33.613281-33.609376 33.613281zm-.003906-56.011719c-7.699218 9.308594-13.605468 18.78125-13.605468 22.398438 0 7.503906 6.101562 13.609375 13.609374 13.609375 7.503907 0 13.609376-6.105469 13.609376-13.609375 0-3.894531-6.296876-13.546875-13.613282-22.398438zm0 0"/></svg>