<?xml version="1.0" encoding="iso-8859-1"?>
<!-- Generator: Adobe Illustrator 19.0.0, SVG Export Plug-In . SVG Version: 6.00 Build 0)  -->
<svg version="1.1" id="Capa_1" xmlns="http://www.w3.org/2000/svg" xmlns:xlink="http://www.w3.org/1999/xlink" x="0px" y="0px"
	 viewBox="0 0 512 512" style="enable-background:new 0 0 512 512;" xml:space="preserve">
<g>
	<g>
		<path d="M256.311,27.031h-0.13c-5.521,0-9.999,4.476-9.999,9.999s4.476,9.999,9.999,9.999h0.13c5.521,0,9.999-4.476,9.999-9.999
			S261.832,27.031,256.311,27.031z"/>
	</g>
</g>
<g>
	<g>
		<path d="M502,27.03c-0.011,0-0.022,0.002-0.034,0.002c-0.012,0-0.022-0.002-0.034-0.002H290.253c-5.521,0-9.999,4.476-9.999,9.999
			c0,5.522,4.477,9.999,9.999,9.999h37.725v43.994c0,5.522,4.477,9.999,9.999,9.999c5.521,0,9.999-4.476,9.999-9.999V47.028h144.026
			v43.994c0,5.522,4.477,9.999,9.999,9.999c5.521,0,9.999-4.476,9.999-9.999V37.029C511.999,31.507,507.522,27.03,502,27.03z"/>
	</g>
</g>
<g>
	<g>
		<path d="M173.956,113.371c-5.521,0-9.999,4.476-9.999,9.999v0.131c0,5.522,4.477,9.999,9.999,9.999
			c5.521,0,9.999-4.476,9.999-9.999v-0.131C183.955,117.847,179.477,113.371,173.956,113.371z"/>
	</g>
</g>
<g>
	<g>
		<path d="M10,113.371c-5.521,0-9.999,4.476-9.999,9.999v0.131c0,5.522,4.477,9.999,9.999,9.999c5.521,0,9.999-4.476,9.999-9.999
			v-0.131C19.998,117.847,15.521,113.371,10,113.371z"/>
	</g>
</g>
<g>
	<g>
		<path d="M221.658,27.03h-47.693c-0.003,0-0.007,0-0.01,0s-0.006,0-0.01,0H10.009c-0.003,0-0.007,0-0.01,0
			C4.477,27.03,0,31.507,0,37.029v53.993c0,5.522,4.477,9.999,9.999,9.999c5.521,0,9.999-4.476,9.999-9.999V47.028h143.959v43.994
			c0,5.522,4.477,9.999,9.999,9.999c5.521,0,9.999-4.476,9.999-9.999V47.028h37.704c5.521,0,9.999-4.476,9.999-9.999
			C231.656,31.507,227.179,27.03,221.658,27.03z"/>
	</g>
</g>
<g>
	<g>
		<path d="M136.224,165.012h-0.132c-5.521,0-9.999,4.476-9.999,9.999s4.477,9.999,9.999,9.999h0.132
			c5.521,0,9.999-4.476,9.999-9.999S141.745,165.012,136.224,165.012z"/>
	</g>
</g>
<g>
	<g>
		<path d="M511.932,414.209V173c0-2.652-1.054-5.195-2.929-7.07l-81.977-81.978c-1.876-1.875-4.418-2.929-7.07-2.929
			c-2.652,0-5.194,1.054-7.07,2.929l-74.931,74.93l-74.929-74.93c-1.876-1.875-4.418-2.929-7.07-2.929
			c-2.652,0-5.194,1.054-7.07,2.929l-74.919,74.919L99.048,83.952c-1.876-1.875-4.418-2.929-7.07-2.929s-5.194,1.054-7.07,2.929
			L2.929,165.93C1.054,167.805,0,170.348,0,173v301.971c0,5.522,4.477,9.999,9.999,9.999h163.956c0.004,0,0.007,0,0.011,0
			c0.004,0,0.007,0,0.011,0h163.956c0.008,0,0.015-0.001,0.022-0.001c0.007,0,0.015,0.001,0.022,0.001h163.956
			c5.521,0,9.999-4.476,9.999-9.999v-58.983c0.026-0.294,0.045-0.589,0.045-0.89C511.977,414.797,511.958,414.503,511.932,414.209z
			 M163.956,464.972H19.997V185.009h83.748c5.521,0,9.999-4.476,9.999-9.999s-4.477-9.999-9.999-9.999H32.127l59.85-59.85
			l71.978,71.979V405.1h-48.97c-5.521,0-9.999,4.476-9.999,9.999s4.477,9.999,9.999,9.999h48.971V464.972z M327.933,405.1h-48.948
			c-5.521,0-9.999,4.476-9.999,9.999s4.477,9.999,9.999,9.999h48.948v39.875H183.976V185.009h83.748
			c5.521,0,9.999-4.476,9.999-9.999s-4.477-9.999-9.999-9.999h-71.618l59.85-59.85l71.978,71.979V405.1z M491.935,405.1h-48.949
			c-5.521,0-9.999,4.476-9.999,9.999s4.477,9.999,9.999,9.999h48.949v39.875H347.976V185.009H431.7c5.521,0,9.999-4.476,9.999-9.999
			s-4.477-9.999-9.999-9.999h-71.595l59.85-59.85l71.979,71.979V405.1z"/>
	</g>
</g>
<g>
	<g>
		<path d="M300.201,165.012h-0.131c-5.521,0-9.999,4.476-9.999,9.999s4.477,9.999,9.999,9.999h0.131
			c5.521,0,9.999-4.476,9.999-9.999S305.722,165.012,300.201,165.012z"/>
	</g>
</g>
<g>
	<g>
		<path d="M464.178,165.012h-0.131c-5.521,0-9.999,4.476-9.999,9.999s4.477,9.999,9.999,9.999h0.131
			c5.521,0,9.999-4.476,9.999-9.999S469.7,165.012,464.178,165.012z"/>
	</g>
</g>
<g>
	<g>
		<path d="M337.978,113.371c-5.521,0-9.999,4.476-9.999,9.999v0.131c0,5.522,4.477,9.999,9.999,9.999
			c5.521,0,9.999-4.476,9.999-9.999v-0.131C347.977,117.847,343.5,113.371,337.978,113.371z"/>
	</g>
</g>
<g>
	<g>
		<path d="M502.001,113.371c-5.521,0-9.999,4.476-9.999,9.999v0.131c0,5.522,4.477,9.999,9.999,9.999
			c5.521,0,9.999-4.476,9.999-9.999v-0.131C512,117.847,507.524,113.371,502.001,113.371z"/>
	</g>
</g>
<g>
</g>
<g>
</g>
<g>
</g>
<g>
</g>
<g>
</g>
<g>
</g>
<g>
</g>
<g>
</g>
<g>
</g>
<g>
</g>
<g>
</g>
<g>
</g>
<g>
</g>
<g>
</g>
<g>
</g>
</svg>
