<svg height="512pt" viewBox="0 -16 512 512" width="512pt" xmlns="http://www.w3.org/2000/svg"><path d="m130 300c-27.570312 0-50 22.429688-50 50s22.429688 50 50 50 50-22.429688 50-50-22.429688-50-50-50zm0 80c-16.542969 0-30-13.457031-30-30s13.457031-30 30-30 30 13.457031 30 30-13.457031 30-30 30zm0 0"/><path d="m502 360h-40.714844c-1.105468-1.90625-2.292968-3.769531-3.550781-5.589844l53.75-161.246094c1.019531-3.050781.507813-6.402343-1.371094-9.011718-1.878906-2.605469-4.898437-4.152344-8.113281-4.152344h-106v-80c0-11.027344 8.972656-20 20-20h20c5.523438 0 10-4.476562 10-10v-40c0-5.523438-4.476562-10-10-10h-30c-38.597656 0-70 31.402344-70 70v90h-41.527344l-20.25-121.507812c-5.65625-33.890626-34.699218-58.492188-69.050781-58.492188h-145.171875c-16.542969 0-30 13.457031-30 30v237.046875c-19.371094 23.3125-30 52.613281-30 82.953125 0 71.035156 57.613281 130 130 130 62.339844 0 113.175781-43.636719 126.476562-100.011719h58.039063c-1.671875 6.480469-2.515625 13.175781-2.515625 20.011719 0 44.113281 35.886719 80 80 80s80-35.886719 80-80c0-6.835938-.84375-13.519531-2.515625-20h32.515625c5.523438 0 10-4.476562 10-10s-4.476562-10-10-10zm-59.78125-22.289062c-14.085938-11.394532-31.679688-17.710938-50.21875-17.710938-28.570312 0-55.09375 15.511719-69.28125 40h-63.109375c.253906-3.320312.390625-6.65625.390625-10 0-71.035156-57.613281-130-130-130-29.34375 0-57.222656 9.699219-80 27.582031v-47.582031h438.125zm-86.21875-247.710938c0-27.570312 22.429688-50 50-50h20v20h-10c-22.054688 0-40 17.945312-40 40v80h-20zm-296-70h40v45c0 5.523438 4.476562 10 10 10s10-4.476562 10-10v-45h85.171875c24.539063 0 45.285156 17.574219 49.324219 41.78125l19.699218 118.21875h-154.195312v-25c0-5.523438-4.476562-10-10-10s-10 4.476562-10 10v25h-50v-150c0-5.515625 4.484375-10 10-10zm154.484375 400.339844-6.703125-6.699219c-3.90625-3.90625-10.238281-3.90625-14.140625 0-3.90625 3.902344-3.90625 10.234375 0 14.140625l6.707031 6.710938c-17.191406 14.375-38.085937 23.050781-60.347656 25.054687v-9.546875c0-5.523438-4.476562-10-10-10s-10 4.476562-10 10v9.546875c-22.265625-2.003906-43.15625-10.679687-60.351562-25.054687l6.710937-6.710938c3.90625-3.902344 3.90625-10.234375 0-14.140625s-10.238281-3.90625-14.140625 0l-6.710938 6.707031c-14.375-17.191406-23.050781-38.082031-25.054687-60.347656h9.546875c5.523438 0 10-4.476562 10-10s-4.476562-10-10-10h-9.542969c2.023438-22.109375 10.726563-43.140625 25.0625-60.339844l6.699219 6.699219c3.90625 3.90625 10.238281 3.90625 14.140625 0 3.90625-3.902344 3.90625-10.234375 0-14.140625l-6.707031-6.710938c17.191406-14.375 38.085937-23.050781 60.347656-25.054687v9.546875c0 5.523438 4.476562 10 10 10s10-4.476562 10-10v-9.546875c22.265625 2.003906 43.15625 10.679687 60.351562 25.054687l-6.710937 6.710938c-3.90625 3.90625-3.90625 10.238281 0 14.144531 3.90625 3.902344 10.238281 3.902344 14.140625 0l6.710938-6.710937c14.378906 17.191406 23.050781 38.085937 25.054687 60.347656h-9.546875c-5.523438 0-10 4.480469-10 10 0 5.523438 4.476562 9.992188 10 9.992188h9.53125c-.253906 2.804687-.601562 5.589843-1.070312 8.339843-3.242188 19.269531-11.484376 37.066407-23.976563 52.007813zm177.515625 39.660156c-33.085938 0-60-26.914062-60-60 0-33.4375 27.277344-60 60-60 33.34375 0 60 27.03125 60 60 0 33.085938-26.914062 60-60 60zm0 0"/><path d="m286 240c-5.523438 0-10 4.476562-10 10v30c0 5.523438 4.476562 10 10 10s10-4.476562 10-10v-30c0-5.523438-4.476562-10-10-10zm0 0"/><path d="m346 240c-5.523438 0-10 4.476562-10 10v30c0 5.523438 4.476562 10 10 10s10-4.476562 10-10v-30c0-5.523438-4.476562-10-10-10zm0 0"/><path d="m406 290c5.523438 0 10-4.476562 10-10v-30c0-5.523438-4.476562-10-10-10s-10 4.476562-10 10v30c0 5.523438 4.476562 10 10 10zm0 0"/><path d="m392 360c-22.054688 0-40 17.945312-40 40s17.945312 40 40 40 40-17.945312 40-40-17.945312-40-40-40zm0 60c-11.027344 0-20-8.972656-20-20s8.972656-20 20-20 20 8.972656 20 20-8.972656 20-20 20zm0 0"/><path d="m120 110c0 5.523438-4.476562 10-10 10s-10-4.476562-10-10 4.476562-10 10-10 10 4.476562 10 10zm0 0"/></svg>