<svg id="Capa_1" enable-background="new 0 0 512 512" height="512" viewBox="0 0 512 512" width="512" xmlns="http://www.w3.org/2000/svg"><path d="m297.49 231.47c-4.236 0-8.095-2.77-9.461-6.779-1.36-3.993.006-8.59 3.374-11.152 3.197-2.431 7.613-2.711 11.093-.713 3.568 2.048 5.533 6.221 4.863 10.279-.787 4.764-5.044 8.365-9.869 8.365z"/><path d="m341.894 166.335c-8.92-11.803-19.873-21.419-32.202-28.521 1.097-1.271 2.195-2.541 3.29-3.808 24.399-28.238 39.565-46.001 43.732-54.998 10.748-23.209.609-50.837-22.602-61.587-13.603-6.3-28.168-5.545-40.572 1.744-8.439-11.605-22.124-19.165-37.542-19.165-15.417 0-29.1 7.56-37.54 19.166-12.403-7.29-26.967-8.043-40.572-1.744-23.21 10.75-33.349 38.378-22.601 61.588 4.167 8.996 19.333 26.759 43.732 54.997 1.095 1.267 2.192 2.537 3.29 3.808-12.329 7.102-23.282 16.718-32.202 28.521-20.53 27.17-26.973 61.541-17.675 94.302l62.545 220.362c5.182 18.252 22.052 31 41.025 31s35.844-12.748 41.025-31.001l62.543-220.362c9.298-32.761 2.856-67.132-17.674-94.302zm-16.187-130.765c13.204 6.115 18.973 21.832 12.858 35.033-3.198 6.906-24.001 30.981-40.717 50.326-2.386 2.762-4.784 5.537-7.168 8.302-2.494-.842-5.024-1.593-7.586-2.251 10.766-37.857 19.294-69.335 19.294-80.596 0-2.944-.276-5.825-.803-8.618 7.317-5.269 15.759-6.069 24.122-2.196zm-69.709-15.57c14.552 0 26.391 11.837 26.391 26.386 0 9.5-11.645 50.977-19.187 77.431-2.385-.155-4.787-.234-7.202-.234-2.416 0-4.818.079-7.203.234-7.542-26.45-19.185-67.92-19.185-77.431-.001-14.549 11.836-26.386 26.386-26.386zm-41.847 100.93c-16.716-19.345-37.519-43.42-40.717-50.325-6.114-13.202-.346-28.919 12.857-35.034 8.367-3.873 16.808-3.072 24.123 2.197-.527 2.793-.803 5.674-.803 8.618 0 11.273 8.527 42.746 19.293 80.596-2.561.658-5.091 1.408-7.585 2.25-2.384-2.765-4.781-5.54-7.168-8.302zm63.634 354.607c-2.751 9.693-11.71 16.463-21.785 16.463s-19.034-6.77-21.785-16.462l-37.427-131.871h27.546c5.523 0 10-4.477 10-10 0-5.522-4.477-10-10-10h-33.222l-19.439-68.491c-2.228-7.849-3.345-15.811-3.388-23.703h84.186c5.522 0 10-4.478 10-10 0-5.523-4.478-10-10-10h-81.954c2.735-11.787 7.96-23.037 15.548-33.079 16.717-22.123 42.208-34.811 69.936-34.811s53.22 12.688 69.936 34.811c16.717 22.122 21.963 50.107 14.392 76.782l-7.519 26.491h-47.142c-5.522 0-10 4.478-10 10 0 5.523 4.478 10 10 10h41.466l-26.112 92h-54.862c-5.523 0-10 4.478-10 10 0 5.523 4.477 10 10 10h49.185z"/></svg>