<?xml version="1.0" encoding="utf-8"?>
<!-- Generator: Adobe Illustrator 19.1.0, SVG Export Plug-In . SVG Version: 6.00 Build 0)  -->
<svg version="1.1" id="Capa_1" xmlns="http://www.w3.org/2000/svg" xmlns:xlink="http://www.w3.org/1999/xlink" x="0px" y="0px"
	 viewBox="0 0 73 80" style="enable-background:new 0 0 73 80;" xml:space="preserve">
<style type="text/css">
	.st0{fill:#638E3D;}
	.st1{fill:#07436B;}
</style>
<g>
	<path class="st0" d="M34,31.5c2.1-0.2,2.5-0.5,3.5-2.1c1-1.6,1.2-9.7,1.2-10.2c0-0.1-0.4-0.1-0.5,0.2c-0.5,0.9-1.2,3.6-4.5,3.6
		c-1.9,0-3.1,0.6-3.9,1.6v-3c1.6-1.9,2.6-1.7,4.3-1.9c2.1-0.2,2.5-0.5,3.5-2.1c1-1.6,1.2-9.7,1.2-10.2c0-0.1-0.4-0.1-0.5,0.2
		c-0.5,0.9-1.2,3.6-4.5,3.6c-1.9,0-3.1,0.6-3.9,1.6V0.7H6.1v63.5h23.6v-7c1.6-1.9,2.6-1.7,4.3-1.9c2.1-0.2,2.5-0.5,3.5-2.1
		c1-1.6,1.2-9.7,1.2-10.2c0-0.1-0.4-0.1-0.5,0.2c-0.5,0.9-1.2,3.6-4.5,3.6c-1.9,0-3.1,0.6-3.9,1.6v-3.1c1.6-1.9,2.6-1.7,4.3-1.9
		c2.1-0.2,2.5-0.5,3.5-2.1c1-1.6,1.2-9.7,1.2-10.2c0-0.1-0.4-0.1-0.5,0.2c-0.5,0.9-1.2,3.6-4.5,3.6c-1.9,0-3.1,0.6-3.9,1.6v-2.8
		C31.3,31.5,32.3,31.7,34,31.5z M28.6,61.6c-0.3,0.2-0.4-0.4-0.4-0.4s-0.1-0.6-0.7-1.6c-2.5-4.1-3.6-3.7-5.7-4
		c-2.1-0.2-2.5-0.5-3.5-2.1c-1-1.6-1.2-9.8-1.2-10.4c0-0.1,0.4-0.1,0.5,0.2c0.5,1,1.2,3.7,4.6,3.6c3.6-0.1,4.8,2.4,5.9,5.5
		C29.1,55.4,28.6,61.6,28.6,61.6z M28.6,49.5c-0.3,0.3-0.4-0.4-0.4-0.4s-0.1-0.6-0.7-1.6c-2.5-4.1-3.6-3.7-5.7-4
		c-2.1-0.2-2.5-0.5-3.5-2.1c-1-1.6-1.2-9.8-1.2-10.4c0-0.1,0.4-0.1,0.5,0.2c0.5,1,1.2,3.7,4.6,3.6c3.6-0.1,4.8,2.4,5.9,5.5
		C29.1,43.4,28.6,49.5,28.6,49.5z M28.6,37.4c-0.3,0.2-0.4-0.4-0.4-0.4s-0.1-0.6-0.7-1.6c-2.5-4.1-3.6-3.7-5.7-4
		c-2.1-0.2-2.5-0.5-3.5-2.1c-1-1.6-1.2-9.8-1.2-10.4c0-0.1,0.4-0.1,0.5,0.2c0.5,1,1.2,3.7,4.6,3.6c3.6-0.1,4.8,2.4,5.9,5.5
		C29.1,31.3,28.6,37.4,28.6,37.4z M28.6,25.4c-0.3,0.2-0.4-0.4-0.4-0.4s-0.1-0.6-0.7-1.6c-2.5-4.1-3.6-3.7-5.7-4
		c-2.1-0.2-2.5-0.5-3.5-2.1c-1-1.6-1.2-9.8-1.2-10.4c0-0.1,0.4-0.1,0.5,0.2c0.5,1,1.2,3.7,4.6,3.6c3.6-0.1,4.8,2.4,5.9,5.5
		C29.1,19.2,28.6,25.4,28.6,25.4z"/>
	<polyline class="st1" points="54.3,52.4 51.1,55.9 48.1,54.2 43.8,57 44.4,60.1 39.9,62.1 37.4,59 32.9,60.2 32.2,63.1 32.2,64.2 
		72.1,64.2 72.1,0.6 32.3,0.7 32.3,2 33,3.8 38.2,4.7 40.3,2.1 44.8,3.8 44.1,7.1 48.3,9.8 51.2,8.2 54.5,11.4 52.6,14.3 55.8,18.3 
		59.2,18 60.9,22.1 58.1,24.1 58.9,28.5 62.5,29.4 62.5,34.5 59.1,35.4 58,40.1 60.8,42 59.1,46.3 56,45.5 52.3,50 54.3,52.4 	"/>
	<g>
		<path class="st1" d="M11.2,66.6H7.1c-0.3,0-0.6,0.1-0.8,0.3c-0.2,0.2-0.3,0.5-0.3,0.8v7.1c0,0.3,0.1,0.6,0.3,0.8
			C6.5,75.9,6.8,76,7.1,76c0.3,0,0.6-0.1,0.8-0.3c0.2-0.2,0.3-0.5,0.3-0.8v-2.1h2c0.3,0,0.6-0.1,0.8-0.3c0.2-0.2,0.3-0.5,0.3-0.8
			c0-0.3-0.1-0.6-0.3-0.8c-0.2-0.2-0.5-0.3-0.8-0.3h-2v-1.5h2.9c0.3,0,0.6-0.1,0.8-0.3c0.2-0.2,0.3-0.5,0.3-0.8
			c0-0.3-0.1-0.6-0.3-0.8C11.8,66.7,11.5,66.6,11.2,66.6z"/>
		<path class="st1" d="M17.1,66.5c-1.3,0-2.5,0.5-3.4,1.4c-0.9,0.9-1.4,2.1-1.4,3.4c0,1.3,0.5,2.5,1.4,3.4c0.9,0.9,2.1,1.4,3.4,1.4
			c1.3,0,2.5-0.5,3.4-1.4c0.9-0.9,1.4-2.1,1.4-3.4c0-1.3-0.5-2.5-1.4-3.4C19.6,67,18.5,66.5,17.1,66.5z M17.1,73.8
			c-0.7,0-1.3-0.2-1.8-0.7c-0.5-0.5-0.7-1.1-0.7-1.8c0-0.7,0.2-1.3,0.7-1.8c0.5-0.5,1.1-0.7,1.8-0.7c0.7,0,1.3,0.2,1.8,0.7
			c0.5,0.5,0.7,1.1,0.7,1.8c0,0.7-0.2,1.3-0.7,1.8C18.4,73.6,17.8,73.8,17.1,73.8z"/>
		<path class="st1" d="M28.6,66.9c-0.2,0.2-0.3,0.5-0.3,0.8v3.8L24.7,67c-0.2-0.2-0.4-0.3-0.6-0.4c-0.2-0.1-0.5-0.1-0.7,0
			c-0.2,0.1-0.4,0.2-0.6,0.4c-0.1,0.2-0.2,0.4-0.2,0.7v7.1c0,0.3,0.1,0.6,0.3,0.8c0.2,0.2,0.5,0.3,0.8,0.3c0.3,0,0.6-0.1,0.8-0.3
			c0.2-0.2,0.3-0.5,0.3-0.8V71l3.6,4.5c0.2,0.2,0.4,0.3,0.6,0.4c0.2,0.1,0.5,0.1,0.7,0c0.2-0.1,0.4-0.2,0.6-0.4
			c0.1-0.2,0.2-0.4,0.2-0.7v-7.1c0-0.3-0.1-0.6-0.3-0.8C29.8,66.5,29.1,66.5,28.6,66.9z"/>
		<path class="st1" d="M38.4,67.8c0-0.3-0.1-0.6-0.3-0.8c-0.2-0.2-0.5-0.3-0.8-0.3h-5c-0.3,0-0.6,0.1-0.8,0.3
			c-0.2,0.2-0.3,0.5-0.3,0.8c0,0.3,0.1,0.6,0.3,0.8c0.2,0.2,0.5,0.3,0.8,0.3h1.3v5.9c0,0.3,0.1,0.6,0.3,0.8c0.2,0.2,0.5,0.3,0.8,0.3
			c0.3,0,0.6-0.1,0.8-0.3c0.2-0.2,0.3-0.5,0.3-0.8v-5.9h1.3c0.3,0,0.6-0.1,0.8-0.3S38.4,68.1,38.4,67.8z"/>
		<path class="st1" d="M42.7,67.3c-0.2-0.4-0.6-0.7-1.1-0.7c-0.5,0-0.9,0.2-1.1,0.7l-3.2,7.1c-0.1,0.3-0.1,0.6,0,0.9
			c0.1,0.3,0.3,0.5,0.6,0.6c0.3,0.1,0.6,0.1,0.9,0c0.3-0.1,0.5-0.3,0.6-0.6l0.4-0.8h3.5l0.4,0.8c0.1,0.3,0.3,0.5,0.6,0.6
			c0.1,0.1,0.3,0.1,0.4,0.1c0.2,0,0.3,0,0.5-0.1c0.3-0.1,0.5-0.3,0.6-0.6c0.1-0.3,0.1-0.6,0-0.9L42.7,67.3z M42.3,72.2h-1.4l0.7-1.6
			L42.3,72.2z"/>
		<path class="st1" d="M52.3,71.2C52.1,71.4,52,71.7,52,72v1.4c-0.4,0.2-0.8,0.4-1.3,0.4c-0.7,0-1.3-0.2-1.8-0.7
			c-0.5-0.5-0.7-1.1-0.7-1.8c0-0.7,0.2-1.3,0.7-1.8c0.5-0.5,1.1-0.7,1.8-0.7c0.6,0,1.1,0.2,1.6,0.6c0.2,0.2,0.5,0.3,0.9,0.3
			c0.3,0,0.6-0.2,0.8-0.4c0.2-0.2,0.3-0.5,0.3-0.8c0-0.3-0.2-0.6-0.4-0.8c-0.9-0.7-1.9-1.1-3.1-1.1c-1.3,0-2.5,0.5-3.4,1.4
			c-0.9,0.9-1.4,2.1-1.4,3.4c0,1.3,0.5,2.5,1.4,3.4c0.9,0.9,2.1,1.4,3.4,1.4c1.2,0,2.3-0.4,3.2-1.3c0.2-0.2,0.4-0.5,0.4-0.9v-2
			c0-0.3-0.1-0.6-0.3-0.8C53.5,70.7,52.7,70.7,52.3,71.2z"/>
		<path class="st1" d="M61.7,71.7c0.4-0.5,0.5-1.1,0.5-1.8c0-0.9-0.3-1.7-0.9-2.3c-0.6-0.6-1.4-1-2.3-1h-2.5c-0.3,0-0.6,0.1-0.8,0.3
			c-0.2,0.2-0.3,0.5-0.3,0.8v7.1c0,0.3,0.1,0.6,0.3,0.8c0.2,0.2,0.5,0.3,0.8,0.3c0.3,0,0.6-0.1,0.8-0.3c0.2-0.2,0.3-0.5,0.3-0.8
			v-1.7h0.5l1.8,2.4c0.2,0.3,0.5,0.4,0.8,0.4c0.1,0,0.1,0,0.2,0c0.2,0,0.5-0.1,0.7-0.2c0.2-0.2,0.4-0.4,0.4-0.8c0-0.3,0-0.6-0.2-0.9
			l-1.1-1.5C61.1,72.4,61.4,72.1,61.7,71.7z M59.9,69.9c0,0.3-0.1,0.5-0.3,0.7c-0.2,0.2-0.4,0.3-0.7,0.3h-1.3v-1.9H59
			c0.3,0,0.5,0.1,0.7,0.3C59.8,69.4,59.9,69.6,59.9,69.9z"/>
		<path class="st1" d="M70.9,67.9c-0.9-0.9-2.1-1.4-3.4-1.4c-1.3,0-2.5,0.5-3.4,1.4c-0.9,0.9-1.4,2.1-1.4,3.4c0,1.3,0.5,2.5,1.4,3.4
			c0.9,0.9,2.1,1.4,3.4,1.4c1.3,0,2.5-0.5,3.4-1.4c0.9-0.9,1.4-2.1,1.4-3.4C72.3,70,71.8,68.8,70.9,67.9z M70,71.3
			c0,0.7-0.2,1.3-0.7,1.8c-0.5,0.5-1.1,0.7-1.8,0.7c-0.7,0-1.3-0.2-1.8-0.7C65.2,72.6,65,72,65,71.3c0-0.7,0.2-1.3,0.7-1.8
			c0.5-0.5,1.1-0.7,1.8-0.7c0.7,0,1.3,0.2,1.8,0.7C69.7,70,70,70.6,70,71.3z"/>
	</g>
	<g>
		<path class="st1" d="M72.2,80H0.1V0.7C0.1,0.3,0.4,0,0.8,0s0.7,0.3,0.7,0.7v77.8h70.6c0.4,0,0.7,0.3,0.7,0.7
			C72.9,79.7,72.6,80,72.2,80z"/>
	</g>
</g>
</svg>
