<?xml version="1.0" encoding="utf-8"?>
<!-- Generator: Adobe Illustrator 19.1.0, SVG Export Plug-In . SVG Version: 6.00 Build 0)  -->
<svg version="1.1" id="Capa_1" xmlns="http://www.w3.org/2000/svg" xmlns:xlink="http://www.w3.org/1999/xlink" x="0px" y="0px"
	 viewBox="0 0 82 90" style="enable-background:new 0 0 82 90;" xml:space="preserve">
<style type="text/css">
	.st0{fill:#FFFFFF;}
</style>
<g>
	<path class="st0" d="M38.2,35.5c2.3-0.2,2.8-0.6,3.9-2.4c1.1-1.8,1.3-10.9,1.4-11.5c0-0.1-0.4-0.1-0.6,0.2c-0.5,1.1-1.3,4.1-5.1,4
		c-2.1-0.1-3.4,0.6-4.4,1.8v-3.3c1.8-2.2,3-1.9,4.8-2.1c2.3-0.2,2.8-0.6,3.9-2.4c1.1-1.8,1.3-10.9,1.4-11.5C43.4,8,43,8,42.9,8.4
		c-0.5,1.1-1.3,4.1-5.1,4c-2.1-0.1-3.4,0.6-4.4,1.8V0.7H6.8v71.5h26.5v-7.8c1.8-2.2,3-1.9,4.8-2.1c2.3-0.2,2.8-0.6,3.9-2.4
		c1.1-1.8,1.3-10.9,1.4-11.5c0-0.1-0.4-0.1-0.6,0.2c-0.5,1.1-1.3,4.1-5.1,4c-2.1-0.1-3.4,0.6-4.4,1.8v-3.5c1.8-2.2,3-1.9,4.8-2.1
		c2.3-0.2,2.8-0.6,3.9-2.4c1.1-1.8,1.3-10.9,1.4-11.5c0-0.1-0.4-0.1-0.6,0.2c-0.5,1.1-1.3,4.1-5.1,4c-2.1-0.1-3.4,0.6-4.4,1.8v-3.2
		C35.1,35.4,36.3,35.6,38.2,35.5z M32.2,69.3c-0.3,0.3-0.4-0.4-0.4-0.4s-0.1-0.7-0.8-1.8c-2.8-4.6-4.1-4.2-6.4-4.5
		c-2.4-0.2-2.8-0.6-3.9-2.4c-1.1-1.8-1.3-11.1-1.4-11.7c0-0.1,0.4-0.2,0.6,0.2c0.5,1.1,1.3,4.1,5.1,4.1c4.1-0.1,5.4,2.7,6.6,6.2
		C32.7,62.4,32.2,69.3,32.2,69.3z M32.2,55.7c-0.3,0.3-0.4-0.4-0.4-0.4s-0.1-0.7-0.8-1.8c-2.8-4.6-4.1-4.2-6.4-4.4
		c-2.4-0.2-2.8-0.6-3.9-2.4c-1.1-1.8-1.3-11.1-1.4-11.7c0-0.1,0.4-0.1,0.6,0.2c0.5,1.1,1.3,4.1,5.1,4c4.1-0.1,5.4,2.7,6.6,6.2
		C32.7,48.8,32.2,55.7,32.2,55.7z M32.2,42.1c-0.3,0.3-0.4-0.4-0.4-0.4s-0.1-0.7-0.8-1.8c-2.8-4.6-4.1-4.2-6.4-4.4
		c-2.4-0.2-2.8-0.6-3.9-2.4c-1.1-1.8-1.3-11.1-1.4-11.7c0-0.1,0.4-0.1,0.6,0.2c0.5,1.1,1.3,4.1,5.1,4.1c4.1-0.1,5.4,2.7,6.6,6.2
		C32.7,35.2,32.2,42.1,32.2,42.1z M32.2,28.5c-0.3,0.3-0.4-0.4-0.4-0.4s-0.1-0.7-0.8-1.8c-2.8-4.6-4.1-4.2-6.4-4.4
		c-2.4-0.2-2.8-0.6-3.9-2.4c-1.1-1.8-1.3-11.1-1.4-11.7c0-0.1,0.4-0.1,0.6,0.2c0.5,1.1,1.3,4.1,5.1,4.1c4.1-0.1,5.4,2.7,6.6,6.2
		C32.7,21.6,32.2,28.5,32.2,28.5z"/>
	<polyline class="st0" points="61.1,59 57.4,62.9 54,61 49.2,64.2 49.9,67.6 44.8,69.8 42,66.4 36.9,67.7 36.1,71 36.1,72.2 
		81,72.2 81,0.7 36.2,0.7 36.2,2.2 37.1,4.3 42.9,5.3 45.2,2.4 50.3,4.3 49.5,8 54.3,11.1 57.6,9.2 61.3,12.8 59.1,16 62.7,20.6 
		66.5,20.2 68.5,24.9 65.3,27.1 66.2,32 70.2,33.1 70.2,38.8 66.4,39.8 65.2,45.1 68.3,47.3 66.4,52 62.9,51.2 58.8,56.2 61.1,59 	
		"/>
	<g>
		<path class="st0" d="M12.5,74.9H7.9c-0.4,0-0.7,0.1-0.9,0.4c-0.3,0.3-0.4,0.6-0.4,0.9v8c0,0.4,0.1,0.7,0.4,0.9
			c0.3,0.3,0.6,0.4,0.9,0.4c0.3,0,0.7-0.1,0.9-0.4c0.3-0.3,0.4-0.6,0.4-0.9v-2.3h2.2c0.4,0,0.7-0.1,0.9-0.4c0.2-0.2,0.4-0.6,0.4-0.9
			c0-0.4-0.1-0.7-0.4-0.9c-0.2-0.2-0.6-0.4-0.9-0.4H9.2v-1.7h3.3c0.4,0,0.7-0.1,0.9-0.4c0.3-0.3,0.4-0.6,0.4-0.9
			c0-0.4-0.1-0.7-0.4-0.9C13.2,75.1,12.9,74.9,12.5,74.9z"/>
		<path class="st0" d="M19.2,74.8c-1.5,0-2.8,0.5-3.8,1.6c-1.1,1.1-1.6,2.3-1.6,3.8c0,1.5,0.5,2.8,1.6,3.8c1,1.1,2.3,1.6,3.8,1.6
			c1.5,0,2.8-0.5,3.8-1.6c1-1,1.6-2.3,1.6-3.8c0-1.5-0.5-2.8-1.6-3.8C22,75.3,20.7,74.8,19.2,74.8z M19.2,83c-0.8,0-1.4-0.3-2-0.8
			c-0.6-0.6-0.8-1.2-0.8-2c0-0.8,0.3-1.4,0.8-2c0.6-0.6,1.2-0.8,2-0.8c0.8,0,1.4,0.3,2,0.8c0.6,0.6,0.8,1.2,0.8,2
			c0,0.8-0.3,1.4-0.8,2C20.6,82.8,20,83,19.2,83z"/>
		<path class="st0" d="M32.2,75.3c-0.3,0.3-0.4,0.6-0.4,0.9v4.3l-4.1-5.1c-0.2-0.2-0.4-0.4-0.7-0.4c-0.3-0.1-0.5-0.1-0.8,0
			c-0.3,0.1-0.5,0.3-0.6,0.5c-0.2,0.2-0.2,0.5-0.2,0.8v8c0,0.4,0.1,0.7,0.4,0.9c0.3,0.3,0.6,0.4,0.9,0.4c0.3,0,0.7-0.1,0.9-0.4
			c0.3-0.3,0.4-0.6,0.4-0.9v-4.3l4.1,5.1c0.2,0.2,0.4,0.4,0.7,0.4c0.3,0.1,0.5,0.1,0.8,0c0.2-0.1,0.5-0.3,0.6-0.5
			c0.1-0.2,0.2-0.5,0.2-0.7v-8c0-0.4-0.1-0.7-0.4-0.9C33.5,74.8,32.6,74.8,32.2,75.3z"/>
		<path class="st0" d="M43.1,76.2c0-0.4-0.1-0.7-0.4-0.9c-0.3-0.3-0.6-0.4-0.9-0.4h-5.6c-0.4,0-0.7,0.1-0.9,0.4
			c-0.3,0.3-0.4,0.6-0.4,0.9c0,0.3,0.1,0.7,0.4,0.9c0.3,0.3,0.6,0.4,0.9,0.4h1.5v6.7c0,0.4,0.1,0.7,0.4,0.9c0.3,0.3,0.6,0.4,0.9,0.4
			c0.4,0,0.7-0.1,0.9-0.4c0.3-0.2,0.4-0.6,0.4-0.9v-6.7h1.5c0.4,0,0.7-0.1,0.9-0.4C43,76.9,43.1,76.6,43.1,76.2z"/>
		<path class="st0" d="M47.9,75.7c-0.2-0.5-0.6-0.8-1.2-0.8c-0.6,0-1,0.3-1.2,0.8l-3.6,8c-0.1,0.3-0.2,0.7,0,1
			c0.1,0.3,0.4,0.6,0.7,0.7c0.3,0.1,0.7,0.2,1,0c0.3-0.1,0.6-0.4,0.7-0.7l0.4-0.9h4l0.4,0.9c0.1,0.3,0.4,0.5,0.7,0.7
			c0.2,0.1,0.3,0.1,0.5,0.1c0.2,0,0.4,0,0.5-0.1c0.3-0.1,0.6-0.4,0.7-0.7c0.1-0.3,0.1-0.7,0-1L47.9,75.7z M47.6,81.2h-1.6l0.8-1.8
			L47.6,81.2z"/>
		<path class="st0" d="M58.8,80.1c-0.3,0.3-0.4,0.6-0.4,0.9v1.6c-0.4,0.3-0.9,0.4-1.5,0.4c-0.8,0-1.4-0.3-2-0.8
			c-0.6-0.6-0.8-1.2-0.8-2c0-0.8,0.3-1.4,0.8-2c0.6-0.6,1.2-0.8,2-0.8c0.7,0,1.3,0.2,1.8,0.6c0.3,0.2,0.6,0.3,1,0.3
			c0.3,0,0.6-0.2,0.9-0.5c0.2-0.3,0.3-0.6,0.3-1c0-0.3-0.2-0.6-0.5-0.9c-1-0.8-2.1-1.2-3.4-1.2c-1.5,0-2.8,0.5-3.8,1.6
			c-1.1,1.1-1.6,2.3-1.6,3.8c0,1.5,0.5,2.8,1.6,3.8c1,1.1,2.3,1.6,3.8,1.6c1.4,0,2.6-0.5,3.6-1.4c0.3-0.3,0.4-0.6,0.4-1V81
			c0-0.4-0.1-0.7-0.4-0.9C60.1,79.6,59.3,79.6,58.8,80.1z"/>
		<path class="st0" d="M69.3,80.6c0.4-0.6,0.6-1.3,0.6-2c0-1-0.4-1.9-1.1-2.6c-0.7-0.7-1.6-1.1-2.6-1.1h-2.8c-0.4,0-0.7,0.1-0.9,0.4
			c-0.3,0.3-0.4,0.6-0.4,0.9v8c0,0.4,0.1,0.7,0.4,0.9s0.6,0.4,0.9,0.4c0.3,0,0.7-0.1,0.9-0.4c0.3-0.3,0.4-0.6,0.4-0.9v-2h0.5
			l2.1,2.7c0.2,0.3,0.5,0.4,0.9,0.5c0.1,0,0.1,0,0.2,0c0.3,0,0.5-0.1,0.8-0.3c0.3-0.2,0.4-0.5,0.5-0.9c0.1-0.4,0-0.7-0.3-1l-1.3-1.7
			C68.6,81.4,69,81.1,69.3,80.6z M67.3,78.6c0,0.3-0.1,0.5-0.3,0.7c-0.2,0.2-0.4,0.3-0.7,0.3h-1.5v-2.1h1.5c0.3,0,0.5,0.1,0.7,0.3
			C67.2,78.1,67.3,78.3,67.3,78.6z"/>
		<path class="st0" d="M79.6,76.4c-1.1-1-2.3-1.6-3.8-1.6c-1.5,0-2.8,0.5-3.8,1.6c-1.1,1.1-1.6,2.3-1.6,3.8c0,1.5,0.5,2.8,1.6,3.8
			c1,1.1,2.3,1.6,3.8,1.6c1.5,0,2.8-0.5,3.8-1.6c1-1,1.6-2.3,1.6-3.8C81.2,78.7,80.7,77.5,79.6,76.4z M78.6,80.2
			c0,0.8-0.3,1.4-0.8,2c-0.6,0.6-1.2,0.8-2,0.8c-0.8,0-1.4-0.3-2-0.8c-0.6-0.6-0.8-1.2-0.8-2c0-0.8,0.3-1.4,0.8-2
			c0.6-0.6,1.2-0.8,2-0.8c0.8,0,1.4,0.3,2,0.8C78.4,78.8,78.6,79.4,78.6,80.2z"/>
	</g>
	<g>
		<path class="st0" d="M81.1,90H0V0.8C0,0.4,0.4,0,0.9,0s0.8,0.4,0.8,0.8v87.5h79.4c0.5,0,0.8,0.4,0.8,0.8S81.6,90,81.1,90z"/>
	</g>
</g>
</svg>
